{"glyphs":{"0":{"ha":603,"x_min":13,"x_max":590,"o":"m 466 967 q 555 859 520 940 q 590 657 590 778 q 566 423 590 541 q 500 212 542 306 q 400 59 458 118 q 275 0 342 0 q 167 27 216 0 q 85 103 119 54 q 32 221 51 152 q 13 373 13 289 q 46 606 13 495 q 132 801 78 717 q 254 933 186 884 q 391 982 322 982 q 429 978 410 982 q 466 967 448 974 m 528 480 q 537 546 534 515 q 539 629 539 577 q 504 855 539 771 q 404 940 469 940 q 389 931 395 938 q 363 905 382 923 q 290 797 320 864 q 240 654 260 730 q 211 500 221 578 q 201 358 201 422 q 207 242 201 296 q 223 147 212 188 q 249 83 234 106 q 286 60 265 60 q 359 96 322 60 q 429 191 395 132 q 488 325 462 250 q 528 480 513 400 z "},"1":{"ha":327,"x_min":15,"x_max":320,"o":"m 25 54 q 21 80 21 64 q 30 199 21 119 q 52 372 39 278 q 83 563 65 466 q 118 737 100 660 q 127 781 124 766 q 131 801 131 796 q 129 802 131 802 q 123 797 127 802 q 89 777 108 784 q 54 770 70 770 q 25 778 36 770 q 15 796 15 786 q 23 807 15 804 q 52 819 39 812 q 78 837 65 825 q 107 866 92 848 q 145 912 123 884 q 174 945 163 933 q 192 964 185 958 q 207 971 199 971 q 224 972 214 972 q 291 955 261 972 q 320 907 320 938 l 320 882 q 305 779 320 861 q 267 584 289 698 q 224 337 245 471 q 193 78 203 204 q 187 35 190 51 q 177 11 185 20 q 157 -1 170 2 q 121 -3 144 -3 q 58 14 85 -3 q 25 54 31 31 z "},"2":{"ha":619,"x_min":8,"x_max":611,"o":"m 475 971 q 529 935 505 961 q 572 873 554 910 q 600 793 590 837 q 611 704 611 750 q 555 469 611 583 q 399 248 498 355 q 344 196 374 222 q 288 149 314 170 q 227 101 258 124 q 253 98 227 98 q 343 102 306 98 q 409 116 381 106 q 460 141 438 126 q 503 180 482 157 q 539 209 529 209 q 558 186 546 209 q 570 126 570 163 q 553 77 570 100 q 507 36 536 54 q 437 7 477 18 q 351 -3 397 -3 q 266 -1 299 -3 q 210 6 232 2 q 173 12 188 10 q 142 15 158 15 q 106 11 124 15 q 80 8 88 8 q 60 16 72 8 q 36 35 47 23 q 16 62 25 47 q 8 93 8 77 q 11 104 8 98 q 22 118 13 109 q 47 138 31 126 q 90 168 62 150 q 253 310 175 225 q 392 484 332 394 q 489 662 453 575 q 525 810 525 748 q 448 882 525 882 q 381 859 418 882 q 310 801 343 835 q 254 728 276 766 q 232 660 232 690 q 234 645 232 654 q 235 631 235 637 q 211 613 235 613 q 164 644 183 613 q 145 730 145 675 q 175 831 145 786 q 248 908 204 876 q 341 959 291 941 q 430 977 391 977 q 475 971 458 977 z "},"3":{"ha":596,"x_min":7,"x_max":593,"o":"m 544 946 q 593 833 593 902 q 585 775 593 806 q 559 712 577 743 q 513 650 541 680 q 446 598 485 621 q 427 587 433 590 q 422 580 422 583 q 428 575 422 578 q 520 491 492 546 q 549 374 549 436 q 520 236 549 302 q 440 119 490 170 q 326 38 391 69 q 193 8 261 8 q 108 25 144 8 q 50 67 72 41 q 17 124 28 93 q 7 185 7 155 q 20 257 7 222 q 56 317 34 291 q 102 359 77 343 q 152 374 127 374 q 172 359 172 374 q 149 330 172 343 q 80 203 80 291 q 101 136 80 160 q 160 113 123 113 q 258 150 211 113 q 342 242 306 188 q 399 357 377 296 q 420 466 420 418 q 417 511 420 495 q 404 533 413 526 q 380 542 395 541 q 342 542 364 542 q 311 542 328 542 q 281 541 294 541 q 234 547 248 541 q 221 574 221 554 q 252 596 221 590 q 333 633 288 605 q 419 701 379 662 q 487 785 459 740 q 515 873 515 830 q 498 894 515 886 q 453 902 480 902 q 370 882 413 902 q 291 831 327 861 q 231 766 255 801 q 208 703 208 730 q 210 686 208 694 q 212 672 212 678 q 196 658 212 658 q 170 668 183 658 q 146 694 157 678 q 128 727 136 709 q 121 760 121 745 q 149 845 121 804 q 219 917 176 886 q 311 968 261 949 q 407 987 361 987 q 489 979 462 987 q 544 946 516 971 z "},"4":{"ha":592,"x_min":15,"x_max":583,"o":"m 492 967 q 535 948 510 964 q 572 915 560 931 l 583 897 l 578 855 q 569 803 575 837 q 556 740 562 770 q 514 547 534 647 q 477 357 493 446 q 451 198 461 268 q 441 96 441 127 q 443 49 441 74 q 444 11 444 25 q 439 -21 444 -18 q 418 -25 433 -25 q 315 14 346 -25 q 283 131 283 52 q 286 196 283 157 q 294 271 289 235 q 302 334 299 307 q 306 363 306 361 l 304 363 q 281 358 296 363 q 236 341 268 353 q 168 315 204 328 q 103 292 132 302 q 65 281 74 281 q 31 296 47 281 q 15 324 15 310 q 18 345 15 332 q 28 379 21 358 q 69 520 49 448 q 105 660 88 592 q 135 791 123 729 q 154 902 147 853 q 161 940 158 926 q 167 958 163 953 q 176 965 172 964 q 190 966 181 966 q 230 953 211 966 q 266 919 250 940 q 292 874 283 899 q 302 825 302 850 q 295 766 302 804 q 275 682 288 729 q 247 583 263 636 q 212 479 230 529 q 188 413 196 433 q 180 387 180 392 q 181 386 180 386 q 285 407 255 404 q 315 413 315 410 q 357 619 337 520 q 398 797 377 719 q 440 921 418 874 q 484 967 461 967 l 492 967 l 492 967 z "},"5":{"ha":624,"x_min":7,"x_max":614,"o":"m 493 248 q 369 49 459 121 q 162 -23 279 -23 q 46 25 85 -23 q 7 150 7 74 q 45 280 7 234 q 134 327 83 327 q 152 323 142 327 q 162 314 162 319 q 150 297 162 310 q 114 237 126 270 q 103 170 103 204 q 125 84 103 116 q 185 52 147 52 q 226 69 199 52 q 280 123 253 85 q 328 222 307 160 q 353 377 350 284 q 344 447 353 420 q 315 489 335 474 q 261 509 294 503 q 178 516 227 515 q 125 521 144 518 q 97 529 106 525 q 87 540 88 534 q 85 554 85 546 q 87 574 85 565 q 99 627 93 595 q 110 697 105 660 q 122 772 116 734 q 137 845 127 810 q 151 904 147 881 q 162 938 155 926 q 180 953 168 949 q 216 958 191 958 q 262 956 235 958 q 319 953 289 954 q 377 949 348 951 q 431 948 407 948 q 511 953 482 948 q 556 967 539 959 q 583 980 574 974 q 603 987 592 987 q 614 949 614 987 q 584 874 614 902 q 505 846 554 846 q 368 868 453 846 q 338 874 350 871 q 319 877 327 877 q 306 846 314 877 q 288 770 297 815 q 271 673 279 724 q 260 583 263 623 q 265 569 260 572 q 299 560 270 567 q 453 486 397 539 q 508 343 508 433 q 493 248 508 304 z "},"6":{"ha":588,"x_min":11,"x_max":582,"o":"m 327 582 q 381 595 351 595 q 434 578 407 595 q 484 530 461 562 q 521 453 507 498 q 536 348 536 407 q 503 201 536 281 q 460 109 482 147 q 409 47 438 72 q 341 11 381 23 q 245 0 301 0 q 146 24 190 0 q 73 88 103 47 q 27 181 42 129 q 11 289 11 232 q 60 583 11 454 q 180 801 109 712 q 326 935 250 889 q 456 982 402 982 q 498 979 475 982 q 538 970 520 975 q 569 958 557 964 q 582 948 582 953 q 573 940 582 944 q 536 930 564 935 q 465 908 502 930 q 392 846 428 886 q 324 754 356 807 q 266 639 292 701 q 251 595 260 621 q 234 542 242 569 q 220 496 225 516 q 214 471 214 475 q 225 485 212 471 q 255 519 237 500 q 292 556 273 538 q 327 582 312 574 m 399 234 q 404 277 402 252 q 407 330 407 302 q 385 471 407 426 q 333 525 363 516 q 290 498 314 525 q 246 432 266 472 q 212 344 225 392 q 198 253 198 296 q 203 195 198 227 q 221 136 209 163 q 249 91 232 109 q 291 72 266 72 q 350 111 320 72 q 399 234 381 150 z "},"7":{"ha":574,"x_min":10,"x_max":560,"o":"m 366 549 q 292 408 327 479 q 230 273 257 338 q 190 150 204 208 q 175 51 175 93 q 165 -7 175 10 q 127 -25 155 -25 q 60 2 83 -25 q 36 105 36 29 q 42 176 36 141 q 60 254 47 212 q 95 347 74 296 q 147 464 116 399 q 217 596 173 521 q 301 739 260 672 q 371 851 342 806 q 400 895 400 897 q 399 897 400 897 q 386 893 395 897 q 364 884 377 889 q 231 840 297 856 q 123 824 165 824 q 33 851 57 824 q 10 917 10 879 q 20 961 10 944 q 41 977 29 977 q 64 967 49 977 q 217 931 116 931 q 285 938 245 931 q 365 952 325 944 q 438 966 405 959 q 482 972 471 972 q 506 967 492 972 q 532 955 520 962 q 552 936 544 948 q 560 913 560 925 q 551 878 560 902 q 517 812 541 855 q 457 705 493 770 q 366 549 420 641 z "},"8":{"ha":574,"x_min":8,"x_max":556,"o":"m 542 719 q 506 632 528 672 q 458 564 484 592 l 430 534 l 456 495 q 509 383 493 438 q 525 286 525 328 q 502 189 525 239 q 441 96 480 139 q 349 27 402 54 q 234 0 296 0 q 138 20 180 0 q 68 72 96 39 q 24 146 39 105 q 8 234 8 188 q 47 397 8 319 q 93 464 64 431 q 154 523 123 497 q 215 565 186 549 q 258 582 243 582 q 253 592 258 583 q 242 611 248 600 q 199 693 214 652 q 183 771 183 734 q 244 922 183 868 q 395 987 306 975 q 468 972 438 987 q 518 934 498 958 q 547 879 538 910 q 556 814 556 848 q 553 763 556 781 q 542 719 551 745 m 271 160 q 353 346 353 245 q 346 407 353 373 q 327 472 338 441 q 304 525 315 503 q 284 547 292 547 q 271 542 281 547 q 250 528 261 536 q 227 511 239 520 q 211 497 216 503 q 131 361 160 441 q 101 203 101 281 q 127 132 101 160 q 180 103 152 103 q 213 113 193 103 q 271 160 234 123 m 423 600 q 472 690 451 637 q 493 807 493 742 q 484 885 493 850 q 456 920 474 920 q 409 902 431 920 q 372 856 387 884 q 346 794 356 828 q 337 727 337 760 q 338 697 337 711 q 345 670 340 683 q 356 645 348 660 q 373 614 364 629 q 390 587 382 598 q 399 575 397 575 q 408 583 402 575 q 423 600 415 590 z "},"9":{"ha":614,"x_min":33,"x_max":601,"o":"m 601 649 q 548 381 596 502 q 432 174 500 260 q 289 42 364 88 q 157 -5 214 -5 q 69 8 106 -5 q 33 29 33 21 q 78 46 33 41 q 151 72 114 49 q 223 133 188 95 q 290 223 258 172 q 348 337 322 275 q 364 380 355 353 q 382 433 373 407 q 396 480 391 459 q 402 505 402 500 q 400 507 402 505 q 387 489 399 507 q 313 411 356 441 q 235 381 270 381 q 175 398 203 381 q 127 447 147 415 q 95 521 106 479 q 83 616 83 564 q 96 721 83 667 q 132 822 109 775 q 186 907 155 869 q 255 962 217 944 q 287 973 273 971 q 338 977 301 975 l 358 977 q 538 891 475 977 q 601 649 601 806 m 410 667 q 416 696 413 685 q 418 716 418 708 q 408 804 418 768 q 382 863 397 840 q 350 895 368 886 q 317 905 332 905 q 242 827 276 897 q 208 642 208 757 q 232 502 208 549 q 281 454 257 454 q 323 476 302 454 q 360 530 343 498 q 391 600 377 562 q 410 667 404 637 z "},"A":{"ha":1511,"x_min":38,"x_max":1515,"o":"m 134 -150 q 62 -37 87 -103 q 38 103 38 29 q 77 272 38 186 q 178 426 116 358 q 319 538 240 495 q 474 582 397 582 q 527 574 498 582 q 580 553 556 565 q 621 526 605 541 q 637 498 637 511 q 631 489 637 489 q 597 504 624 489 q 533 520 570 520 q 462 502 502 520 q 380 456 422 485 q 300 389 338 426 q 235 312 261 351 q 173 180 193 250 q 154 42 154 109 q 198 -121 154 -56 q 335 -186 242 -186 q 431 -158 384 -186 q 528 -75 477 -129 q 581 -14 547 -56 q 647 71 614 28 q 704 148 680 114 q 729 186 729 181 q 711 188 729 188 q 542 167 608 188 q 446 119 475 147 q 412 98 425 98 q 405 101 407 98 q 404 121 404 105 q 474 228 404 198 q 711 258 544 258 q 768 255 770 258 q 777 261 771 255 q 792 282 783 266 q 819 324 802 297 q 859 392 835 350 q 1023 648 943 525 q 1176 867 1103 771 q 1315 1020 1250 962 q 1431 1077 1379 1077 q 1493 1057 1471 1077 q 1515 1023 1515 1038 q 1512 983 1515 1008 q 1506 927 1510 958 q 1496 864 1502 897 q 1484 804 1490 832 q 1436 575 1456 676 q 1404 388 1417 474 q 1384 225 1391 302 q 1377 74 1377 149 q 1381 -8 1377 26 q 1390 -70 1384 -42 q 1406 -121 1395 -98 q 1431 -168 1417 -144 q 1448 -200 1441 -186 q 1454 -217 1454 -214 q 1444 -230 1454 -224 q 1417 -237 1433 -237 q 1328 -211 1368 -237 q 1262 -144 1289 -185 q 1219 -56 1235 -103 q 1198 33 1203 -10 q 1193 59 1194 54 q 1176 70 1191 64 q 1105 100 1154 83 q 1010 130 1057 116 q 926 153 962 144 q 892 162 891 162 q 877 151 887 163 q 845 109 866 139 q 712 -56 773 10 q 595 -163 650 -123 q 484 -220 539 -203 q 371 -237 430 -237 q 228 -214 283 -237 q 134 -150 173 -191 m 958 289 q 935 248 944 266 q 926 227 926 230 q 958 220 923 234 q 1038 186 992 206 q 1126 150 1083 167 q 1181 132 1168 132 q 1185 154 1183 141 q 1190 219 1188 176 q 1203 398 1193 306 q 1230 580 1214 490 q 1269 754 1247 670 q 1317 907 1291 838 q 1328 944 1328 938 l 1328 946 q 1303 922 1324 946 q 1266 876 1283 899 q 1237 830 1252 855 q 1203 770 1222 806 q 1158 684 1183 735 q 1095 556 1132 632 q 1052 471 1074 513 q 1012 392 1031 428 q 979 328 993 356 q 958 289 964 301 z "},"B":{"ha":1237,"x_min":31,"x_max":1129,"o":"m 144 554 q 108 564 127 554 q 71 592 88 574 q 42 636 54 611 q 31 693 31 662 q 59 776 31 735 q 133 855 87 817 q 241 923 180 892 q 369 977 302 954 q 506 1013 436 1000 q 637 1026 575 1026 q 782 1007 717 1026 q 892 955 846 987 q 962 882 938 923 q 987 801 987 842 q 956 698 987 747 q 918 654 944 680 q 864 606 892 629 q 792 549 832 578 q 806 547 792 549 q 837 541 819 546 q 879 529 856 536 q 922 511 902 521 q 1074 390 1018 461 q 1129 239 1129 319 q 1075 65 1129 155 q 929 -100 1021 -25 q 712 -223 837 -175 q 448 -271 588 -271 q 340 -257 394 -271 q 243 -219 286 -243 q 173 -160 199 -194 q 147 -85 147 -126 q 158 -29 147 -60 q 193 33 170 2 q 248 97 216 65 q 324 154 281 129 l 356 173 l 366 255 q 395 436 376 340 q 438 621 415 533 q 485 782 461 709 q 529 892 510 855 l 542 917 l 525 912 q 471 895 505 908 q 397 861 436 881 q 320 819 358 842 q 258 779 283 797 q 182 701 216 747 q 149 614 149 655 q 154 586 149 601 q 160 564 160 570 q 144 554 160 554 m 691 933 q 627 928 627 933 q 639 921 627 926 q 664 906 650 915 q 690 886 678 897 q 701 863 701 874 q 686 790 701 850 q 649 642 672 730 q 636 594 641 614 q 631 569 631 574 q 648 580 634 569 q 681 608 662 592 q 751 673 716 637 q 813 745 786 709 q 857 815 840 781 q 874 874 874 848 q 826 920 874 907 q 691 933 778 933 m 794 183 q 793 167 794 173 q 784 162 792 162 q 753 172 775 162 q 693 183 732 183 q 650 179 675 183 q 604 170 626 175 q 566 161 582 165 q 549 157 551 157 q 544 131 547 154 q 538 76 541 108 q 534 12 536 44 q 533 -39 533 -20 l 533 -100 l 518 -113 q 443 -139 485 -139 q 359 -106 400 -139 q 353 -100 355 -103 q 350 -88 351 -96 q 348 -63 348 -80 q 348 -15 348 -46 q 347 42 348 18 q 345 67 346 67 q 327 57 340 67 q 300 33 314 47 q 274 4 286 20 q 255 -23 261 -11 q 237 -105 237 -59 q 353 -199 237 -199 q 547 -154 459 -190 q 707 -66 636 -118 q 832 46 778 -15 q 921 164 886 106 q 974 272 956 222 q 992 351 992 322 q 967 406 992 381 q 901 449 943 431 q 804 477 859 467 q 688 487 748 487 q 636 484 658 487 q 609 479 613 482 q 598 440 606 474 q 582 365 590 407 q 568 287 574 324 q 562 240 562 250 l 562 237 q 602 241 569 237 q 673 245 636 245 q 756 231 722 245 q 794 183 789 217 z "},"C":{"ha":1018,"x_min":31,"x_max":1093,"o":"m 155 -93 q 66 33 101 -46 q 31 227 31 111 q 38 341 31 289 q 59 446 44 392 q 152 673 88 560 q 301 875 216 786 q 484 1019 386 964 q 681 1074 582 1074 q 783 1054 737 1074 q 860 1004 828 1034 q 909 935 892 974 q 926 858 926 897 q 897 740 926 799 q 824 635 868 681 q 728 560 779 588 q 631 531 676 531 q 592 538 609 531 q 575 557 575 546 q 618 582 575 569 q 699 629 662 596 q 766 703 737 662 q 810 788 794 745 q 827 868 827 832 q 806 965 827 925 q 750 1005 784 1005 q 676 987 722 1005 q 587 938 631 969 q 437 800 505 881 q 321 624 369 719 q 247 423 273 529 q 221 208 221 317 q 286 -34 221 41 q 456 -109 351 -109 q 654 -52 552 -109 q 848 132 757 5 q 925 257 884 185 q 999 394 966 328 q 1054 505 1033 459 q 1075 551 1075 551 q 1087 544 1082 551 q 1093 528 1093 538 q 1087 498 1093 520 q 1069 449 1080 477 q 1044 386 1059 420 q 1013 319 1029 353 q 953 200 982 253 q 892 102 923 147 q 827 17 861 57 q 752 -62 792 -23 q 664 -134 704 -106 q 586 -177 624 -162 q 509 -198 547 -193 q 426 -203 471 -203 q 279 -169 353 -203 q 155 -93 206 -136 z "},"D":{"ha":1261,"x_min":54,"x_max":1180,"o":"m 150 528 q 155 513 155 518 q 144 503 155 503 q 108 517 124 503 q 79 552 92 531 q 60 600 67 574 q 54 650 54 626 q 111 810 54 734 q 262 946 168 887 q 477 1040 356 1005 q 725 1075 598 1075 q 911 1042 827 1075 q 1055 947 995 1008 q 1147 798 1114 886 q 1180 603 1180 711 q 1144 386 1180 490 q 1048 190 1108 281 q 910 23 989 98 q 747 -106 832 -52 q 576 -190 662 -160 q 415 -219 490 -219 q 287 -203 345 -219 q 187 -159 229 -186 q 123 -98 145 -132 q 100 -29 100 -64 q 123 65 100 13 q 183 167 145 116 q 268 264 221 219 q 363 338 315 309 q 400 364 392 356 q 410 381 408 373 q 450 563 430 482 q 493 712 471 644 q 540 842 515 781 q 595 961 565 902 q 578 958 592 962 q 545 949 564 954 q 505 934 526 943 q 466 917 484 925 q 337 841 395 882 q 234 753 278 799 q 167 658 191 708 q 144 560 144 609 q 145 540 144 547 q 150 528 147 533 m 691 400 q 620 385 639 392 q 598 366 601 377 q 569 229 585 319 q 539 28 554 139 q 529 -25 533 -5 q 519 -55 526 -44 q 497 -69 511 -65 q 454 -72 482 -72 q 388 -57 420 -72 q 356 -15 356 -42 q 361 25 356 -13 q 371 110 366 62 q 381 203 376 158 q 386 263 386 248 q 384 265 386 265 q 370 257 381 265 q 346 236 359 248 q 316 210 332 224 q 291 185 301 196 q 188 -42 188 69 q 226 -116 188 -90 q 320 -142 265 -142 q 439 -116 371 -142 q 578 -42 507 -90 q 721 73 650 7 q 850 219 792 139 q 989 481 943 348 q 1034 771 1034 614 q 1021 865 1034 825 q 978 931 1008 905 q 898 968 948 956 q 775 980 848 980 q 708 980 739 980 q 670 977 678 979 l 650 974 l 681 961 q 745 907 745 941 q 734 872 745 905 q 703 779 722 838 q 662 635 685 719 q 614 446 639 551 l 611 430 l 639 433 q 673 437 650 436 q 719 438 696 438 q 798 423 776 438 q 820 399 820 408 q 812 392 820 392 q 787 399 804 392 q 750 405 770 405 q 691 400 727 405 z "},"E":{"ha":935,"x_min":41,"x_max":980,"o":"m 320 -224 q 118 -135 194 -208 q 41 46 41 -62 q 79 209 41 134 q 169 340 118 284 q 271 427 221 395 q 346 459 322 459 q 355 462 355 459 q 327 485 355 471 q 242 560 270 516 q 214 657 214 605 q 256 793 214 721 q 365 929 297 866 q 521 1033 433 992 q 703 1075 609 1075 q 780 1061 742 1075 q 848 1025 819 1047 q 895 971 877 1002 q 913 908 913 941 q 908 876 913 900 q 869 765 895 814 q 807 681 843 716 q 726 627 771 645 q 632 608 681 608 q 585 617 606 608 q 564 639 564 626 q 603 662 564 652 q 685 706 647 673 q 750 779 722 739 q 793 864 778 820 q 809 940 809 907 q 801 985 809 974 q 776 997 792 997 q 640 959 714 997 q 499 864 565 922 q 389 740 433 807 q 345 613 345 673 q 353 556 345 578 q 382 519 361 533 q 438 498 404 505 q 525 490 472 492 q 630 475 605 487 q 655 448 655 464 q 643 443 655 446 q 605 438 631 440 q 449 394 518 433 q 330 296 379 355 q 254 167 281 237 q 227 31 227 96 q 239 -53 227 -21 q 269 -103 250 -85 q 313 -127 288 -121 q 366 -134 338 -134 q 503 -96 430 -134 q 598 -36 554 -70 q 686 51 642 -2 q 779 180 730 105 q 891 364 828 255 q 924 426 912 404 q 943 459 936 448 q 953 474 949 471 q 966 477 958 477 q 976 471 972 477 q 980 461 980 466 q 967 422 980 453 q 930 346 953 391 q 878 250 907 302 q 821 148 850 198 q 766 56 792 98 q 724 -8 740 15 q 538 -176 636 -126 q 361 -227 441 -227 q 339 -226 350 -227 q 320 -224 328 -225 z "},"F":{"ha":828,"x_min":56,"x_max":1346,"o":"m 190 582 q 181 574 190 574 q 134 596 157 574 q 94 650 111 618 q 66 718 77 681 q 56 784 56 755 q 86 902 56 848 q 167 995 116 956 q 287 1056 219 1034 q 431 1077 355 1077 q 495 1071 453 1077 q 592 1056 538 1065 q 708 1037 647 1047 q 827 1017 770 1026 q 934 1002 884 1008 q 1015 997 984 997 q 1169 1011 1100 997 q 1297 1054 1239 1026 q 1323 1065 1312 1062 q 1338 1067 1333 1067 q 1346 1051 1346 1067 q 1275 927 1346 975 q 1054 879 1203 879 q 980 881 1013 879 q 913 887 948 882 q 834 901 877 892 q 729 925 791 910 q 717 847 724 918 q 675 619 709 776 q 654 525 662 567 q 647 475 647 482 l 645 456 l 693 451 q 730 448 716 448 q 752 449 743 448 q 769 453 761 451 q 786 459 776 456 l 822 479 q 847 490 835 487 q 864 493 859 493 q 873 480 873 493 q 861 443 873 462 q 827 407 850 423 q 771 380 804 391 q 694 369 739 369 q 671 370 678 369 q 658 373 663 371 q 649 375 654 374 q 632 376 644 376 q 620 348 627 376 q 605 278 613 320 q 588 185 596 235 q 574 87 580 134 q 563 3 567 39 q 559 -46 559 -33 q 575 -127 559 -98 q 592 -165 592 -155 q 560 -183 592 -183 q 433 -123 482 -183 q 384 42 384 -64 q 386 92 384 67 q 394 150 389 118 q 407 224 399 181 q 428 327 415 266 q 440 382 436 364 q 444 408 444 400 q 420 420 444 420 q 396 417 410 420 q 368 413 382 415 q 342 408 353 410 q 325 405 330 405 q 312 420 312 405 q 317 440 312 430 q 334 458 322 449 q 368 475 346 467 q 426 485 391 482 q 457 489 448 487 q 471 506 466 492 q 481 551 475 520 q 500 642 487 583 q 552 873 536 802 q 569 951 569 944 q 549 962 569 959 q 472 966 529 966 q 333 944 397 966 q 223 886 270 922 q 150 804 176 850 q 124 709 124 758 q 136 655 124 680 q 148 636 139 647 q 166 615 157 626 q 182 596 175 605 q 190 582 190 587 z "},"G":{"ha":997,"x_min":29,"x_max":956,"o":"m 139 -80 q 80 -4 101 -41 q 47 71 59 33 q 33 152 36 109 q 29 245 29 194 q 59 451 29 350 q 139 645 88 552 q 257 815 190 737 q 398 950 324 894 q 550 1039 472 1007 q 701 1072 627 1072 q 797 1056 752 1072 q 878 1013 843 1041 q 935 947 913 985 q 956 863 956 908 q 935 760 956 810 q 877 668 913 709 q 790 602 840 627 q 685 577 740 577 q 618 586 647 577 q 588 609 588 595 q 626 624 588 613 q 717 672 675 639 q 789 748 758 704 q 838 839 820 791 q 856 933 856 887 q 832 996 856 980 q 768 1011 807 1011 q 650 980 712 1011 q 527 893 588 949 q 409 760 466 837 q 310 592 353 683 q 241 400 266 502 q 216 194 216 299 q 221 137 216 172 q 248 30 230 74 q 288 -39 266 -13 q 337 -77 310 -65 q 394 -88 364 -88 q 525 -42 469 -88 q 613 77 580 3 q 619 99 613 77 q 636 154 626 121 q 658 228 645 188 q 681 306 670 268 q 702 373 693 343 q 716 417 711 404 l 712 417 q 708 417 711 417 q 703 418 706 418 q 594 400 645 418 q 520 346 542 382 q 493 327 505 327 q 474 368 474 327 q 511 460 474 425 q 631 495 547 495 q 726 486 678 495 q 825 477 775 477 l 892 477 q 932 475 917 477 q 948 462 948 472 q 931 429 948 444 q 894 413 913 413 q 864 365 881 413 q 833 246 848 317 q 808 94 819 175 q 797 -52 797 13 q 801 -100 797 -82 q 810 -131 806 -119 q 819 -148 815 -142 q 824 -158 824 -154 q 813 -173 824 -168 q 784 -178 802 -178 q 685 -139 717 -178 q 639 -47 652 -100 l 632 -20 q 508 -138 577 -103 q 376 -173 440 -173 q 248 -153 309 -173 q 139 -80 186 -132 z "},"H":{"ha":1173,"x_min":34,"x_max":1225,"o":"m 145 554 q 136 551 139 551 q 98 563 116 551 q 65 596 80 575 q 42 645 51 618 q 34 699 34 672 q 72 839 34 768 q 171 969 109 910 q 310 1065 232 1028 q 466 1103 387 1103 q 632 1037 570 1103 q 698 855 693 971 q 696 804 698 827 q 691 750 694 781 q 682 676 688 719 q 665 567 676 632 q 652 489 657 521 q 647 448 647 456 q 675 440 647 446 q 739 426 703 433 q 806 412 775 418 q 848 405 838 405 q 861 451 850 405 q 890 565 873 497 q 927 714 907 634 q 966 863 948 794 q 990 965 982 925 q 1004 1028 998 1005 q 1016 1060 1010 1051 q 1033 1069 1021 1069 q 1124 884 1124 1069 q 1117 777 1124 835 q 1101 665 1109 719 q 1092 605 1098 647 q 1078 517 1085 562 q 1066 435 1072 472 q 1060 392 1060 399 q 1069 391 1060 391 q 1109 395 1085 391 q 1156 406 1132 400 q 1197 417 1180 412 q 1217 422 1214 422 q 1225 408 1225 422 q 1221 385 1225 394 q 1202 369 1216 376 q 1162 358 1188 363 q 1095 348 1136 353 q 1065 344 1077 345 q 1051 342 1052 343 q 1042 303 1047 338 q 1031 223 1036 268 q 1022 132 1026 178 q 1018 64 1018 87 q 1025 -10 1018 20 q 1056 -83 1033 -39 q 1072 -131 1072 -116 q 1054 -154 1072 -144 q 1010 -165 1036 -165 q 919 -138 967 -165 q 850 -70 871 -111 q 825 3 832 -34 q 819 109 819 41 q 821 170 819 136 q 827 238 824 204 q 834 301 830 271 q 842 346 838 330 q 810 358 842 353 q 742 366 779 363 q 673 371 704 369 q 642 373 642 373 q 632 360 637 373 q 623 328 627 348 q 614 284 618 309 q 608 235 611 260 q 601 187 606 221 q 592 114 596 154 q 583 39 587 75 q 580 -16 580 3 q 583 -51 580 -33 q 592 -87 587 -70 q 600 -116 596 -103 q 603 -132 603 -129 q 587 -156 603 -147 q 544 -165 572 -165 q 432 -113 475 -165 q 389 29 389 -60 q 395 107 389 56 q 409 212 402 158 q 423 310 417 266 q 430 364 430 353 q 428 366 430 366 q 409 362 423 366 q 378 353 395 358 q 344 342 361 348 q 319 332 327 337 q 294 317 307 327 q 269 297 281 307 q 248 281 257 288 q 235 275 239 275 q 225 297 225 275 q 269 392 225 350 q 395 449 312 435 l 453 459 l 493 623 q 526 753 513 699 q 548 845 539 807 q 560 906 557 882 q 564 946 564 930 q 553 1016 564 997 q 515 1036 542 1036 q 395 1001 462 1036 q 270 909 328 966 q 170 784 211 853 q 129 649 129 716 q 142 592 129 609 q 155 567 155 575 q 145 554 155 559 z "},"I":{"ha":595,"x_min":49,"x_max":556,"o":"m 106 572 q 49 701 49 611 q 82 833 49 765 q 161 955 114 900 q 260 1045 208 1010 q 351 1080 312 1080 q 503 989 451 1080 q 556 735 556 899 q 542 561 556 660 q 507 362 528 462 q 459 172 485 261 q 407 26 433 82 q 294 -132 356 -83 q 163 -181 232 -181 q 114 -157 126 -181 q 101 -75 101 -132 q 105 -22 101 -44 q 119 42 108 0 q 161 173 142 132 q 199 214 180 214 q 209 212 204 214 q 214 203 214 209 q 197 131 206 162 q 180 70 188 100 q 166 9 172 41 q 160 -65 160 -23 q 170 -95 160 -95 q 205 -43 183 -95 q 251 92 227 8 q 299 282 275 175 q 343 499 324 389 q 375 715 363 609 q 387 902 387 820 q 381 991 387 959 q 363 1023 374 1023 q 327 1003 351 1023 q 278 956 302 984 q 222 881 247 922 q 180 799 198 840 q 152 720 162 758 q 142 650 142 681 q 163 587 142 606 l 175 574 l 163 565 q 142 557 152 557 q 106 572 126 557 z "},"J":{"ha":966,"x_min":31,"x_max":912,"o":"m 173 -423 q 118 -392 144 -415 q 72 -338 92 -369 q 42 -269 52 -307 q 31 -191 31 -230 q 206 199 31 3 q 293 280 245 243 q 391 344 342 317 q 489 386 441 371 q 577 402 538 402 q 609 398 595 402 q 624 386 624 394 q 587 369 624 376 q 464 315 539 361 q 318 192 389 270 q 196 11 247 114 q 145 -214 145 -92 q 154 -281 145 -250 q 176 -335 163 -312 q 207 -371 190 -358 q 240 -384 224 -384 q 278 -370 255 -384 q 326 -333 301 -356 q 377 -279 351 -310 q 426 -216 404 -248 q 553 38 492 -116 q 665 386 614 193 q 708 557 690 482 q 736 694 725 632 q 752 806 747 755 q 757 902 757 856 q 730 1013 757 1013 q 679 1003 712 1013 q 618 980 645 993 q 514 910 559 951 q 439 824 469 869 q 392 730 408 778 q 376 639 376 681 q 383 600 376 614 q 399 575 391 585 q 414 560 407 565 q 422 549 422 554 q 394 534 422 534 q 356 542 381 534 q 307 569 332 551 q 265 615 283 587 q 247 685 247 644 q 288 812 247 743 q 394 940 330 881 q 535 1038 458 998 q 686 1078 613 1078 q 859 989 807 1078 q 912 717 912 899 q 906 614 912 667 q 887 489 900 560 q 781 118 850 286 q 627 -170 712 -49 q 443 -359 541 -291 q 248 -430 345 -426 q 173 -423 191 -430 z "},"K":{"ha":1137,"x_min":31,"x_max":1279,"o":"m 49 593 q 38 625 41 611 q 31 662 34 639 q 67 798 31 725 q 163 932 103 871 q 302 1034 224 993 q 467 1075 381 1075 q 560 1056 518 1075 q 631 1004 601 1038 q 676 926 660 971 q 693 828 693 881 q 692 766 693 791 q 687 707 691 740 q 676 623 683 673 q 654 490 668 574 q 644 428 647 454 q 641 399 641 402 q 684 419 652 397 q 758 480 716 441 q 850 567 801 518 q 947 669 900 616 q 1033 775 993 722 q 1100 871 1074 827 q 1132 928 1119 904 q 1151 972 1144 953 q 1162 1011 1158 992 q 1165 1054 1165 1031 q 1165 1089 1165 1078 q 1173 1100 1165 1100 q 1194 1095 1183 1100 q 1212 1075 1204 1090 q 1226 1033 1221 1060 q 1232 962 1232 1007 q 1232 919 1232 935 q 1230 891 1232 904 q 1225 868 1229 879 q 1217 843 1222 858 q 1154 720 1198 786 q 1051 591 1109 654 q 925 472 993 528 q 786 382 856 417 q 766 373 775 376 q 757 368 758 369 q 764 353 757 368 q 783 316 771 338 q 810 269 796 294 q 840 222 825 243 q 1033 -1 938 72 q 1208 -74 1129 -74 q 1241 -69 1225 -74 q 1266 -64 1257 -64 q 1279 -82 1279 -64 q 1267 -118 1279 -96 q 1234 -160 1255 -139 q 1183 -196 1212 -181 q 1118 -211 1154 -211 q 1022 -182 1075 -211 q 913 -101 969 -154 q 801 23 856 -49 q 701 183 745 95 q 654 284 667 252 q 634 317 642 317 q 618 282 626 317 q 602 199 609 247 q 590 99 595 150 q 582 15 585 47 l 574 -67 l 587 -103 q 601 -158 601 -147 q 584 -186 601 -178 q 544 -194 567 -194 q 429 -139 471 -194 q 387 16 387 -83 q 399 163 387 80 q 430 338 410 245 q 474 532 449 431 q 526 730 498 632 q 552 846 544 801 q 560 926 560 892 q 553 989 560 971 q 508 1008 546 1008 q 376 967 443 1008 q 254 867 309 926 q 164 740 199 807 q 129 623 129 673 q 141 563 129 582 q 152 536 152 544 q 131 525 152 525 q 87 543 109 525 q 49 593 64 562 z "},"L":{"ha":750,"x_min":29,"x_max":1173,"o":"m 342 -127 q 374 -116 374 -119 q 366 -70 374 -109 q 358 25 358 -31 q 358 58 358 29 q 369 158 358 87 q 409 353 381 229 q 493 673 438 477 q 550 884 534 807 q 565 982 565 961 q 552 1003 565 1003 q 542 1002 547 1003 q 529 1000 538 1002 q 381 919 451 980 q 259 780 310 858 q 177 621 208 703 q 147 479 147 539 q 147 445 147 458 q 150 424 147 433 q 158 407 152 415 q 173 387 163 399 q 175 379 175 384 q 144 363 175 366 q 60 416 90 363 q 29 562 29 469 q 60 694 29 626 q 140 824 90 761 q 255 941 190 887 q 391 1031 320 995 q 465 1065 438 1056 q 520 1074 492 1074 q 563 1069 549 1074 q 605 1051 577 1064 q 691 979 667 1021 q 716 856 716 936 q 713 780 716 814 q 704 705 711 747 q 685 605 698 663 q 650 456 672 546 q 613 293 631 374 q 582 145 595 212 q 560 26 569 77 q 551 -46 552 -25 q 549 -65 549 -57 q 549 -80 549 -74 q 562 -107 549 -103 q 621 -114 575 -111 q 723 -125 673 -119 q 817 -136 773 -131 q 897 -146 861 -142 q 956 -150 933 -150 q 1028 -142 993 -150 q 1090 -124 1062 -134 q 1136 -106 1118 -114 q 1157 -98 1154 -98 q 1173 -126 1173 -98 q 1150 -196 1173 -163 q 1090 -252 1127 -229 q 1004 -289 1052 -276 q 905 -302 956 -302 q 838 -298 864 -302 q 779 -284 812 -294 q 699 -260 747 -275 q 565 -224 650 -245 q 495 -208 521 -214 q 451 -199 469 -201 q 420 -195 433 -196 q 387 -194 407 -194 q 352 -198 373 -194 q 310 -206 332 -201 q 271 -214 289 -211 q 247 -217 253 -217 q 234 -204 234 -217 q 259 -160 234 -180 q 342 -127 284 -141 z "},"M":{"ha":1722,"x_min":47,"x_max":1740,"o":"m 119 520 q 47 654 47 559 q 89 812 47 729 q 198 966 131 895 q 349 1082 265 1036 q 516 1127 433 1127 q 649 1093 577 1127 q 722 1045 693 1072 q 769 979 752 1018 q 792 885 786 940 q 799 753 799 830 q 796 678 799 711 q 792 644 792 645 q 803 659 794 642 q 825 704 812 676 q 904 847 861 779 q 992 967 948 915 q 1078 1047 1036 1018 q 1150 1077 1119 1077 q 1231 1039 1199 1077 q 1263 935 1263 1002 q 1247 794 1263 881 q 1198 572 1230 708 q 1184 514 1190 539 q 1176 485 1178 489 q 1175 480 1175 482 l 1175 479 q 1188 498 1178 479 q 1212 552 1198 518 q 1276 691 1245 629 q 1339 804 1307 753 q 1404 895 1371 855 q 1474 971 1436 936 q 1522 1013 1497 993 q 1570 1047 1547 1033 q 1611 1071 1593 1062 q 1639 1080 1629 1080 q 1713 1043 1686 1080 q 1740 954 1740 1007 q 1727 833 1740 905 q 1686 672 1714 760 q 1613 426 1641 523 q 1570 266 1585 330 q 1551 158 1556 201 q 1547 70 1547 114 q 1555 -20 1547 13 q 1582 -83 1562 -52 q 1596 -109 1590 -96 q 1601 -123 1601 -121 q 1588 -135 1601 -131 q 1552 -139 1575 -139 q 1404 -78 1454 -139 q 1353 103 1353 -18 q 1366 252 1353 168 q 1407 431 1379 337 q 1432 515 1418 474 q 1466 608 1446 556 q 1515 732 1485 660 q 1587 907 1544 804 q 1624 1013 1624 1000 q 1623 1016 1624 1016 q 1608 1010 1619 1016 q 1582 993 1596 1003 q 1551 970 1567 982 q 1523 948 1534 958 q 1423 836 1471 904 q 1328 670 1376 768 q 1229 439 1279 572 q 1123 129 1178 306 q 1104 71 1111 92 q 1091 40 1096 51 q 1080 27 1085 29 q 1069 25 1075 25 q 980 82 1013 25 q 946 242 946 139 q 962 386 946 306 q 1008 565 979 466 q 1055 706 1029 636 q 1101 836 1080 776 q 1137 940 1123 895 q 1152 1008 1152 985 q 1145 1021 1152 1021 q 1127 1011 1142 1021 q 1096 989 1113 1002 q 1062 961 1078 975 q 1036 936 1046 946 q 895 733 958 848 q 788 494 832 618 q 721 249 743 371 q 698 29 698 127 q 703 -71 698 -20 q 709 -147 709 -123 q 699 -166 709 -158 q 660 -173 688 -173 q 632 -168 645 -173 q 588 -149 618 -163 q 546 -123 562 -136 q 520 -95 529 -111 q 508 -55 511 -78 q 505 7 505 -31 q 511 110 505 47 q 530 249 518 173 q 559 408 542 325 q 595 572 575 492 q 638 777 624 693 q 652 935 652 861 q 637 1029 652 1002 q 580 1057 623 1057 q 474 1031 529 1057 q 367 960 418 1005 q 271 855 315 915 q 199 725 227 794 q 183 671 188 698 q 178 621 178 644 q 187 570 178 588 q 208 542 196 552 q 228 528 219 533 q 237 516 237 523 q 201 498 237 498 q 160 503 183 498 q 119 520 137 508 z "},"N":{"ha":1255,"x_min":33,"x_max":1253,"o":"m 654 539 q 658 547 654 538 q 668 569 662 556 q 759 751 706 660 q 873 914 812 842 q 1001 1033 935 987 q 1129 1078 1067 1078 q 1176 1073 1154 1078 q 1215 1050 1198 1067 q 1243 1002 1232 1033 q 1253 923 1253 972 q 1248 864 1253 897 q 1232 780 1243 832 q 1201 654 1221 729 q 1150 471 1181 580 q 1121 365 1132 410 q 1101 281 1109 320 q 1087 205 1093 242 q 1075 124 1080 168 q 1069 75 1072 96 q 1067 36 1067 54 q 1069 2 1067 18 q 1075 -31 1072 -15 q 1092 -78 1080 -56 q 1118 -117 1105 -100 q 1141 -145 1131 -134 q 1150 -157 1150 -155 q 1135 -176 1150 -165 q 1092 -188 1119 -188 q 1074 -185 1083 -188 q 1046 -180 1064 -183 q 962 -149 995 -168 q 911 -99 930 -129 q 885 -27 892 -69 q 877 72 877 15 q 888 222 877 147 q 921 382 899 297 q 975 564 943 466 q 1052 784 1008 662 q 1109 949 1092 894 q 1126 1021 1126 1005 q 1119 1031 1126 1031 q 1069 1012 1101 1031 q 1002 964 1038 993 q 929 897 966 935 q 866 820 892 859 q 761 634 815 748 q 663 391 708 520 q 589 136 618 263 q 560 -92 560 8 q 564 -134 560 -118 q 567 -158 567 -150 q 546 -185 567 -180 q 495 -191 525 -191 q 389 -140 426 -191 q 351 0 351 -88 q 355 75 351 31 q 368 162 359 119 q 391 266 376 203 q 424 400 405 328 q 462 547 443 472 q 498 690 482 623 q 525 810 515 757 q 536 892 536 864 q 530 935 536 913 q 515 972 525 956 q 493 999 505 989 q 467 1010 480 1010 q 354 975 407 1010 q 261 886 301 941 q 200 765 222 832 q 178 632 178 698 q 194 538 178 580 q 237 477 209 495 q 251 467 245 472 q 257 458 257 461 q 239 444 257 449 q 198 440 221 440 q 74 495 116 440 q 33 644 33 551 q 68 797 33 722 q 160 929 103 871 q 288 1022 217 987 q 431 1057 359 1057 q 619 985 556 1057 q 683 791 683 913 q 678 726 683 765 q 667 650 673 688 q 658 580 662 611 q 654 539 654 549 z "},"O":{"ha":1242,"x_min":39,"x_max":1167,"o":"m 650 1078 q 875 1042 778 1078 q 1037 940 972 1007 q 1134 779 1101 874 q 1167 565 1167 683 q 1115 279 1167 415 q 984 39 1064 144 q 806 -127 904 -65 q 616 -188 708 -188 q 489 -168 546 -188 q 387 -114 431 -149 q 314 -33 343 -80 q 273 69 284 13 l 263 113 l 237 126 q 90 266 141 173 q 39 477 39 358 q 82 668 39 565 q 203 860 124 771 q 395 1011 283 949 q 650 1078 508 1072 m 1039 779 q 934 964 1007 905 q 747 1023 861 1023 q 519 962 621 1023 q 344 814 417 902 q 232 627 271 725 q 193 451 193 528 q 208 333 193 394 q 218 301 211 320 q 234 264 225 281 q 249 234 242 247 q 260 219 257 221 q 268 245 265 219 q 298 382 276 312 q 352 520 320 453 q 422 645 384 587 q 502 748 461 704 q 583 819 542 792 q 662 845 624 845 q 707 833 683 845 q 730 809 730 822 q 720 793 729 806 q 696 766 711 781 q 596 632 641 708 q 518 474 551 556 q 466 312 485 392 q 441 165 446 232 l 438 119 l 466 119 q 526 128 493 119 q 592 154 559 137 q 657 199 621 168 q 724 268 693 230 q 775 346 755 306 q 796 420 796 387 q 797 478 796 462 q 809 493 799 493 q 839 484 825 493 q 863 462 853 475 q 877 431 873 448 q 882 402 882 415 q 848 284 882 342 q 759 181 814 227 q 636 105 704 134 q 498 70 567 75 l 443 67 l 446 49 q 473 -39 454 -5 q 517 -93 492 -74 q 574 -120 542 -113 q 636 -127 605 -127 q 694 -117 662 -127 q 759 -89 727 -106 q 819 -49 791 -72 q 863 -3 846 -26 q 897 47 877 18 q 937 113 917 77 q 977 188 958 149 q 1010 270 997 227 q 1064 588 1064 433 q 1039 779 1064 688 z "},"P":{"ha":1284,"x_min":26,"x_max":1229,"o":"m 39 770 q 141 885 69 830 q 310 980 214 940 q 515 1046 407 1021 q 721 1070 623 1070 q 925 1038 832 1070 q 1086 950 1018 1007 q 1191 814 1154 894 q 1229 639 1229 734 q 1198 475 1229 564 q 1109 311 1167 387 q 971 185 1052 235 q 789 134 891 134 q 743 139 768 136 q 694 145 717 142 q 653 151 670 149 q 629 154 636 154 q 623 127 627 154 q 613 65 618 101 q 605 -7 608 29 q 601 -65 601 -44 q 612 -136 601 -114 q 623 -173 623 -157 q 606 -192 623 -185 q 547 -199 590 -199 q 447 -149 482 -199 q 412 10 412 -98 q 429 234 412 113 q 475 478 446 356 q 540 713 503 600 q 616 913 577 827 q 625 936 621 926 q 629 949 629 946 q 585 942 624 951 q 485 913 546 933 q 235 779 325 861 q 137 598 145 698 l 134 560 l 154 538 q 167 523 162 529 q 173 515 173 516 q 167 507 173 511 q 152 503 160 503 q 110 518 132 503 q 69 557 88 533 q 38 615 51 582 q 26 686 26 649 q 26 715 26 704 q 28 734 26 725 q 32 751 29 743 q 39 770 34 758 m 636 221 l 663 221 q 694 224 673 221 q 734 232 716 227 q 898 315 827 257 q 1018 444 969 373 q 1092 593 1067 516 q 1118 734 1118 670 q 1098 842 1118 794 q 1055 891 1085 868 q 980 931 1025 913 q 882 957 936 948 q 768 966 827 966 q 703 959 703 966 q 713 951 703 956 q 738 937 724 946 q 762 913 752 928 q 773 874 773 899 q 771 842 773 859 q 764 797 770 824 q 748 728 758 770 q 722 623 739 686 q 700 531 712 585 q 676 422 688 477 q 654 315 663 366 q 639 235 644 265 l 636 221 z "},"Q":{"ha":1227,"x_min":44,"x_max":1333,"o":"m 103 696 q 205 846 142 778 q 344 962 268 913 q 503 1039 420 1011 q 663 1067 587 1067 q 885 1030 789 1067 q 1045 926 980 993 q 1142 767 1109 859 q 1175 565 1175 675 q 1146 342 1175 451 q 1067 138 1118 232 q 945 -31 1016 44 q 789 -152 874 -106 q 766 -167 776 -160 q 758 -173 757 -173 q 806 -180 763 -176 q 902 -183 850 -183 q 1007 -181 954 -183 q 1090 -173 1059 -180 q 1175 -148 1134 -165 q 1248 -113 1216 -131 q 1299 -81 1279 -95 q 1320 -67 1319 -67 q 1328 -74 1324 -67 q 1333 -93 1333 -80 q 1301 -191 1333 -150 q 1216 -257 1268 -232 q 1095 -295 1163 -283 q 956 -307 1026 -307 q 842 -295 912 -307 q 697 -268 771 -283 q 556 -241 623 -253 q 449 -229 489 -229 q 364 -232 395 -229 q 319 -235 332 -235 q 301 -233 304 -235 q 297 -225 297 -230 q 322 -202 297 -212 q 377 -183 346 -191 q 431 -170 407 -175 q 456 -162 456 -165 l 454 -162 q 409 -142 436 -162 q 355 -90 382 -123 q 305 -13 327 -57 q 276 78 283 31 q 269 96 273 92 q 252 109 265 101 q 96 257 149 162 q 44 464 44 351 q 103 696 44 578 m 430 877 q 261 670 320 784 q 201 433 201 556 q 205 368 201 402 q 218 304 209 335 q 239 248 227 273 q 266 208 252 222 q 275 234 273 208 q 331 441 288 335 q 431 635 374 547 q 550 778 487 722 q 665 833 613 833 q 712 822 691 833 q 734 799 734 810 q 703 755 734 786 q 603 620 649 698 q 525 460 557 542 q 472 297 492 377 q 448 154 453 217 l 444 108 l 474 108 q 556 123 513 108 q 641 169 600 139 q 720 243 683 199 q 784 343 757 286 q 798 386 794 363 q 804 431 802 410 q 808 467 806 453 q 817 480 810 480 q 846 471 833 480 q 869 449 859 462 q 884 419 879 435 q 889 391 889 404 q 863 288 889 345 q 787 182 837 232 q 666 97 737 132 q 505 59 595 62 l 449 56 l 454 34 q 470 -29 458 3 q 502 -87 482 -60 q 551 -129 523 -113 q 616 -145 580 -145 q 720 -115 654 -145 q 850 -33 786 -85 q 941 80 900 8 q 1011 238 982 152 q 1055 413 1039 324 q 1070 578 1070 502 q 1052 750 1070 672 q 998 886 1034 828 q 904 976 961 944 q 768 1008 846 1008 q 675 1002 717 1008 q 592 980 632 995 q 513 940 552 966 q 430 877 474 915 z "},"R":{"ha":1265,"x_min":29,"x_max":1294,"o":"m 1286 -47 q 1294 -62 1294 -52 q 1274 -108 1294 -83 q 1223 -153 1253 -132 q 1159 -186 1193 -173 q 1101 -199 1126 -199 q 1031 -190 1078 -199 q 922 -144 984 -181 q 790 -31 859 -106 q 655 175 721 44 l 641 199 l 637 186 q 629 138 634 172 q 619 65 624 105 q 611 -10 614 26 q 608 -62 608 -46 q 620 -137 608 -116 q 632 -167 632 -158 q 611 -187 632 -180 q 567 -194 590 -194 q 450 -139 480 -194 q 420 13 420 -83 q 426 137 420 67 q 446 287 433 208 q 477 451 459 366 q 518 618 495 536 q 567 778 541 701 q 623 918 593 855 q 636 953 636 941 q 632 954 636 954 q 581 944 621 954 q 492 918 541 935 q 243 783 333 866 q 144 603 152 701 l 141 564 l 162 542 q 176 520 176 526 q 160 507 176 507 q 106 529 131 507 q 65 581 82 551 q 38 643 47 611 q 29 693 29 675 q 60 793 29 745 q 141 884 90 842 q 260 962 191 926 q 406 1021 328 997 q 565 1060 484 1046 q 725 1074 647 1074 q 925 1045 832 1074 q 1087 961 1018 1016 q 1197 824 1157 905 q 1237 637 1237 742 q 1219 536 1237 595 q 1162 420 1201 477 q 1062 314 1123 363 q 917 242 1002 265 q 858 230 887 234 q 806 224 828 225 q 768 221 783 222 q 753 219 753 221 q 841 113 786 165 q 957 18 895 60 q 1078 -51 1018 -25 q 1185 -77 1139 -77 q 1207 -72 1193 -77 q 1235 -61 1221 -67 q 1262 -51 1250 -56 q 1279 -46 1275 -46 q 1283 -47 1283 -46 q 1286 -47 1284 -47 m 660 299 q 673 296 660 296 q 857 339 775 296 q 998 447 940 382 q 1090 587 1057 511 q 1123 727 1123 662 q 1105 833 1123 788 q 1045 909 1087 879 q 934 954 1003 940 q 761 969 864 969 q 741 969 750 969 q 724 967 732 969 l 703 964 l 730 951 q 770 923 761 936 q 779 879 779 910 q 778 846 779 864 q 770 801 776 828 q 755 732 765 773 q 730 627 745 691 q 703 512 716 569 q 681 410 690 456 q 666 335 672 364 q 660 299 660 306 z "},"S":{"ha":874,"x_min":34,"x_max":835,"o":"m 190 766 q 289 886 232 828 q 410 987 346 943 q 538 1058 474 1031 q 662 1085 603 1085 q 731 1073 699 1085 q 786 1041 763 1060 q 822 998 809 1021 q 835 951 835 974 q 829 911 835 941 q 815 840 824 881 q 796 752 806 799 q 777 663 786 706 q 762 584 768 619 q 757 533 757 549 q 773 468 757 497 q 789 428 789 440 q 763 415 789 415 q 708 427 735 415 q 657 463 680 440 q 620 523 634 487 q 606 606 606 559 q 619 714 606 652 q 641 778 624 739 q 673 856 657 817 q 703 927 690 895 q 716 969 716 959 q 708 992 716 992 q 670 977 699 992 q 554 892 619 953 q 430 750 489 832 q 331 572 371 668 q 291 381 291 475 q 292 328 291 348 q 306 295 292 309 q 351 269 320 281 q 441 242 382 257 q 667 150 595 201 q 740 49 740 98 q 704 -23 740 13 q 612 -87 668 -59 q 487 -134 556 -116 q 351 -152 418 -152 q 237 -136 294 -152 q 135 -96 180 -121 q 62 -39 90 -70 q 34 23 34 -8 q 42 51 34 41 q 59 60 51 60 q 103 33 72 60 q 178 -12 137 0 q 288 -25 219 -25 q 394 -13 345 -25 q 480 16 443 -2 q 537 56 516 34 q 557 96 557 77 q 522 144 557 123 q 425 176 487 165 q 181 281 271 204 q 92 482 92 358 q 114 624 92 559 q 190 766 137 690 z "},"T":{"ha":779,"x_min":28,"x_max":1386,"o":"m 28 775 q 62 895 28 842 q 158 988 96 949 q 310 1047 221 1026 q 510 1069 399 1069 q 585 1068 556 1069 q 650 1064 614 1067 q 743 1053 686 1060 q 904 1031 801 1046 q 984 1022 943 1025 q 1067 1020 1026 1020 q 1124 1021 1096 1020 q 1175 1026 1152 1023 q 1244 1043 1211 1033 q 1305 1065 1278 1054 q 1350 1085 1332 1077 q 1376 1093 1369 1093 q 1386 1077 1386 1093 q 1359 1002 1386 1038 q 1289 942 1333 967 q 1187 902 1245 917 q 1067 887 1129 887 q 1011 890 1052 887 q 923 897 971 892 q 832 908 876 902 q 765 918 788 913 l 753 922 l 753 866 q 748 774 753 825 q 731 656 742 722 q 703 507 721 590 q 660 320 685 423 q 630 195 642 248 q 610 101 618 142 q 599 29 603 60 q 595 -34 595 -3 q 600 -72 595 -52 q 614 -110 606 -92 q 627 -144 621 -129 q 634 -168 634 -158 q 621 -185 634 -183 q 587 -188 608 -188 q 514 -182 546 -188 q 460 -157 482 -176 q 426 -101 438 -137 q 413 -7 413 -65 q 418 85 413 39 q 439 205 423 131 q 484 396 454 279 q 560 701 513 513 q 598 857 585 799 q 611 931 611 915 q 606 938 611 936 q 583 940 601 940 q 389 926 475 940 q 241 883 302 912 q 147 810 180 855 q 114 701 114 765 q 116 660 114 673 q 126 631 118 647 q 141 609 129 623 q 167 583 154 596 q 192 557 181 569 q 203 544 203 546 q 190 536 203 536 q 158 547 176 536 q 121 576 141 559 q 84 614 101 593 q 57 655 67 636 q 36 717 44 683 q 28 775 28 750 z "},"U":{"ha":1221,"x_min":28,"x_max":1216,"o":"m 1208 1034 q 1216 977 1216 1021 q 1213 922 1216 953 q 1204 861 1211 892 q 1158 663 1186 766 q 1105 450 1131 559 q 1061 230 1080 342 q 1042 5 1042 118 q 1043 -37 1042 -20 q 1047 -69 1044 -54 q 1058 -101 1051 -85 q 1078 -139 1065 -118 l 1087 -154 l 1075 -163 q 1034 -173 1065 -173 q 891 -105 941 -173 q 842 85 842 -36 q 845 150 842 116 q 852 214 848 185 q 859 263 856 243 q 863 284 863 283 q 854 267 861 286 q 835 222 846 248 q 755 48 791 121 q 683 -72 719 -25 q 607 -142 647 -119 q 515 -165 567 -165 q 388 -114 441 -165 q 335 41 335 -64 q 364 257 335 119 q 409 434 382 342 q 462 614 436 526 q 507 780 489 703 q 525 913 525 858 q 514 990 525 971 q 484 1010 503 1010 q 363 973 425 1010 q 249 879 301 936 q 164 751 198 822 q 127 609 131 680 q 136 546 127 567 q 168 503 145 525 q 190 477 190 484 q 168 469 190 469 q 115 488 141 469 q 70 537 90 507 q 39 605 51 567 q 28 685 28 644 q 68 831 28 761 q 169 953 108 900 q 305 1038 230 1007 q 446 1069 379 1069 q 486 1062 472 1065 q 525 1047 500 1059 q 580 1014 557 1031 q 618 970 603 997 q 639 902 632 943 q 645 799 645 861 q 637 651 645 725 q 608 485 629 577 q 545 176 565 297 q 525 -20 525 54 q 564 -75 525 -75 q 626 -38 593 -75 q 695 69 658 0 q 776 238 732 139 q 873 459 820 337 q 980 743 943 624 q 1038 936 1018 861 q 1074 1047 1059 1011 q 1116 1082 1088 1082 q 1166 1069 1139 1082 q 1208 1034 1193 1056 z "},"V":{"ha":1078,"x_min":44,"x_max":1626,"o":"m 484 1070 q 661 966 596 1070 q 725 670 725 861 q 719 502 725 588 q 704 327 712 415 q 690 151 696 239 q 683 -16 683 64 q 686 -59 683 -59 q 697 -39 688 -62 q 717 16 706 -16 q 811 268 766 157 q 904 475 856 379 q 1004 658 953 570 q 1116 843 1056 747 q 1485 1129 1296 1129 q 1537 1123 1511 1129 q 1582 1106 1562 1116 q 1614 1083 1601 1096 q 1626 1059 1626 1070 q 1619 1051 1626 1051 q 1582 1060 1608 1051 q 1534 1069 1556 1069 q 1434 1039 1487 1069 q 1325 956 1381 1010 q 1193 793 1266 899 q 1043 558 1119 688 q 896 284 967 428 q 771 5 825 141 q 738 -96 747 -56 q 721 -163 729 -137 q 701 -199 714 -188 q 657 -211 688 -211 q 530 -160 577 -211 q 484 11 484 -109 q 491 199 484 114 q 508 346 498 284 q 526 446 518 408 q 536 493 534 484 q 559 695 551 598 q 567 858 567 792 q 551 972 567 925 q 507 1020 534 1020 q 393 980 454 1020 q 280 881 332 941 q 194 745 229 820 q 160 600 160 670 q 167 563 160 580 q 181 533 173 546 q 194 512 188 521 q 201 498 201 503 q 183 489 201 489 q 130 502 155 489 q 86 538 105 516 q 56 586 67 559 q 44 641 44 613 q 79 779 44 708 q 173 913 114 851 q 309 1019 232 975 q 469 1070 386 1062 l 484 1070 z "},"W":{"ha":1654,"x_min":56,"x_max":1639,"o":"m 794 98 q 729 -63 757 -2 q 676 -157 701 -124 q 624 -201 652 -190 q 559 -212 596 -212 q 446 -164 487 -212 q 405 -11 405 -116 q 408 79 405 38 q 422 171 412 121 q 451 286 433 221 q 498 448 469 351 q 542 596 525 533 q 569 709 559 660 q 585 797 580 758 q 590 871 590 835 q 586 953 590 922 q 574 1000 582 984 q 553 1021 565 1016 q 526 1026 541 1026 q 405 977 467 1026 q 292 856 343 928 q 208 703 240 784 q 175 554 175 621 q 182 506 175 523 q 199 479 190 489 q 215 465 208 469 q 222 454 222 461 q 190 440 222 440 q 141 452 165 440 q 99 487 118 464 q 68 541 80 510 q 56 609 56 572 q 102 774 56 690 q 217 926 149 858 q 361 1039 284 995 q 497 1083 438 1083 q 533 1080 515 1083 q 569 1072 551 1077 q 645 1037 613 1059 q 699 980 678 1015 q 729 897 719 946 q 739 781 739 848 q 737 707 739 743 q 730 644 735 670 q 706 529 721 595 q 674 390 691 462 q 639 243 657 317 q 606 105 621 170 q 583 -10 592 41 q 574 -85 574 -60 q 590 -126 574 -126 q 616 -109 600 -126 q 655 -54 632 -93 q 708 48 678 -15 q 776 204 739 111 q 873 452 835 348 q 933 627 910 556 q 970 742 956 698 q 995 810 984 786 q 1020 841 1007 833 q 1056 848 1033 848 q 1111 833 1088 848 q 1134 796 1134 819 q 1126 721 1134 773 q 1101 577 1118 670 q 1078 444 1088 505 q 1063 319 1069 382 q 1054 185 1057 257 q 1051 26 1051 114 q 1074 -105 1051 -64 q 1124 -145 1098 -145 q 1180 -117 1147 -145 q 1248 -40 1212 -88 q 1315 69 1283 8 q 1373 193 1348 129 q 1429 365 1404 271 q 1471 550 1454 459 q 1498 721 1489 641 q 1507 853 1507 801 q 1502 922 1507 889 q 1491 981 1497 956 q 1480 1024 1485 1007 q 1475 1046 1475 1041 q 1505 1059 1475 1059 q 1554 1051 1529 1059 q 1597 1032 1580 1041 q 1623 1008 1614 1023 q 1636 972 1632 993 q 1639 918 1639 951 q 1621 704 1639 815 q 1572 484 1603 593 q 1499 270 1541 374 q 1412 78 1458 167 q 1316 -79 1366 -11 q 1221 -186 1266 -147 q 1125 -232 1168 -224 q 1062 -240 1082 -240 q 977 -211 1015 -240 q 913 -129 940 -181 q 873 -3 887 -77 q 859 157 859 70 q 860 219 859 190 q 861 257 861 248 q 859 268 861 268 q 794 98 858 268 z "},"X":{"ha":1126,"x_min":77,"x_max":1297,"o":"m 1046 740 q 1116 831 1085 786 q 1170 917 1147 876 q 1205 995 1193 959 q 1217 1059 1217 1031 l 1217 1072 q 1234 1093 1217 1093 q 1253 1080 1242 1093 q 1275 1047 1265 1067 q 1291 1004 1284 1028 q 1297 959 1297 980 q 1286 865 1297 912 q 1234 763 1275 819 q 1118 638 1194 708 q 910 477 1041 569 q 874 443 874 451 q 883 400 876 444 q 902 296 891 356 q 950 73 928 157 q 996 -59 972 -11 q 1048 -127 1020 -106 q 1116 -158 1077 -147 q 1133 -167 1129 -162 q 1137 -181 1137 -172 q 1128 -193 1137 -185 q 1102 -209 1119 -201 q 1061 -223 1085 -217 q 1008 -229 1038 -229 q 885 -174 936 -230 q 794 -15 833 -118 q 779 34 788 3 q 761 102 770 65 q 743 176 752 139 q 726 246 734 214 q 715 300 719 278 q 711 325 711 322 q 694 314 709 327 q 656 281 678 301 q 610 239 634 261 q 569 196 587 216 q 400 -20 461 78 q 338 -185 338 -118 q 340 -214 338 -198 q 342 -239 342 -230 q 336 -257 342 -253 q 315 -260 330 -260 q 288 -249 304 -260 q 256 -220 271 -239 q 229 -175 240 -201 q 217 -118 217 -149 q 261 16 217 -56 q 382 163 304 87 q 421 201 402 183 q 467 240 440 219 q 533 290 493 261 q 632 363 572 319 q 694 415 694 407 q 690 450 694 418 q 678 521 685 482 q 644 724 662 631 q 605 884 626 817 q 556 989 583 951 q 493 1026 529 1026 q 418 990 471 1026 q 333 917 371 959 q 267 827 294 874 q 225 729 240 779 q 209 629 209 678 q 265 520 209 542 q 281 505 281 513 q 277 494 281 497 q 258 490 273 492 q 127 532 178 490 q 77 645 77 574 q 94 728 77 681 q 142 823 111 775 q 215 917 173 871 q 304 998 257 962 q 403 1056 351 1034 q 507 1078 454 1078 q 623 1051 570 1078 q 717 962 675 1023 q 792 807 760 902 q 848 580 825 712 q 854 556 851 565 q 859 546 856 546 q 885 567 863 546 q 936 619 907 588 q 996 683 966 650 q 1046 740 1026 716 z "},"Y":{"ha":1078,"x_min":44,"x_max":1096,"o":"m 629 969 q 637 902 637 940 q 590 641 637 812 q 533 425 551 503 q 516 309 516 346 q 532 263 516 271 q 556 255 547 255 q 585 273 567 255 q 660 379 624 312 q 725 514 696 446 q 775 637 755 582 q 801 709 794 693 q 863 869 838 802 q 908 980 887 936 q 949 1046 928 1025 q 1000 1067 971 1067 q 1048 1057 1023 1067 q 1087 1029 1074 1047 l 1096 1018 l 1075 953 q 1042 843 1057 900 q 1011 705 1028 786 q 973 509 993 624 q 925 225 953 394 q 883 36 905 113 q 833 -92 861 -41 q 766 -171 804 -142 q 680 -219 729 -199 q 658 -226 668 -224 q 634 -230 649 -229 q 596 -231 619 -230 q 536 -232 574 -232 q 409 -185 458 -232 q 361 -65 361 -137 q 383 7 361 -25 q 428 38 405 38 q 443 29 443 38 q 437 11 443 23 q 431 -20 431 0 q 444 -86 431 -57 q 473 -135 456 -114 q 509 -166 490 -155 q 542 -176 528 -176 q 593 -152 569 -176 q 640 -87 618 -127 q 681 8 662 -46 q 712 119 699 62 q 722 169 716 132 q 737 253 729 206 q 753 352 745 301 q 769 448 761 404 q 780 520 776 492 q 784 552 784 549 q 770 517 786 552 q 733 435 755 482 q 689 343 711 389 q 655 276 667 297 q 589 195 626 224 q 515 167 552 167 q 409 227 441 167 q 377 382 377 288 q 380 454 377 423 q 391 523 382 485 q 417 615 399 560 q 464 758 435 670 q 493 848 482 810 q 512 913 505 886 q 522 958 520 940 q 525 990 525 977 q 519 1023 525 1015 q 495 1031 513 1031 q 417 1007 461 1031 q 329 945 373 984 q 248 859 286 907 q 190 766 211 812 q 152 614 152 681 q 158 565 152 587 q 171 527 163 542 q 184 502 178 511 q 190 493 190 493 q 182 483 190 487 q 165 479 175 479 q 117 495 139 479 q 78 537 95 511 q 53 593 62 562 q 44 654 44 624 q 62 752 44 701 q 118 853 80 802 q 184 926 142 887 q 275 999 225 966 q 376 1055 324 1033 q 475 1077 428 1077 q 525 1069 500 1077 q 570 1046 549 1060 q 607 1011 592 1031 q 629 969 623 992 z "},"Z":{"ha":1190,"x_min":41,"x_max":1320,"o":"m 502 410 q 525 417 510 415 q 588 422 539 420 l 601 422 l 634 477 q 724 612 681 551 q 807 722 766 673 q 889 811 848 771 q 974 884 930 851 q 992 899 987 894 q 998 905 997 902 q 971 908 998 908 q 934 908 956 908 q 892 907 912 907 q 810 910 858 907 q 712 917 761 913 q 614 925 662 922 q 534 928 567 928 q 389 912 435 928 q 341 881 359 900 q 311 842 322 861 q 294 807 301 822 q 283 792 288 792 q 260 809 270 792 q 250 848 250 825 q 274 947 250 904 q 337 1020 297 990 q 431 1065 377 1049 q 542 1080 484 1080 q 648 1070 580 1080 q 793 1049 716 1060 q 949 1028 871 1038 q 1083 1018 1026 1018 q 1171 1024 1136 1018 q 1245 1044 1206 1029 q 1289 1056 1273 1056 q 1311 1044 1302 1056 q 1320 1020 1320 1033 q 1292 988 1320 1007 q 1199 922 1265 969 q 1103 832 1145 879 q 1016 726 1060 784 q 919 595 971 668 q 797 425 868 521 q 846 422 832 423 q 868 418 859 422 q 879 412 877 415 q 879 395 881 408 q 820 356 866 363 q 795 354 814 355 q 748 351 776 353 q 690 255 719 304 q 629 155 662 206 q 557 53 596 105 q 464 -49 518 2 l 431 -80 l 471 -90 q 583 -114 528 -105 q 691 -121 637 -123 q 858 -100 778 -121 q 980 -44 938 -78 q 1011 -6 998 -29 q 1032 42 1023 18 q 1047 83 1041 65 q 1060 100 1054 100 q 1086 87 1074 100 q 1107 57 1098 75 q 1122 19 1116 39 q 1127 -20 1127 -2 q 1118 -77 1127 -46 q 1075 -142 1109 -108 q 945 -215 1021 -196 q 784 -230 869 -234 q 614 -207 699 -227 q 456 -162 528 -186 l 361 -129 l 324 -150 q 279 -172 304 -162 q 232 -188 255 -181 q 189 -199 209 -194 q 154 -203 168 -203 q 75 -184 109 -203 q 41 -142 41 -165 q 56 -119 41 -132 q 95 -94 70 -106 q 151 -72 119 -82 q 217 -57 183 -62 q 246 -52 235 -56 q 266 -42 257 -49 q 289 -20 276 -34 q 324 18 302 -7 q 441 174 381 87 q 556 350 502 261 l 492 348 l 484 356 q 482 385 475 368 q 502 410 489 402 m 144 -134 q 172 -118 162 -124 q 183 -108 183 -111 q 181 -106 183 -106 l 176 -106 q 98 -139 119 -123 l 83 -154 l 100 -150 q 118 -145 106 -149 q 144 -134 131 -141 z "},"a":{"ha":559,"x_min":-60,"x_max":626,"o":"m 626 513 q 615 460 626 505 q 588 359 605 415 q 554 245 572 302 q 520 154 536 188 q 448 33 479 67 q 371 0 417 0 q 279 34 315 0 q 229 126 242 69 l 222 154 l 206 108 q 181 56 193 78 q 157 20 170 34 q 127 0 144 7 q 90 -7 111 -7 q -19 51 23 -7 q -60 206 -60 108 q -40 365 -60 289 q 17 498 -20 441 q 104 590 54 556 q 212 624 154 624 q 258 612 234 624 q 301 588 283 600 l 319 577 l 338 593 q 369 609 355 609 q 400 604 384 609 q 427 589 415 598 q 448 570 440 580 q 456 551 456 560 q 450 514 456 547 q 435 438 444 480 q 412 336 420 376 q 399 269 404 296 q 392 221 394 242 q 391 178 391 201 q 395 121 391 132 q 404 109 400 109 q 463 196 418 109 q 567 451 508 283 q 582 491 577 477 q 591 511 587 505 q 599 520 595 518 q 609 521 603 521 q 626 513 624 521 m 239 338 q 262 435 253 384 q 271 520 271 487 q 260 557 271 557 q 213 517 242 557 q 158 417 185 477 q 111 285 131 356 q 92 152 92 214 q 97 113 92 121 q 111 105 103 105 q 137 128 121 105 q 172 187 154 152 q 208 263 190 222 q 239 338 225 304 z "},"b":{"ha":592,"x_min":-36,"x_max":667,"o":"m 489 276 q 447 157 472 211 q 390 65 422 103 q 319 5 358 26 q 240 -16 281 -16 q 171 0 203 -16 q 129 39 139 16 l 119 56 l 119 36 q 105 2 119 15 q 60 -11 92 -11 q -6 20 25 -11 q -36 111 -36 51 q -17 347 -36 214 q 42 662 2 480 q 79 810 62 750 q 114 904 96 869 q 148 956 131 940 q 183 975 165 972 q 238 961 212 975 q 263 923 263 946 q 248 835 263 900 q 191 560 211 675 q 163 391 172 446 l 163 389 q 203 459 167 389 q 248 542 227 510 q 288 591 270 574 q 324 614 307 608 q 356 619 340 619 q 405 604 381 619 q 450 560 430 588 q 484 495 471 533 q 502 413 498 458 l 505 371 l 528 389 q 561 423 542 400 q 597 469 580 446 q 627 510 614 492 q 644 528 641 528 q 665 511 665 528 q 640 453 667 489 q 580 380 613 417 q 519 314 547 343 q 489 276 490 284 m 304 225 q 302 235 306 235 q 296 234 297 235 q 226 194 260 222 q 185 144 193 167 q 180 120 180 126 q 186 106 180 114 q 205 96 194 95 q 237 116 216 98 q 260 140 252 127 q 281 175 268 152 q 296 207 289 193 q 304 225 302 221 m 330 306 q 341 351 335 317 q 351 423 346 386 q 359 494 356 461 q 359 539 361 528 q 346 554 355 554 q 307 533 332 556 q 261 472 283 510 q 233 414 250 453 q 200 336 216 376 q 173 263 185 296 q 162 224 162 230 q 178 229 162 216 q 199 242 185 234 q 227 257 214 250 q 261 271 242 263 q 294 283 281 279 q 330 306 325 294 z "},"c":{"ha":433,"x_min":-62,"x_max":489,"o":"m 261 431 q 255 438 257 435 q 253 449 253 441 q 257 488 253 458 q 260 536 260 518 q 247 577 260 577 q 202 537 225 577 q 158 437 178 497 q 124 309 137 377 q 111 183 111 240 q 131 111 111 131 q 170 92 150 92 q 217 108 191 92 q 271 151 243 124 q 324 214 299 178 q 369 289 350 250 q 400 363 384 322 q 430 439 417 404 q 454 498 443 474 q 471 521 466 521 q 487 493 487 521 q 463 384 489 456 q 399 232 438 312 q 275 54 338 109 q 144 -2 211 -2 q -11 65 41 -2 q -62 247 -62 132 q -38 385 -62 315 q 24 511 -15 454 q 110 602 62 567 q 208 637 158 637 q 291 600 258 637 q 324 507 324 564 q 312 440 324 458 q 288 423 301 423 q 261 431 273 423 z "},"d":{"ha":549,"x_min":-74,"x_max":616,"o":"m 547 260 q 538 238 544 255 q 525 201 533 221 q 489 118 508 157 q 449 49 469 78 q 407 2 428 20 q 366 -15 386 -15 q 337 -9 355 -15 q 304 6 320 -3 q 273 26 288 15 q 252 47 258 38 q 237 80 242 60 q 229 118 232 100 q 224 148 225 136 q 221 160 222 160 q 211 145 219 160 q 180 82 203 129 q 135 13 157 34 q 80 -8 113 -8 q -33 55 7 -8 q -74 214 -74 118 q -60 337 -74 276 q -21 449 -46 397 q 37 542 3 502 q 108 606 70 583 q 126 615 118 611 q 144 621 134 619 q 167 623 154 623 q 201 624 180 624 q 221 620 209 624 q 246 611 234 616 q 268 602 258 606 q 281 598 278 598 q 326 795 307 721 q 359 909 345 869 q 386 962 374 949 q 412 975 399 975 q 478 958 448 975 q 508 920 508 941 q 507 895 508 912 q 500 845 505 877 q 469 655 487 752 q 435 470 451 559 q 407 305 418 381 q 395 176 395 229 q 398 132 395 149 q 407 114 400 114 q 430 141 413 114 q 465 205 446 167 q 502 287 484 243 q 531 366 521 330 q 564 484 552 443 q 593 525 575 525 q 609 518 601 525 q 616 503 616 511 q 607 460 616 495 q 587 383 598 425 q 564 306 575 342 q 547 260 552 270 m 225 338 q 249 435 240 384 q 258 520 258 487 q 248 557 258 557 q 200 516 229 557 q 145 413 172 475 q 98 279 118 351 q 78 147 78 208 q 85 112 78 119 q 98 105 92 105 q 124 128 108 105 q 159 187 141 152 q 195 263 178 222 q 225 338 212 304 z "},"e":{"ha":435,"x_min":-62,"x_max":487,"o":"m 286 62 q 215 9 247 25 q 144 -7 183 -7 q 53 11 92 -7 q -11 61 15 29 q -49 137 -36 93 q -62 232 -62 181 q -42 366 -62 296 q 16 495 -21 436 q 103 593 52 554 q 212 632 154 632 q 293 592 261 632 q 325 498 325 552 q 310 411 325 451 q 271 342 296 371 q 216 295 247 312 q 150 278 185 278 l 123 276 l 118 242 q 113 212 114 224 q 113 186 111 199 q 130 110 113 134 q 170 87 147 87 q 217 103 191 87 q 271 146 243 119 q 324 209 299 173 q 369 286 350 245 q 400 357 384 317 q 431 433 417 397 q 455 493 444 469 q 472 516 466 516 q 487 489 487 516 q 468 398 487 456 q 421 276 449 340 q 356 154 392 212 q 286 62 320 95 m 147 395 q 136 343 136 356 q 141 333 136 333 q 188 355 167 333 q 225 407 209 376 q 249 472 240 438 q 258 533 258 507 q 247 572 258 572 q 197 525 224 572 q 147 395 170 479 z "},"f":{"ha":291,"x_min":-83,"x_max":350,"o":"m 337 436 q 276 302 310 363 q 193 194 242 242 l 154 157 l 176 123 q 228 9 214 65 q 243 -119 242 -47 q 239 -210 243 -158 q 218 -307 234 -261 q 175 -384 203 -353 q 101 -415 147 -415 q 70 -412 87 -415 q 44 -405 54 -408 q -22 -375 3 -391 q -60 -335 -47 -359 q -78 -272 -74 -310 q -83 -175 -83 -234 q -82 -100 -83 -134 q -76 -25 -80 -65 q -65 65 -72 15 q -46 186 -57 114 q 32 592 -2 436 q 91 834 65 748 q 134 950 116 920 q 167 980 152 980 q 212 971 186 980 q 248 951 237 962 l 263 936 l 260 895 q 245 797 257 864 q 211 627 234 730 q 186 508 199 575 q 161 380 173 441 q 141 273 149 319 q 132 221 132 227 q 136 212 132 212 q 172 239 149 212 q 219 304 194 265 q 266 388 243 343 q 297 471 288 433 q 311 509 306 498 q 325 520 317 520 q 341 513 332 520 q 350 493 350 507 q 337 436 350 474 m 155 64 q 136 96 149 78 q 118 114 123 114 q 113 95 116 114 q 105 47 109 75 q 96 -16 101 18 q 90 -77 92 -49 q 85 -136 87 -98 q 83 -206 83 -173 q 83 -250 83 -234 q 84 -277 83 -266 q 87 -294 85 -288 q 93 -309 90 -301 q 109 -329 101 -327 q 131 -320 116 -332 q 165 -259 152 -306 q 182 -154 178 -212 q 180 -35 186 -95 q 155 64 173 25 z "},"g":{"ha":559,"x_min":-62,"x_max":613,"o":"m 613 490 q 597 413 613 466 q 558 298 582 361 q 506 173 534 235 q 453 67 477 111 q 384 -41 415 10 q 350 -114 353 -92 q 312 -280 333 -214 q 260 -386 291 -346 q 185 -444 229 -426 q 83 -461 142 -461 q 17 -440 36 -461 q -2 -392 -2 -420 q 28 -286 -2 -337 q 136 -165 57 -235 l 181 -124 l 186 -93 q 194 -37 188 -77 q 207 45 201 3 q 217 118 212 87 q 222 150 222 150 q 161 28 188 62 q 90 -7 134 -7 q -22 55 18 -7 q -62 209 -62 116 q -27 413 -62 324 q 70 564 8 502 q 104 595 88 583 q 135 613 119 606 q 168 622 150 619 q 211 624 186 624 q 257 612 230 624 q 299 590 283 600 l 317 578 l 333 590 q 371 601 351 601 q 431 587 404 601 q 458 557 458 574 q 450 505 456 554 q 433 389 444 456 q 393 145 407 232 q 381 54 379 57 q 401 74 387 52 q 433 131 415 95 q 471 212 451 167 q 511 307 492 258 q 547 404 531 356 q 572 490 562 451 q 590 520 578 520 q 613 490 613 520 m 154 -273 q 159 -243 157 -255 q 162 -227 162 -232 q 160 -222 162 -222 q 144 -237 155 -222 q 93 -306 114 -270 q 72 -358 72 -342 q 83 -373 72 -373 q 121 -349 101 -373 q 154 -273 141 -325 m 227 307 q 244 361 237 332 q 257 420 252 391 q 266 475 263 449 q 270 521 270 502 q 266 548 270 539 q 260 557 263 557 q 213 517 242 557 q 158 417 185 477 q 111 285 131 356 q 92 154 92 214 q 109 105 92 105 q 132 123 118 105 q 162 172 145 142 q 195 237 178 201 q 227 307 212 273 z "},"h":{"ha":578,"x_min":-38,"x_max":636,"o":"m 258 165 q 270 279 258 217 q 309 436 281 340 q 330 511 322 479 q 338 551 338 542 q 333 557 338 557 q 297 516 322 557 q 243 407 273 474 q 185 257 214 340 q 136 90 155 173 q 109 19 123 34 q 62 3 95 3 q 29 11 44 3 q -5 38 15 20 l -33 62 l -34 105 l -34 136 q 5 492 -38 266 q 96 871 52 752 q 185 990 139 990 q 235 976 208 990 q 263 941 263 962 q 248 850 263 920 q 212 681 229 765 q 184 527 196 596 q 165 410 172 458 q 158 351 158 363 l 158 350 q 164 359 160 348 q 173 384 168 369 q 216 484 193 438 q 262 562 239 529 q 309 614 286 595 q 351 632 332 632 q 399 623 376 632 q 438 596 422 613 q 464 557 454 578 q 474 511 474 536 q 459 395 474 461 q 425 238 435 291 q 415 160 415 185 q 430 119 415 119 q 458 149 441 119 q 496 223 475 178 q 536 320 516 268 q 573 417 556 373 q 601 492 590 462 q 616 521 613 521 q 636 503 636 521 q 632 477 636 498 q 621 433 629 456 q 578 302 601 377 q 524 159 554 227 q 456 44 493 92 q 373 -3 418 -3 q 321 11 343 -3 q 285 47 299 25 q 265 100 271 70 q 258 165 258 131 z "},"i":{"ha":289,"x_min":-36,"x_max":340,"o":"m 335 520 q 340 503 340 515 q 332 464 340 502 q 308 372 324 426 q 272 254 292 317 q 230 139 252 191 q 163 20 193 54 q 100 -13 132 -13 q -4 36 28 -13 q -36 186 -36 85 q -26 330 -36 255 q -1 468 -16 405 q 36 573 15 531 q 82 614 57 614 q 113 609 96 614 q 144 596 129 605 q 167 575 158 587 q 176 549 176 564 q 169 477 176 529 q 145 319 162 425 q 133 233 137 275 q 129 176 129 191 q 133 129 129 149 q 142 109 137 109 q 171 136 154 109 q 208 212 188 163 q 252 327 229 260 q 301 475 276 394 q 327 525 315 525 q 335 520 330 525 m 106 877 q 132 882 116 882 q 199 862 170 879 q 229 807 229 845 q 225 775 229 791 q 214 737 221 758 q 203 707 208 717 q 194 691 199 696 q 182 685 190 686 q 162 685 175 685 q 92 703 109 685 q 74 748 74 721 q 76 786 74 765 q 83 826 78 807 q 94 859 88 845 q 106 877 100 874 z "},"j":{"ha":278,"x_min":-284,"x_max":332,"o":"m 175 557 q 167 505 173 554 q 149 389 160 456 q 109 145 123 232 q 96 54 95 57 q 105 65 98 52 q 124 96 113 77 q 148 137 136 114 q 170 178 160 160 q 210 270 186 212 q 255 382 234 327 q 292 479 276 438 q 310 520 307 520 q 332 503 332 520 q 315 419 332 475 q 275 298 299 363 q 221 171 250 234 q 167 67 191 108 q 138 21 155 49 q 108 -28 121 -7 q 89 -57 96 -46 q 78 -78 82 -69 q 71 -95 74 -87 q 67 -114 69 -103 q 28 -280 49 -214 q -25 -386 7 -346 q -98 -444 -56 -426 q -199 -461 -141 -461 q -266 -442 -247 -461 q -284 -395 -284 -423 q -280 -344 -284 -368 q -262 -296 -276 -320 q -223 -242 -248 -271 q -155 -173 -198 -212 l -101 -123 l -82 7 q -37 275 -54 175 q -9 431 -20 374 q 10 514 2 487 q 28 564 18 541 q 75 611 49 611 q 108 605 90 611 q 141 590 126 598 q 165 572 155 582 q 175 557 175 562 m -147 -328 q -140 -306 -144 -322 q -132 -274 -136 -291 q -124 -241 -127 -257 q -121 -221 -121 -225 l -121 -217 q -140 -236 -124 -217 q -172 -279 -155 -255 q -201 -324 -188 -302 q -214 -351 -214 -346 q -203 -373 -214 -373 q -174 -359 -194 -373 q -147 -328 -154 -346 m 118 887 q 188 870 155 887 q 221 814 221 853 q 218 780 221 799 q 208 742 216 761 q 195 712 199 722 q 185 696 191 701 q 172 690 180 691 q 150 690 163 690 q 85 706 103 690 q 67 750 67 722 q 84 858 67 828 q 118 887 101 887 z "},"k":{"ha":511,"x_min":-41,"x_max":564,"o":"m 243 835 q 175 520 196 641 q 154 343 154 400 l 154 340 q 185 366 163 340 q 232 430 208 392 q 276 510 257 467 q 301 585 296 552 q 308 618 304 611 q 328 624 312 624 q 387 595 366 624 q 408 533 408 565 q 390 466 408 500 q 328 389 371 431 l 281 343 l 289 306 q 333 167 307 222 q 376 111 358 111 q 389 121 381 111 q 407 147 397 131 q 426 182 417 163 q 443 219 436 201 q 504 401 487 338 q 527 491 521 464 q 534 521 533 518 q 551 525 536 525 q 564 503 564 525 q 554 441 564 482 q 500 247 526 330 q 446 107 474 163 q 386 22 418 51 q 312 -7 353 -7 q 220 51 255 -7 q 170 203 185 108 q 159 249 165 235 q 150 263 154 263 q 141 236 147 263 q 129 172 136 209 q 118 96 123 134 q 114 34 114 57 q 100 2 114 15 q 59 -11 85 -11 q -41 119 -41 -11 q -23 336 -41 199 q 38 662 -5 472 q 75 812 57 752 q 110 909 93 873 q 145 961 127 946 q 181 975 162 975 q 236 959 214 975 q 258 923 258 943 q 243 835 258 900 z "},"l":{"ha":294,"x_min":-33,"x_max":359,"o":"m 224 721 q 192 562 208 642 q 165 409 176 482 q 147 275 154 337 q 141 173 141 214 q 143 130 141 145 q 150 114 145 114 q 174 141 157 114 q 210 204 191 167 q 247 286 229 242 q 275 366 265 330 q 307 484 296 443 q 337 525 319 525 q 359 503 359 525 q 351 462 359 495 q 332 391 343 430 q 310 315 320 351 q 294 265 299 279 q 254 167 276 217 q 209 77 232 118 q 161 11 186 36 q 109 -15 136 -15 q 85 -10 96 -15 q 26 16 49 0 q -10 56 3 33 q -28 112 -23 80 q -33 188 -33 144 q -20 346 -33 253 q 11 529 -7 438 q 48 699 29 621 q 80 819 67 778 q 101 895 93 864 q 117 943 109 925 q 132 967 124 961 q 155 974 141 974 q 187 971 170 974 q 219 960 204 967 q 243 943 234 953 q 253 920 253 933 q 250 890 253 915 q 242 832 247 864 q 232 768 237 799 q 224 721 227 737 z "},"m":{"ha":850,"x_min":-52,"x_max":913,"o":"m 337 7 q 302 16 320 7 q 270 38 284 25 q 246 68 255 51 q 237 101 237 85 q 252 207 237 136 q 294 361 266 278 q 307 406 301 379 q 320 459 314 433 q 331 507 327 485 q 335 536 335 528 q 332 539 335 539 q 306 514 324 539 q 266 452 288 489 q 222 373 243 415 q 190 297 201 332 q 146 146 157 206 q 131 52 136 87 q 118 5 126 18 q 78 -8 109 -8 q 34 -5 57 -8 q -8 8 11 -2 q -40 38 -28 18 q -52 92 -52 57 q -44 209 -52 141 q -24 346 -36 278 q 3 472 -11 413 q 33 562 18 531 q 60 605 47 595 q 95 614 72 614 q 166 594 134 614 q 198 538 198 574 q 195 506 198 525 q 189 468 193 487 q 182 436 185 449 q 180 422 180 423 l 180 420 q 190 435 181 420 q 230 507 208 474 q 275 565 252 541 q 319 604 297 590 q 359 618 342 618 q 396 609 376 618 q 435 585 417 600 q 469 553 454 570 q 489 520 484 536 l 493 500 l 521 538 q 574 591 546 570 q 618 611 603 611 q 658 600 636 611 q 699 574 680 590 q 730 541 717 559 q 743 508 743 523 q 740 489 742 500 q 735 458 739 479 q 721 400 732 438 q 699 319 711 363 q 676 229 686 275 q 663 149 667 183 q 662 131 662 137 q 662 119 662 124 q 672 105 662 105 q 711 143 686 105 q 766 245 735 181 q 786 288 778 268 q 804 332 794 307 q 827 389 814 356 q 859 471 840 422 q 877 516 873 507 q 895 525 882 525 q 913 510 913 525 q 908 487 913 502 q 895 449 904 472 q 835 279 863 363 q 776 132 807 196 q 707 28 745 67 q 614 -11 668 -11 q 528 28 562 -11 q 493 137 493 67 q 511 252 493 180 q 572 454 529 324 q 584 493 580 479 q 588 516 588 508 q 583 523 588 523 q 546 489 569 523 q 498 403 523 454 q 452 290 474 351 q 417 175 430 229 q 392 80 402 114 q 375 29 382 46 q 359 10 368 13 q 337 7 351 7 z "},"n":{"ha":577,"x_min":-57,"x_max":637,"o":"m 229 222 q 240 275 230 237 q 262 355 250 312 q 286 440 275 399 q 306 500 297 480 q 314 534 314 528 q 310 541 314 541 q 284 520 302 541 q 243 462 266 498 q 197 378 221 426 q 153 279 173 330 q 118 174 132 227 q 101 74 103 121 q 97 31 100 47 q 88 5 95 15 q 70 -8 82 -5 q 39 -11 59 -11 q 2 -7 20 -11 q -29 11 -16 -2 q -50 47 -42 25 q -57 106 -57 70 q -51 201 -57 149 q -36 307 -46 253 q -14 413 -26 361 q 11 507 -2 466 q 37 574 25 547 q 59 606 49 601 q 83 611 69 611 q 149 592 116 611 q 181 542 181 574 q 179 511 181 528 q 174 480 176 495 q 169 455 172 466 q 167 443 167 444 q 168 440 167 441 q 190 472 172 440 q 272 582 232 549 q 340 614 312 614 q 422 571 392 614 q 451 472 451 528 q 440 398 451 448 q 417 295 430 348 q 395 196 405 242 q 386 132 386 150 q 397 114 386 114 q 426 136 408 114 q 467 195 444 157 q 513 287 489 234 q 562 405 538 340 q 587 470 578 446 q 601 504 596 493 q 610 517 606 515 q 619 520 614 520 q 637 507 637 520 q 611 418 637 490 q 469 95 529 198 q 358 -8 408 -8 q 309 0 333 -8 q 265 27 284 8 q 233 76 245 46 q 221 149 221 106 q 223 185 221 167 q 229 222 225 203 z "},"o":{"ha":449,"x_min":-59,"x_max":507,"o":"m 489 523 q 501 517 495 523 q 507 502 507 511 q 502 475 507 490 q 489 444 497 459 q 475 417 482 430 q 466 400 469 405 q 426 360 448 377 q 387 330 405 343 q 356 308 369 317 q 342 292 343 299 q 339 280 342 294 q 330 243 337 266 q 315 190 324 221 q 291 129 306 160 q 214 24 258 59 q 132 -11 170 -11 q 55 7 90 -11 q -6 60 20 26 q -45 138 -31 93 q -59 237 -59 183 q -39 373 -59 307 q 14 492 -20 440 q 92 578 47 544 q 188 616 137 611 q 266 589 224 616 q 328 525 309 562 q 340 486 335 511 q 349 435 345 461 q 355 391 353 410 q 358 373 358 373 q 387 386 364 373 q 423 417 410 400 q 440 442 430 425 q 460 476 451 459 q 476 507 469 493 q 485 523 484 521 l 489 523 m 243 176 q 257 207 248 186 q 272 248 265 227 q 285 285 279 268 q 291 307 291 302 q 278 319 291 312 q 243 332 260 319 q 213 364 227 345 q 190 408 199 384 q 176 456 180 433 q 165 438 173 456 q 148 395 157 420 q 131 340 139 369 q 118 289 123 310 q 108 204 108 237 q 125 131 108 155 q 163 106 142 106 q 207 123 188 106 q 243 176 225 139 m 304 397 q 301 438 304 413 q 294 485 299 462 q 282 525 289 508 q 265 541 275 541 q 257 532 261 541 q 247 510 252 523 q 239 483 242 497 q 235 459 235 469 q 254 394 235 423 q 296 364 273 364 q 304 397 302 364 z "},"p":{"ha":557,"x_min":-127,"x_max":634,"o":"m 623 521 q 634 507 634 516 q 626 480 634 498 q 600 430 618 462 q 561 379 585 404 q 516 333 538 355 q 476 297 493 312 q 458 273 459 281 q 360 59 426 141 q 209 -23 294 -23 q 142 -7 176 -23 q 100 31 108 10 l 95 46 l 92 29 q 75 -74 83 -15 q 60 -194 67 -134 q 51 -308 54 -255 q 47 -394 47 -361 q 35 -434 47 -417 q -21 -451 23 -451 q -73 -446 -52 -451 q -105 -426 -93 -441 q -123 -382 -118 -410 q -127 -309 -127 -355 q -123 -202 -127 -263 q -109 -68 -118 -141 q -87 84 -100 5 q -57 245 -74 163 q -26 377 -46 306 q 14 511 -7 448 q 52 618 34 574 q 78 672 70 663 q 101 678 88 678 q 135 672 116 678 q 170 658 154 667 q 197 637 186 649 q 208 613 208 626 q 204 598 208 614 q 197 560 201 582 q 188 516 193 538 q 180 482 183 493 q 178 477 178 480 l 178 475 l 183 480 q 208 529 191 505 q 246 572 225 552 q 287 603 266 592 q 322 614 307 614 q 372 600 346 614 q 417 558 397 585 q 453 493 438 531 q 471 408 467 454 l 474 366 l 497 384 q 530 418 511 395 q 566 465 549 441 q 596 507 583 489 q 613 525 609 525 q 623 521 616 525 m 273 221 q 275 229 275 224 q 273 230 275 230 q 230 217 252 230 q 190 187 208 204 q 162 152 173 170 q 150 124 150 134 q 157 101 150 111 q 173 92 163 92 q 199 105 185 92 q 229 140 214 119 q 256 182 243 160 q 273 221 268 204 m 322 423 q 326 470 325 446 q 327 511 327 493 q 324 544 327 539 q 314 549 322 549 q 268 520 297 549 q 234 469 255 507 q 193 386 214 431 q 154 296 172 340 q 132 225 137 252 l 127 211 l 144 222 q 163 234 152 227 q 185 247 175 242 q 257 274 232 265 q 293 298 281 283 q 310 342 306 314 q 322 423 314 369 z "},"q":{"ha":562,"x_min":-62,"x_max":616,"o":"m 77 -3 q -29 67 5 10 q -62 239 -62 124 q -38 389 -62 319 q 25 511 -13 459 q 107 594 62 564 q 194 624 152 624 q 247 612 216 624 q 299 582 278 600 l 315 567 l 325 588 q 345 618 337 606 q 376 629 353 629 q 430 609 402 629 q 458 567 458 590 q 452 517 458 556 q 437 427 446 479 q 418 318 428 376 q 400 211 408 260 q 385 129 391 162 q 379 93 379 96 l 379 92 q 405 113 387 92 q 445 169 423 134 q 490 252 467 204 q 531 351 513 299 q 547 404 539 376 q 562 459 556 433 q 575 502 569 485 q 588 520 582 520 q 610 508 605 520 q 616 487 616 497 q 606 434 616 472 q 581 349 596 395 q 547 253 565 302 q 515 170 529 204 q 453 59 480 93 q 389 11 425 25 l 359 2 l 355 -29 q 335 -187 342 -111 q 328 -317 328 -263 q 335 -389 328 -368 q 342 -417 342 -410 q 294 -448 342 -448 q 206 -408 239 -448 q 173 -266 173 -368 q 178 -177 173 -234 q 190 -65 183 -121 q 201 37 196 -8 q 206 92 206 82 q 207 96 206 95 q 208 98 208 96 q 206 100 208 98 q 201 93 204 98 q 194 85 198 90 q 188 72 191 80 q 103 -7 141 -7 q 92 -7 98 -7 q 77 -3 85 -7 m 214 531 q 177 467 196 511 q 144 367 158 422 q 119 257 129 312 q 109 167 109 203 q 117 127 109 139 q 129 114 124 114 q 166 155 141 114 q 217 252 191 196 q 261 368 242 309 q 279 462 279 426 q 269 522 279 495 q 245 549 258 549 q 214 531 229 549 z "},"r":{"ha":361,"x_min":-42,"x_max":428,"o":"m 417 525 q 428 511 428 516 q 420 478 428 508 q 400 408 412 448 q 375 330 387 369 q 356 270 363 291 q 308 144 330 196 q 265 57 286 92 q 221 7 243 23 q 172 -8 198 -8 q 114 6 139 -8 q 71 43 88 20 q 44 96 54 67 q 34 158 34 126 q 38 226 34 188 q 47 306 41 265 q 61 386 54 346 q 78 459 69 426 l 93 511 l 57 508 l 39 508 q -42 608 -42 508 q -28 720 -42 678 q 21 761 -13 761 q 66 748 46 761 q 87 712 87 735 q 85 695 87 708 q 81 667 83 683 q 74 635 78 652 q 65 605 70 618 l 54 567 l 69 570 q 92 579 77 572 q 124 595 106 587 q 160 609 142 603 q 193 616 178 616 q 244 603 225 616 q 263 567 263 590 q 258 538 263 564 q 245 475 253 513 q 229 389 237 436 q 212 295 221 342 q 199 206 204 248 q 194 136 194 163 q 204 105 194 105 q 238 141 216 105 q 285 232 260 176 q 336 355 310 288 q 379 489 361 423 q 405 531 392 531 q 417 525 404 531 z "},"s":{"ha":289,"x_min":-100,"x_max":356,"o":"m 345 516 q 356 493 356 511 q 346 451 356 475 q 316 397 335 426 q 272 337 297 368 q 217 276 247 306 l 180 239 l 180 206 q 172 115 180 157 q 144 44 163 74 q 92 2 124 15 q 10 -5 59 -11 q -33 11 -13 -2 q -69 39 -54 23 q -92 74 -83 56 q -100 108 -100 93 q -83 159 -100 137 q -46 198 -65 181 q -9 224 -26 214 q 8 242 8 234 q 7 261 8 247 q 2 295 5 276 q -2 336 0 314 q -3 377 -3 358 q 10 480 -3 433 q 44 564 23 528 q 92 620 65 600 q 147 641 119 641 q 176 636 160 641 q 204 623 191 631 q 225 605 217 614 q 234 587 234 596 q 222 573 234 587 q 198 533 211 559 q 173 471 185 507 q 162 394 162 435 q 163 368 162 384 q 167 338 163 353 q 172 304 168 320 q 184 312 173 304 q 208 333 194 320 q 234 361 221 346 q 255 387 247 376 q 277 422 265 400 q 301 464 289 443 q 320 501 312 485 q 330 520 328 516 q 337 520 333 520 q 345 516 342 520 m 2 111 q 10 142 8 127 q 7 157 11 157 q -13 146 2 157 q -31 129 -28 136 q -34 104 -39 116 q -16 92 -29 92 q 2 111 -10 92 z "},"t":{"ha":288,"x_min":-100,"x_max":364,"o":"m 18 551 q 38 645 28 598 q 62 743 49 691 q 83 821 70 778 q 106 904 95 864 q 127 971 118 943 q 139 1005 136 1000 q 176 1023 149 1023 q 207 1019 191 1023 q 236 1007 222 1015 q 259 987 250 998 q 268 961 268 975 q 259 870 268 922 q 240 771 250 819 q 214 662 229 717 q 209 642 211 654 q 204 618 208 631 q 199 588 201 603 l 193 557 q 172 438 181 503 q 157 316 163 373 q 147 223 150 260 q 144 190 144 186 q 146 143 144 160 q 155 126 149 126 q 178 152 162 126 q 212 217 194 178 q 248 298 230 255 q 278 377 266 342 q 310 491 301 446 q 342 536 319 536 q 356 529 346 536 l 364 518 l 355 471 q 308 299 337 384 q 246 147 279 214 q 178 38 212 80 q 114 -3 144 -3 q 87 2 101 -3 q 30 32 52 16 q -5 70 8 47 q -23 124 -18 93 q -28 203 -28 155 q -14 354 -28 270 q 18 551 0 438 m -72 650 q -48 661 -64 658 q 20 667 -33 663 q 102 669 51 668 q 196 670 154 670 q 249 670 229 670 q 282 668 270 670 q 301 665 294 667 q 312 662 307 663 q 325 652 324 657 q 325 634 327 647 q 265 585 314 595 q 199 580 253 582 q 80 577 145 578 l -82 574 l -92 585 q -93 619 -100 598 q -72 650 -87 641 z "},"u":{"ha":574,"x_min":-33,"x_max":624,"o":"m 90 0 q -2 51 28 0 q -33 199 -33 103 q -25 308 -33 247 q -5 448 -18 369 q 32 587 13 547 q 83 626 51 626 q 152 614 119 626 q 185 570 185 603 q 182 547 183 560 q 178 513 181 533 q 157 387 165 441 q 144 293 149 333 q 136 226 139 253 q 134 181 134 199 q 162 118 134 118 q 185 139 172 118 q 213 194 199 160 q 239 269 227 227 q 260 351 252 310 q 310 561 286 498 q 364 624 335 624 q 395 620 379 624 q 426 609 412 616 q 451 589 441 601 q 461 562 461 577 q 453 489 461 541 q 430 330 446 438 q 417 244 422 286 q 413 188 413 203 q 417 141 413 160 q 428 121 422 121 q 455 148 438 121 q 493 223 472 175 q 537 338 513 271 q 585 487 560 405 q 611 534 600 534 q 624 515 624 534 q 615 475 624 513 q 591 381 606 436 q 556 262 575 325 q 515 150 536 199 q 453 38 484 77 q 376 0 423 0 q 292 33 325 0 q 252 129 260 67 l 248 155 l 229 118 q 172 32 199 60 q 103 0 145 3 l 90 0 z "},"v":{"ha":458,"x_min":-18,"x_max":523,"o":"m -18 42 q -15 69 -18 44 q -7 131 -11 93 q 2 216 -2 168 q 5 310 5 263 q -2 475 5 418 q -10 569 -10 533 q 4 616 -10 606 q 41 626 18 626 q 59 623 49 626 q 85 616 69 621 q 131 588 116 606 q 151 533 145 570 q 156 435 157 497 q 158 279 155 374 l 162 147 l 190 204 q 221 275 206 239 q 248 342 237 310 q 267 398 260 374 q 275 430 275 422 q 275 486 275 451 q 282 554 276 521 q 300 611 288 587 q 337 636 312 636 q 369 621 358 636 q 381 582 381 606 q 377 556 381 572 q 368 520 373 539 q 360 484 364 502 q 356 458 356 467 q 376 444 356 444 q 415 458 394 444 q 456 489 436 472 q 490 519 475 505 q 508 533 505 533 q 518 527 513 533 q 523 513 523 521 q 508 477 523 498 q 470 438 493 456 q 418 407 446 420 q 364 394 391 394 l 353 394 l 330 394 l 301 328 q 234 185 261 243 q 188 88 208 126 q 154 31 168 51 q 126 2 139 11 q 99 -7 113 -7 q 67 -8 85 -8 q 3 8 25 -8 q -18 42 -18 25 z "},"w":{"ha":711,"x_min":-34,"x_max":779,"o":"m 131 10 q 90 3 114 3 q 34 10 57 3 q -4 37 11 16 q -27 96 -20 57 q -34 196 -34 134 q -33 246 -34 225 q -31 286 -33 266 q -26 328 -29 306 q -16 386 -23 351 q 36 609 8 531 q 92 686 64 686 q 163 657 137 686 q 188 577 188 627 q 177 491 188 546 q 154 373 167 436 q 132 243 142 309 q 123 124 123 176 q 134 96 123 96 q 158 125 144 96 q 190 195 173 154 q 224 286 208 237 q 250 377 240 335 q 276 479 265 438 q 296 546 288 520 q 310 584 304 572 q 319 601 315 596 q 353 614 327 614 q 385 609 368 614 q 417 596 402 605 q 441 575 431 587 q 451 552 451 564 q 447 525 449 546 q 440 482 444 505 q 423 396 431 441 q 408 311 415 351 q 398 240 402 271 q 394 196 394 209 q 400 145 394 165 q 415 121 407 124 q 454 154 433 121 q 493 234 475 188 q 521 327 510 279 q 533 400 533 374 q 520 444 533 418 q 508 503 508 469 q 512 543 508 523 q 524 581 516 564 q 542 609 531 598 q 569 619 554 619 q 600 605 585 619 q 614 560 614 592 q 612 532 614 551 q 605 493 609 513 q 599 455 601 472 q 596 433 596 438 q 619 430 596 430 q 740 513 685 430 q 763 536 757 536 q 774 529 768 536 q 779 516 779 523 q 770 493 779 510 q 614 377 719 391 l 585 376 l 575 328 q 543 221 564 273 q 498 119 523 170 q 463 59 479 82 q 433 23 448 36 q 402 5 418 10 q 366 0 386 0 q 283 37 317 0 q 239 147 250 74 l 232 178 l 208 119 q 131 10 172 31 z "},"x":{"ha":449,"x_min":-96,"x_max":507,"o":"m 407 178 q 369 97 387 131 q 330 43 351 64 q 283 14 309 23 q 224 5 258 5 q 144 32 176 5 q 90 92 111 59 q 58 153 69 126 q 46 180 47 180 q 29 163 41 180 q 6 123 18 145 q -17 76 -7 100 q -29 41 -28 52 q -51 3 -34 3 q -82 25 -67 3 q -96 70 -96 47 q -78 132 -96 100 q -16 208 -59 165 l 31 257 l 20 310 q 4 432 10 373 q -2 534 -2 492 q 2 582 -2 564 q 14 608 7 600 q 33 618 21 616 q 62 621 46 621 q 98 616 83 621 q 125 595 113 611 q 146 548 137 578 q 163 467 155 518 q 172 416 168 435 q 178 397 175 397 q 191 418 175 397 q 232 475 208 440 q 281 558 257 510 q 320 660 306 606 q 343 690 327 690 q 380 668 363 690 q 397 631 397 647 q 382 576 397 609 q 343 505 368 542 q 288 431 319 467 q 227 364 258 394 l 188 328 l 193 291 q 230 150 204 204 q 283 96 255 96 q 341 154 301 96 q 422 345 381 211 q 461 479 449 436 q 489 521 472 521 q 507 500 507 521 q 497 449 507 487 q 472 364 487 412 q 440 267 458 317 q 407 178 423 217 z "},"y":{"ha":572,"x_min":-26,"x_max":634,"o":"m 475 569 q 468 516 475 565 q 449 400 461 466 q 410 156 423 243 q 399 65 397 69 q 407 76 399 64 q 427 107 415 88 q 453 150 440 126 q 475 193 466 173 q 498 243 484 211 q 525 312 511 275 q 554 389 539 350 q 581 459 569 428 q 602 511 593 490 q 613 531 611 531 q 634 515 634 531 q 618 437 634 490 q 579 320 603 384 q 529 194 556 257 q 477 90 502 131 q 451 47 469 75 q 417 -7 433 18 l 377 -67 l 359 -150 q 319 -294 340 -237 q 268 -386 297 -351 q 199 -436 239 -422 q 100 -451 158 -451 q 46 -439 67 -448 q 18 -400 25 -430 q 21 -341 18 -366 q 37 -291 25 -315 q 75 -237 49 -266 q 145 -163 101 -208 l 199 -111 l 221 18 q 235 112 229 72 q 242 154 242 152 q 234 139 242 154 q 214 105 225 124 q 190 66 203 85 q 168 38 176 47 l 145 11 l 113 10 l 101 10 q 5 60 36 10 q -26 206 -26 109 q -17 339 -26 265 q 7 480 -8 413 q 44 591 23 546 q 90 636 65 636 q 122 631 105 636 q 153 617 139 626 q 176 596 167 608 q 186 570 186 585 q 180 498 186 551 q 155 340 173 446 q 143 250 147 288 q 139 188 139 212 q 144 145 139 160 q 154 131 149 131 q 181 160 163 131 q 221 239 199 190 q 263 352 242 288 q 302 489 284 417 q 335 587 319 554 q 377 621 351 621 q 414 615 397 621 q 445 600 431 609 q 467 583 459 592 q 475 569 475 574 m 170 -270 q 178 -211 183 -212 q 162 -225 173 -211 q 109 -299 131 -261 q 90 -350 87 -337 q 123 -351 92 -371 q 150 -324 141 -340 q 170 -270 160 -307 z "},"z":{"ha":511,"x_min":-90,"x_max":574,"o":"m 72 343 q 86 348 77 346 q 124 351 95 350 l 155 351 l 203 395 q 231 420 214 405 q 264 449 248 435 q 292 472 279 462 q 307 484 304 482 l 309 485 q 306 487 309 487 q 276 482 302 487 q 216 471 250 477 q 146 461 181 466 q 88 456 111 456 q 13 489 36 456 q -10 580 -10 523 q -4 618 -10 601 q 10 636 2 636 q 56 624 15 636 q 160 613 96 613 q 266 623 209 613 q 366 634 324 634 q 402 603 392 634 q 412 534 412 572 q 408 512 412 523 q 391 485 404 502 q 352 444 377 469 q 283 382 327 420 q 265 367 273 374 q 248 353 257 359 q 278 350 270 351 q 289 348 286 350 q 296 333 297 345 q 261 309 291 314 q 239 306 257 307 q 198 304 221 306 q 148 253 168 276 q 96 199 127 230 l 82 181 l 109 181 q 144 176 123 181 q 190 165 165 172 q 239 154 214 158 q 283 149 263 149 q 332 157 310 149 q 366 176 351 167 q 396 207 381 185 q 433 272 412 229 q 489 394 454 315 q 537 500 521 472 q 560 528 552 528 q 569 523 564 528 q 574 507 574 518 q 551 428 574 492 q 492 286 528 364 q 413 134 456 208 q 330 26 371 60 q 287 -1 306 8 q 245 -10 268 -10 q 207 -6 230 -10 q 158 3 183 -2 q 108 12 132 8 q 67 16 83 16 q 13 10 36 16 q -23 3 -10 3 q -45 14 -33 3 q -67 42 -57 25 q -83 81 -77 59 q -90 124 -90 103 q -71 150 -90 132 q -25 192 -52 168 q 33 242 2 216 q 92 292 65 268 l 103 302 l 67 302 l 60 309 q 60 326 57 315 q 72 343 64 337 z "},"$":{"ha":691,"x_min":65,"x_max":654,"o":"m 529 977 q 623 943 588 977 q 653 873 652 915 q 624 770 654 832 q 601 732 609 739 q 580 739 593 725 q 580 791 569 755 q 595 846 588 810 q 601 897 601 881 q 593 915 601 913 q 564 905 585 917 q 535 887 551 899 q 505 864 520 876 q 480 841 490 851 q 469 827 469 830 q 460 789 467 822 q 441 712 453 757 q 414 591 425 639 q 398 513 404 542 q 391 471 392 484 q 392 458 389 459 q 411 445 394 456 q 451 422 428 435 q 586 288 565 355 q 533 144 606 222 q 351 33 462 70 l 314 20 l 307 -10 q 271 -62 297 -62 q 255 -49 260 -62 q 255 -20 250 -38 q 258 7 261 3 q 229 15 255 11 q 140 39 176 20 q 84 89 103 59 q 66 155 65 119 q 92 229 67 191 q 132 281 111 258 q 160 304 152 304 q 167 273 186 304 q 131 181 136 222 q 133 138 127 157 q 152 101 139 119 q 168 86 163 88 q 186 87 173 83 q 205 93 193 88 q 231 104 217 98 q 257 117 245 109 q 276 129 270 124 q 283 137 279 131 q 289 158 286 144 q 297 196 292 172 q 307 261 301 221 q 321 353 315 314 q 328 399 327 392 q 324 412 330 407 q 288 433 317 417 q 139 606 137 515 q 156 688 139 641 q 201 775 173 735 q 242 821 217 796 q 295 869 266 846 q 354 913 324 892 q 413 948 384 933 l 453 969 l 466 1002 q 485 1039 477 1036 l 492 1039 q 505 1002 508 1036 l 502 977 l 529 977 m 436 345 q 426 355 435 348 q 408 368 418 361 q 389 382 399 376 q 376 387 379 387 l 374 387 q 369 359 374 387 q 359 295 364 330 q 349 230 353 260 q 345 196 345 199 q 360 207 345 190 q 399 255 376 224 q 428 307 417 281 q 436 345 440 333 m 382 657 q 397 730 391 699 q 402 761 404 760 q 389 747 402 763 q 358 709 376 730 q 276 559 284 613 q 279 521 273 533 q 309 497 286 510 q 338 483 333 484 q 345 490 343 482 q 348 504 346 493 q 353 526 350 515 q 364 577 356 539 q 382 657 373 614 z "},"":{"ha":696,"x_min":26,"x_max":667,"o":"m 657 899 q 665 867 663 879 q 667 835 667 855 q 638 709 667 745 q 582 673 609 673 q 552 685 564 673 l 539 696 l 551 712 q 594 800 578 747 q 609 892 609 853 q 582 944 609 944 q 547 935 567 944 q 506 908 528 925 q 460 867 484 891 q 417 815 436 843 q 382 762 400 792 q 347 703 363 732 q 322 653 332 675 q 312 624 312 631 q 335 619 312 619 q 368 620 346 619 q 408 621 391 621 q 454 615 449 621 q 459 600 459 609 q 435 588 459 592 q 379 583 410 585 q 321 578 348 580 q 289 572 294 577 q 280 545 286 562 q 270 511 275 528 q 261 479 265 493 q 257 462 257 464 q 280 455 257 456 q 333 454 304 454 q 385 450 361 454 q 408 435 408 446 q 386 423 408 425 q 333 422 363 422 q 278 421 304 422 q 245 413 252 420 q 239 396 242 410 q 235 361 237 382 q 233 315 234 340 q 232 268 232 291 q 238 201 232 234 q 254 143 243 168 q 282 101 265 118 q 322 85 299 85 q 389 112 350 85 q 461 181 428 139 q 491 217 482 209 q 507 224 500 224 q 515 216 515 224 q 505 186 515 206 q 458 106 477 134 q 418 65 438 78 q 373 50 399 52 q 309 47 348 47 q 151 127 206 47 q 96 338 96 206 l 96 395 l 69 391 q 51 389 62 389 q 26 407 26 389 q 72 428 26 423 l 100 431 l 106 458 q 113 484 108 467 q 122 519 118 502 q 129 548 126 536 q 132 562 132 560 q 126 565 132 565 q 108 564 121 565 q 87 562 95 562 q 55 568 64 562 q 46 587 46 574 q 63 600 46 593 q 108 606 80 606 q 136 609 127 608 q 151 618 145 611 q 163 639 157 624 q 185 683 170 654 q 257 804 216 747 q 342 903 297 861 q 435 969 387 944 q 529 993 482 993 q 614 971 587 993 q 657 899 641 949 z "},"":{"ha":523,"x_min":31,"x_max":495,"o":"m 359 605 q 337 489 350 557 q 311 358 324 422 q 290 248 299 294 q 281 201 281 203 q 311 221 286 201 q 356 260 337 240 q 387 299 368 271 q 426 356 407 327 q 463 408 446 386 q 489 430 480 430 q 495 425 495 430 q 480 386 495 417 q 444 320 464 356 q 402 251 423 284 q 368 203 381 217 q 322 158 345 176 q 283 137 299 141 q 266 118 270 134 q 261 83 263 101 q 256 51 260 65 q 237 36 252 36 q 224 38 230 36 q 217 67 217 41 q 218 77 217 72 q 219 90 219 82 l 221 132 l 199 136 q 76 217 121 152 q 31 376 31 283 q 55 520 31 451 q 119 646 78 590 q 213 742 160 703 q 324 799 266 781 l 351 807 l 363 858 q 377 904 373 892 q 387 917 381 917 q 403 911 397 917 q 408 897 408 905 q 407 879 408 892 q 403 850 405 866 q 399 822 400 835 q 397 807 397 809 q 471 761 448 788 q 495 685 495 735 q 489 632 495 652 q 474 613 484 613 q 455 635 459 613 q 449 684 451 657 q 440 734 446 711 q 420 757 435 757 q 402 750 413 757 q 391 744 394 747 q 383 730 387 742 q 374 689 379 717 q 359 605 369 660 m 276 433 q 292 509 283 466 q 308 593 301 552 q 320 663 315 634 q 325 694 325 691 l 325 696 q 315 687 324 696 q 297 666 307 678 q 278 640 288 654 q 261 616 268 626 q 225 549 242 587 q 197 471 209 511 q 178 391 185 431 q 172 317 172 351 q 176 270 172 294 q 189 225 181 245 q 205 194 196 206 q 224 181 214 181 q 232 204 227 181 q 243 263 237 227 q 258 344 250 299 q 276 433 266 389 z "},"":{"ha":647,"x_min":25,"x_max":613,"o":"m 500 740 q 492 750 492 743 q 498 769 492 757 q 511 799 503 781 q 525 841 518 817 q 531 892 531 864 q 520 940 531 940 q 504 931 513 940 q 484 891 495 922 q 458 804 472 861 q 425 650 443 747 q 402 531 412 582 q 391 475 392 480 l 387 462 l 428 462 q 486 455 474 462 q 498 435 498 448 q 487 424 498 428 q 438 420 475 420 q 401 421 413 420 q 384 417 389 422 q 377 398 379 412 q 368 355 374 384 q 327 200 350 265 q 276 98 304 136 l 266 87 l 281 83 q 317 78 291 82 q 361 75 343 75 q 446 94 404 75 q 510 155 489 113 q 522 186 520 175 q 526 203 525 198 q 532 212 528 209 q 547 214 536 214 q 585 199 572 214 q 598 158 598 183 q 583 102 598 129 q 543 55 569 75 q 484 23 518 34 q 410 11 449 11 q 347 17 382 11 q 271 36 312 23 l 230 49 l 212 36 q 153 5 183 13 q 95 -3 123 -3 q 40 7 56 -3 q 25 33 25 18 q 46 65 25 51 q 105 88 67 80 q 129 96 124 92 q 144 121 134 101 q 158 161 149 131 q 178 231 167 191 q 200 315 190 271 q 219 395 211 359 l 222 417 l 185 417 q 144 422 155 417 q 132 443 132 428 q 149 454 132 451 q 184 459 165 458 q 219 462 203 461 q 235 472 235 464 q 242 508 235 479 q 258 576 248 538 q 279 654 268 614 q 299 719 291 693 q 391 930 348 868 q 490 992 435 992 q 583 951 552 992 q 613 858 613 910 q 590 763 613 791 q 525 735 567 735 q 500 740 510 735 z "},"":{"ha":570,"x_min":34,"x_max":533,"o":"m 480 709 q 440 544 458 626 q 408 405 422 462 l 402 374 l 435 374 l 446 374 q 475 359 475 374 q 458 344 475 350 q 418 338 441 338 q 396 332 400 338 q 389 296 392 325 l 386 271 l 425 271 q 462 266 454 271 q 471 253 471 261 q 417 239 471 239 l 379 239 l 373 191 q 369 152 369 168 q 369 121 369 136 q 375 70 369 90 q 381 41 381 51 q 370 24 381 29 q 342 18 359 18 q 263 60 294 18 q 232 191 232 103 l 232 222 l 206 217 q 171 214 188 214 q 150 214 154 214 q 139 232 139 214 q 169 253 139 245 q 224 261 199 261 q 238 272 234 261 q 242 315 242 283 l 237 315 q 212 314 229 315 q 186 312 194 312 q 163 330 163 312 q 180 347 163 340 q 224 358 196 355 q 248 368 243 361 q 260 407 253 376 q 267 443 261 420 q 278 489 273 466 q 287 531 283 513 q 291 554 291 549 l 291 556 q 225 420 255 464 q 160 376 196 376 q 65 431 95 376 q 34 564 34 485 q 37 614 34 590 q 46 665 39 637 q 63 728 52 693 q 90 812 74 763 q 121 912 111 876 q 135 965 131 948 q 141 986 139 982 q 152 990 144 990 q 195 980 176 990 q 226 953 214 969 q 245 918 239 938 q 252 882 252 899 q 239 801 252 855 q 212 691 227 748 q 184 582 196 634 q 172 502 172 529 q 176 470 172 480 q 185 459 181 459 q 202 484 188 459 q 236 547 216 508 q 281 636 257 587 q 328 735 306 686 q 372 829 351 784 q 404 905 392 874 q 434 968 422 949 q 459 987 446 987 q 482 981 469 987 q 506 967 495 975 q 525 949 516 959 q 533 931 533 940 q 518 855 533 915 q 480 709 503 796 z "},"+":{"ha":426,"x_min":28,"x_max":400,"o":"m 333 544 q 381 542 371 544 q 394 536 391 541 q 400 512 400 528 q 395 493 400 497 q 373 491 392 492 q 328 487 353 490 l 268 484 l 255 423 q 234 333 242 359 q 219 304 227 307 q 208 301 216 302 q 190 299 199 299 q 172 300 180 299 q 158 302 163 301 q 139 315 149 306 q 131 342 131 322 q 144 428 131 361 q 151 464 149 449 q 152 479 154 479 q 136 480 150 480 q 103 477 123 480 q 69 475 82 475 q 51 476 57 475 q 42 480 44 477 q 36 490 39 484 q 38 516 28 508 q 93 528 49 523 q 130 533 113 531 q 150 536 147 536 q 173 587 167 538 q 179 618 175 598 q 188 657 183 637 q 198 693 193 676 q 204 714 203 709 q 252 725 217 737 q 296 678 294 712 q 296 652 297 670 q 292 613 294 634 q 286 574 289 592 q 281 549 283 556 q 288 544 279 546 q 333 544 296 542 z "},"-":{"ha":544,"x_min":121,"x_max":408,"o":"m 139 366 q 155 377 145 374 q 201 382 165 379 q 257 385 222 384 q 320 386 292 386 q 378 384 364 386 q 399 377 392 382 q 408 368 407 373 q 407 348 408 363 q 366 297 400 307 q 322 292 358 294 q 242 289 286 291 l 132 286 l 126 297 q 125 333 121 310 q 139 366 129 355 z "},"*":{"ha":330,"x_min":26,"x_max":304,"o":"m 279 935 q 296 930 288 935 q 304 920 304 925 q 292 907 304 917 q 265 884 281 897 q 235 859 248 871 q 217 845 222 848 l 208 837 l 248 799 q 286 755 281 766 q 273 735 291 743 q 253 734 261 730 q 217 763 245 739 q 202 776 209 771 q 191 781 194 781 q 186 767 190 781 q 180 734 183 753 q 172 696 176 711 q 165 678 168 681 q 140 669 157 670 q 116 676 123 668 q 105 698 106 688 q 108 729 105 708 q 110 749 109 739 q 111 763 111 760 q 106 770 109 771 q 88 757 103 768 q 56 737 65 739 q 36 745 46 735 q 28 753 28 752 q 34 763 28 755 q 51 779 38 768 q 83 804 65 791 q 109 826 98 817 q 121 837 121 835 q 108 851 121 840 q 77 879 95 863 q 45 910 59 897 q 29 926 31 923 q 33 939 26 933 q 51 944 41 944 q 77 934 56 944 q 116 910 98 923 l 129 902 l 132 923 q 153 991 141 975 q 190 993 165 1007 q 213 971 208 984 q 216 926 219 959 l 212 892 l 243 915 q 279 935 271 935 z "},"=":{"ha":485,"x_min":39,"x_max":456,"o":"m 444 681 q 454 671 453 675 q 453 650 456 667 q 420 606 448 618 q 387 600 412 603 q 327 596 363 598 q 248 592 291 593 q 162 590 204 590 q 116 590 132 590 q 91 592 100 590 q 79 595 82 593 q 74 601 77 596 q 69 631 67 613 q 108 678 77 668 q 165 683 116 681 q 278 686 214 685 q 325 688 304 688 q 363 688 346 688 q 423 687 410 688 q 444 681 436 686 m 425 474 q 391 428 420 440 q 359 422 384 425 q 297 417 333 420 q 219 413 261 415 q 134 412 176 412 l 52 412 l 44 423 q 39 444 39 433 q 45 467 39 456 q 60 488 51 479 q 80 500 69 497 q 137 505 88 503 q 250 508 186 507 q 297 510 276 510 q 333 510 317 510 q 395 510 381 511 q 415 503 408 508 q 426 493 425 497 q 425 474 428 489 z "},".":{"ha":235,"x_min":31,"x_max":208,"o":"m 46 129 q 73 162 56 150 q 110 176 90 173 q 151 171 131 178 q 186 147 172 163 q 203 119 199 132 q 206 82 208 106 q 193 42 204 60 q 165 14 181 25 q 129 1 149 3 q 92 7 109 -2 q 44 58 57 21 q 46 129 31 95 z "},",":{"ha":225,"x_min":18,"x_max":199,"o":"m 90 160 q 128 167 109 168 q 163 154 147 165 q 190 127 180 144 q 199 90 199 111 q 196 67 199 80 q 187 39 193 54 q 175 11 181 25 q 162 -10 168 -2 q 97 -62 136 -46 q 38 -64 59 -78 q 49 -38 18 -49 q 73 -22 59 -34 q 92 0 87 -10 q 92 11 95 7 q 75 28 88 16 q 47 100 42 60 q 90 160 51 141 z "},":":{"ha":302,"x_min":33,"x_max":266,"o":"m 92 26 q 44 81 56 44 q 51 155 33 118 q 82 185 62 175 q 124 194 101 196 q 188 165 163 194 q 208 110 209 141 q 190 57 206 80 q 147 23 173 34 q 92 26 121 11 m 178 634 q 231 617 206 634 q 261 572 257 600 q 258 520 266 544 q 234 481 250 497 q 194 461 217 466 q 149 466 172 456 q 113 495 126 475 q 97 538 100 515 q 103 583 95 560 q 131 621 111 606 q 178 634 152 637 z "},";":{"ha":333,"x_min":25,"x_max":273,"o":"m 131 185 q 176 163 160 180 q 197 122 193 147 q 192 65 201 96 q 160 3 183 34 q 132 -23 149 -11 q 99 -42 116 -34 q 66 -51 82 -49 q 41 -46 51 -52 q 32 -32 29 -41 q 47 -18 34 -23 q 74 -2 60 -15 q 93 20 88 10 q 93 30 96 25 q 77 47 90 36 q 62 157 25 100 q 87 177 70 170 q 123 185 105 185 l 131 185 m 157 475 q 120 507 134 487 q 104 550 106 528 q 109 594 101 572 q 137 631 118 616 q 180 645 154 642 q 219 639 199 647 q 252 614 239 631 q 271 560 273 590 q 253 506 270 529 q 211 471 237 482 q 157 475 185 461 z "},"":{"ha":342,"x_min":28,"x_max":315,"o":"m 178 475 q 141 507 155 487 q 125 550 127 528 q 131 594 123 572 q 158 631 139 616 q 201 645 175 642 q 273 614 245 649 q 290 587 286 600 q 291 551 294 574 q 278 510 289 528 q 250 481 266 492 q 214 468 234 471 q 178 475 194 466 m 271 312 q 226 309 263 310 q 145 306 190 307 l 39 302 l 34 314 q 32 348 28 327 q 46 382 36 369 q 56 391 51 387 q 77 395 62 394 q 119 398 92 397 q 196 400 147 399 q 227 402 214 402 q 250 402 240 402 q 291 401 283 404 q 306 395 299 399 q 315 383 314 389 q 314 363 315 377 q 271 312 307 322 m 181 199 q 233 142 222 183 q 217 64 243 101 q 172 31 199 39 q 121 36 145 23 q 90 60 103 44 q 72 92 77 75 q 83 169 59 136 q 145 206 106 203 q 181 199 167 206 z "},"&":{"ha":910,"x_min":44,"x_max":881,"o":"m 871 546 q 878 524 881 542 q 863 482 876 505 q 829 441 851 459 q 779 411 807 423 q 717 393 750 399 q 650 391 685 387 q 620 393 634 391 q 603 395 606 395 q 609 379 595 400 q 630 335 626 355 q 631 284 634 315 q 607 198 626 240 q 560 120 588 155 q 495 58 531 85 q 420 16 459 31 q 392 11 410 13 q 355 7 374 8 q 316 7 335 7 q 286 8 297 7 q 170 51 224 16 q 93 134 116 87 q 69 342 44 232 q 181 544 93 453 q 243 595 206 569 q 304 629 279 621 l 325 637 l 299 663 q 275 691 281 681 q 261 717 268 701 q 302 879 242 792 q 529 998 377 984 q 622 990 577 1003 q 685 953 667 977 q 702 891 703 930 q 683 830 701 853 q 663 815 668 810 q 660 859 658 820 q 642 943 660 935 q 626 943 637 944 q 600 937 614 941 q 572 927 587 933 q 546 917 557 922 q 518 900 533 910 q 493 881 503 889 q 458 842 475 864 q 426 794 440 819 q 404 746 413 770 q 394 703 395 722 q 398 665 391 672 q 448 658 405 658 q 488 658 467 658 q 518 655 508 657 q 560 633 544 649 q 564 609 575 618 q 550 605 562 609 q 521 598 538 601 q 444 569 474 587 q 376 511 415 552 q 310 433 333 471 q 270 348 286 395 q 250 193 242 265 q 299 87 258 121 q 317 74 307 80 q 335 67 327 69 q 403 83 363 62 q 484 142 443 103 q 517 181 507 165 q 541 221 528 196 q 564 288 560 263 q 554 342 567 314 q 529 377 544 364 q 487 399 515 389 q 461 405 469 405 q 436 402 453 405 q 408 406 412 397 q 422 433 404 415 q 444 449 430 443 q 483 462 458 456 q 548 473 508 467 q 647 484 588 479 q 733 494 693 489 q 783 503 773 500 q 807 514 792 507 q 835 529 822 521 q 858 542 848 538 q 871 546 868 547 z "},"":{"ha":1230,"x_min":33,"x_max":1203,"o":"m 1203 222 q 1188 150 1201 186 q 1153 85 1175 114 q 1100 38 1131 56 q 1036 20 1070 20 q 938 54 979 20 q 897 165 897 88 q 913 243 897 209 q 954 301 930 278 q 1008 337 979 325 q 1065 348 1038 348 q 1163 316 1123 348 q 1203 222 1203 284 m 1065 65 q 1136 132 1108 85 q 1163 224 1163 178 q 1150 281 1163 255 q 1119 307 1136 307 q 1071 288 1093 307 q 1032 240 1049 268 q 1005 181 1015 212 q 995 123 995 149 q 1004 78 995 100 q 1033 56 1013 56 q 1065 65 1046 56 m 315 993 q 407 961 369 993 q 444 871 444 928 q 432 808 444 842 q 400 748 420 775 q 350 703 379 721 q 291 685 322 685 q 226 699 253 685 q 183 734 199 712 q 159 782 167 757 q 152 830 152 807 q 167 898 152 868 q 204 949 181 928 q 257 982 227 971 q 315 993 286 993 m 394 797 q 410 866 410 835 q 394 926 410 899 q 363 954 377 954 q 323 935 343 954 q 286 886 302 915 q 260 827 270 858 q 250 771 250 796 q 286 721 250 721 q 343 740 312 721 q 394 797 374 760 m 922 1005 q 946 996 935 1005 q 958 977 958 987 q 927 928 958 966 q 848 837 897 891 q 759 739 824 810 q 601 567 694 668 q 393 342 508 466 q 154 87 278 217 q 123 54 134 67 q 102 34 111 41 q 86 25 93 28 q 69 23 78 23 q 43 29 54 23 q 33 44 33 36 q 38 58 33 49 q 61 87 44 67 q 111 143 78 108 q 196 235 144 178 q 480 541 355 402 q 698 781 606 680 q 845 940 789 882 q 917 1003 900 998 q 920 1005 917 1003 l 922 1005 m 810 123 q 750 50 786 75 q 672 25 714 25 q 573 59 614 25 q 531 170 531 93 q 547 247 531 212 q 587 305 562 281 q 641 341 611 328 q 698 353 670 353 q 801 319 765 353 q 837 229 837 284 q 810 123 837 180 m 701 70 q 769 135 742 88 q 796 229 796 181 q 783 287 796 261 q 753 312 771 312 q 706 292 729 312 q 667 243 683 273 q 641 182 650 214 q 631 126 631 150 q 639 82 631 103 q 667 60 647 60 q 701 70 678 60 z "},"%":{"ha":985,"x_min":31,"x_max":958,"o":"m 255 685 q 217 701 232 693 q 188 725 203 709 q 158 770 167 748 q 150 825 150 792 q 153 862 150 851 q 165 894 155 873 q 245 974 188 946 q 271 983 258 980 q 309 987 284 985 l 332 987 q 354 984 345 987 q 379 974 363 982 q 415 949 404 961 q 436 912 426 936 q 441 855 444 887 q 426 793 438 824 q 393 736 413 763 q 346 694 373 709 q 302 681 328 683 q 255 685 276 678 m 340 944 q 301 909 320 933 q 270 856 283 886 q 251 798 257 827 q 250 748 245 770 q 275 716 258 721 q 324 725 291 711 q 372 764 351 737 q 401 822 392 791 q 407 883 410 853 q 384 933 404 913 q 358 949 369 949 q 340 944 350 949 m 923 997 q 948 989 938 997 q 958 972 958 982 q 926 922 958 962 q 848 833 894 882 q 819 802 838 824 q 773 753 799 781 q 717 693 747 725 q 658 629 688 660 q 600 565 629 596 q 544 504 570 533 q 498 453 518 475 q 467 420 477 431 q 413 364 446 399 q 343 288 381 328 q 268 208 306 248 q 199 133 230 167 q 148 77 168 100 q 126 51 127 54 q 87 22 108 29 q 46 25 65 15 q 38 29 42 26 q 33 34 33 31 q 33 46 31 39 q 51 72 36 52 q 100 128 67 92 q 194 230 134 165 q 241 279 216 252 q 292 336 266 307 q 343 391 319 364 q 387 440 368 418 q 433 491 405 461 q 492 555 461 521 q 555 623 523 588 q 616 690 587 658 q 672 752 644 721 q 725 810 701 783 q 769 856 750 837 q 796 886 788 876 q 872 965 838 933 q 913 997 905 997 l 923 997 m 822 284 q 834 234 833 263 q 828 176 835 206 q 806 117 820 145 q 770 67 791 88 q 634 25 711 5 q 578 50 600 33 q 539 98 557 67 q 531 123 533 111 q 529 165 529 136 q 532 209 529 198 q 542 240 534 221 q 584 297 557 270 q 637 335 611 324 q 708 348 668 351 q 752 342 734 348 q 792 319 771 335 q 822 284 812 302 m 699 65 q 741 97 717 74 q 776 144 765 121 q 796 218 794 181 q 783 283 797 255 q 752 307 768 307 q 739 306 745 307 q 724 301 732 304 q 674 254 696 286 q 640 186 652 222 q 628 117 627 150 q 645 64 629 83 q 699 65 662 49 z "},"\"":{"ha":315,"x_min":33,"x_max":289,"o":"m 72 998 q 104 992 85 1000 q 131 972 123 984 q 142 922 141 959 q 136 858 144 886 q 126 829 132 845 q 112 800 119 814 q 98 775 105 786 q 87 763 92 765 q 44 765 67 752 q 33 783 34 770 q 41 835 33 797 q 47 876 44 848 q 52 931 51 904 q 55 966 54 953 q 56 985 56 979 q 60 993 57 992 q 65 997 62 995 q 69 998 69 997 q 72 998 70 998 m 158 781 q 164 799 160 784 q 173 832 168 814 q 185 908 181 864 q 185 982 188 951 q 196 997 183 995 l 204 997 q 236 987 219 995 q 263 966 253 979 q 281 889 289 936 q 275 862 279 877 q 262 830 270 846 q 248 799 255 814 q 234 775 240 784 q 216 757 221 760 q 196 753 211 753 q 165 763 175 753 q 158 781 155 773 z "},"'":{"ha":186,"x_min":145,"x_max":279,"o":"m 222 771 q 206 752 211 755 q 186 748 201 748 q 155 758 165 748 q 149 776 145 768 q 154 795 150 779 q 163 828 158 810 q 174 900 172 859 q 173 975 176 941 q 174 988 172 985 q 185 992 176 990 q 221 984 201 993 q 253 961 242 975 q 271 884 279 935 q 265 857 270 873 q 252 826 260 842 q 237 796 245 810 q 222 771 229 781 z "},"#":{"ha":881,"x_min":26,"x_max":851,"o":"m 333 271 l 327 237 q 321 193 325 222 q 314 136 317 163 l 306 67 l 286 49 q 186 46 237 0 l 172 62 l 175 105 q 179 152 176 123 q 185 206 181 181 q 186 229 186 219 q 188 247 186 239 q 190 265 188 255 q 169 265 190 266 q 121 261 149 263 q 71 259 93 260 q 46 260 49 258 q 32 276 38 263 q 29 296 26 289 q 52 310 33 306 q 124 317 72 314 q 172 321 152 320 q 194 324 193 322 q 199 355 194 325 q 211 425 204 384 q 240 614 229 557 l 243 626 l 183 626 q 141 627 157 626 q 118 629 126 627 q 105 634 109 631 q 100 644 101 637 q 98 657 96 652 q 114 665 100 662 q 158 672 127 668 q 243 680 188 675 q 256 697 250 680 q 276 779 261 714 q 299 879 289 840 q 317 941 309 918 q 333 973 325 964 q 351 982 342 982 q 388 974 368 982 q 422 953 408 966 l 436 938 l 433 894 q 427 842 431 876 q 418 779 423 807 q 410 726 413 750 q 407 698 407 703 l 407 686 l 471 690 q 520 692 498 691 q 544 693 541 693 q 552 701 552 693 q 557 734 552 708 q 569 791 562 760 q 583 853 575 822 q 595 904 590 884 q 617 964 608 951 q 644 977 626 977 q 692 962 668 977 q 722 926 716 946 q 721 904 722 922 q 719 862 721 887 q 714 807 717 837 q 706 750 711 778 l 698 693 l 761 691 q 810 689 789 690 q 833 685 830 688 q 847 670 843 681 q 846 650 851 658 q 823 639 842 642 q 752 636 804 636 q 699 634 708 636 q 690 626 691 632 q 685 600 688 621 q 677 550 681 578 q 668 489 673 521 q 659 426 663 456 q 652 376 655 397 q 649 350 649 355 l 649 330 l 698 332 q 763 329 750 333 q 779 310 776 325 q 770 285 783 291 q 703 276 758 279 l 639 273 l 636 252 q 630 216 632 243 q 624 157 627 188 q 618 99 621 124 q 611 69 614 74 q 587 42 606 56 q 546 25 567 28 q 522 20 526 20 q 502 28 518 20 q 487 34 493 31 q 479 41 480 38 q 480 67 479 42 q 481 125 480 92 q 484 193 482 158 q 489 247 487 227 l 492 271 l 412 271 l 333 271 m 338 322 l 391 325 q 433 326 410 325 q 467 327 456 327 l 493 327 l 500 391 q 506 444 502 413 q 515 505 510 474 q 525 564 520 536 q 533 609 529 592 q 538 632 538 626 q 516 636 538 636 q 467 636 495 637 q 419 635 441 636 q 395 632 397 634 q 383 574 392 629 q 358 420 374 520 q 348 363 353 389 q 343 333 343 337 l 338 322 z "},"@":{"ha":915,"x_min":34,"x_max":882,"o":"m 556 954 q 662 939 611 954 q 754 894 712 923 q 826 820 796 864 q 871 721 856 776 q 878 672 876 703 q 882 605 881 641 q 881 534 882 569 q 874 475 879 500 q 823 322 858 392 q 748 227 788 252 q 725 215 735 217 q 686 214 716 212 q 649 216 662 214 q 623 222 636 217 q 556 284 577 243 q 545 306 551 292 q 535 336 539 320 q 528 366 531 351 q 525 391 525 381 q 518 395 525 407 q 508 374 511 384 q 496 342 505 363 q 477 301 487 322 q 459 261 467 279 q 446 239 451 243 q 376 214 420 204 q 337 227 350 221 q 309 252 325 234 q 265 366 266 294 q 272 458 261 412 q 303 545 283 505 q 351 617 324 585 q 412 665 379 649 q 467 677 436 678 q 526 663 498 676 q 548 649 538 657 q 562 634 559 641 q 574 618 574 619 q 588 631 578 618 q 609 645 598 644 q 652 636 621 645 q 704 578 711 619 q 699 557 703 570 q 691 534 694 544 q 671 458 678 505 q 663 363 663 412 q 672 288 662 304 q 716 289 683 273 q 780 361 750 307 q 828 490 810 415 q 842 703 855 608 q 778 842 828 799 q 632 901 714 894 q 466 869 549 908 q 373 810 417 846 q 293 730 330 775 q 230 633 257 685 q 190 528 204 582 q 181 480 185 508 q 174 425 176 453 q 170 372 172 397 q 170 330 168 346 q 199 212 176 273 q 252 103 221 150 q 297 44 271 70 q 350 -2 324 18 q 404 -32 377 -21 q 456 -42 431 -42 q 507 -30 475 -41 q 564 -5 538 -20 q 593 16 577 3 q 626 44 609 29 q 655 74 642 59 q 676 100 668 88 q 704 126 694 126 q 716 120 716 126 q 704 88 716 114 q 653 3 686 44 q 585 -59 619 -38 q 495 -87 549 -78 q 394 -88 441 -96 q 212 -3 296 -74 q 83 172 129 67 q 42 346 49 250 q 57 531 34 443 q 74 579 62 551 q 100 637 85 608 q 131 693 114 667 q 160 737 147 719 q 261 835 201 788 q 377 910 320 882 q 556 954 466 954 m 523 482 q 538 518 533 505 q 545 540 542 531 q 547 557 547 549 q 544 578 546 565 q 542 605 544 593 q 536 621 539 618 q 529 626 533 626 q 516 621 526 626 q 476 574 497 609 q 430 469 456 539 q 415 421 422 449 q 405 364 408 392 q 401 314 402 335 q 405 288 400 292 q 418 293 408 284 q 441 320 428 302 q 482 391 459 348 q 523 482 505 435 z "},"_":{"ha":706,"x_min":29,"x_max":673,"o":"m 230 88 q 375 89 299 88 q 515 90 451 90 q 602 90 570 90 q 650 87 634 90 q 670 77 667 83 q 673 56 673 70 q 671 38 673 46 q 636 29 668 29 q 473 26 554 28 q 319 24 392 25 q 189 22 247 23 q 95 21 131 21 q 56 23 70 21 q 37 29 42 25 q 30 41 31 33 q 29 62 29 49 q 37 78 29 74 q 66 85 44 83 q 127 87 88 87 q 230 88 167 87 z "},"(":{"ha":572,"x_min":42,"x_max":546,"o":"m 542 1070 q 538 1059 546 1064 q 498 1036 531 1054 q 450 1010 466 1021 q 410 974 435 998 q 289 794 338 902 q 209 533 240 686 q 190 397 194 467 q 191 261 186 327 q 209 136 196 194 q 242 38 222 78 q 276 -9 255 15 q 319 -42 297 -33 q 342 -56 337 -52 q 342 -67 346 -60 q 322 -76 338 -75 q 286 -69 306 -77 q 174 -2 221 -47 q 92 121 127 42 q 43 365 44 224 q 90 655 42 507 q 160 815 116 740 q 257 949 204 891 q 369 1042 310 1007 q 482 1082 428 1077 q 524 1082 510 1085 q 542 1070 538 1078 z "},")":{"ha":552,"x_min":25,"x_max":525,"o":"m 395 1018 q 455 940 428 985 q 498 845 482 894 q 519 756 513 801 q 525 639 525 711 q 524 587 525 608 q 522 551 523 567 q 518 518 521 534 q 510 477 515 502 q 480 358 495 407 q 438 255 464 309 q 322 75 391 152 q 178 -39 253 -2 q 100 -65 141 -59 q 38 -64 60 -72 q 31 -59 34 -62 q 25 -52 28 -56 q 34 -41 25 -47 q 72 -21 44 -34 q 119 6 103 -5 q 160 41 136 16 q 281 221 232 113 q 361 482 330 328 q 378 613 374 544 q 379 750 382 681 q 339 952 371 877 q 248 1059 307 1026 q 225 1078 229 1072 q 235 1088 222 1083 q 267 1089 247 1093 q 310 1075 288 1085 q 355 1050 333 1065 q 395 1018 377 1034 z "},"/":{"ha":572,"x_min":23,"x_max":539,"o":"m 516 1185 q 533 1174 528 1180 q 539 1155 539 1168 q 533 1117 539 1142 q 511 1047 526 1092 q 475 927 498 1000 q 416 751 451 855 q 333 510 381 647 q 224 196 284 373 q 188 94 206 147 q 154 -6 170 41 q 126 -87 137 -52 q 109 -139 114 -123 q 101 -164 105 -154 q 96 -175 98 -175 q 92 -177 95 -176 q 88 -181 90 -178 q 79 -184 85 -183 q 65 -186 74 -185 q 38 -184 47 -186 q 25 -173 28 -181 q 29 -150 23 -170 q 44 -106 34 -131 q 64 -51 54 -80 q 87 19 74 -21 q 117 111 100 59 q 157 235 134 163 q 385 926 306 693 q 479 1176 464 1160 q 494 1188 487 1186 q 516 1185 502 1190 z "},"?":{"ha":698,"x_min":44,"x_max":672,"o":"m 186 141 q 234 123 216 142 q 252 70 252 103 q 211 7 252 26 q 157 3 181 -8 q 132 21 144 8 q 114 47 119 34 q 136 116 105 85 q 155 135 149 131 q 178 141 162 139 l 186 141 m 554 1046 q 663 907 645 1002 q 658 812 672 864 q 613 708 645 760 q 596 683 605 694 q 575 658 587 672 q 548 628 564 645 q 511 588 533 611 q 395 471 440 518 q 322 388 350 423 q 280 325 294 353 q 257 266 266 297 q 246 230 252 247 q 237 211 240 214 q 218 203 232 204 q 193 209 204 203 q 168 229 176 217 q 154 263 160 240 q 146 295 147 284 q 149 327 145 306 q 163 392 154 364 q 191 450 172 420 q 245 518 211 480 q 337 613 279 556 q 425 706 389 667 q 484 776 461 745 q 521 833 508 807 q 542 886 534 858 q 551 943 551 912 q 542 989 551 974 q 518 1013 534 1007 q 466 1018 502 1020 q 328 984 397 1018 q 204 894 258 951 q 163 837 180 868 q 136 775 145 806 q 127 715 127 743 q 137 665 127 686 q 142 627 154 632 q 103 644 131 621 q 66 689 80 662 q 48 746 52 716 q 50 810 44 776 q 72 874 56 843 q 207 1007 114 958 q 426 1070 299 1057 q 443 1072 433 1072 q 554 1046 495 1074 z "},"!":{"ha":382,"x_min":33,"x_max":356,"o":"m 116 137 q 159 122 139 137 q 185 78 180 106 q 178 42 188 64 q 155 11 168 21 q 122 0 142 3 q 87 3 101 -3 q 41 51 49 16 q 60 113 33 85 q 116 137 85 137 m 319 1029 q 349 1000 342 1016 q 351 944 356 984 q 333 834 346 905 q 296 675 319 763 q 258 518 276 601 q 222 337 240 435 q 200 241 209 270 q 176 201 191 212 q 150 190 168 193 q 119 190 132 186 q 100 205 106 193 q 95 234 95 217 q 99 287 95 242 q 109 393 103 332 q 123 523 116 454 q 139 647 131 592 q 175 891 157 791 q 206 1018 193 992 q 230 1039 214 1033 q 266 1046 245 1046 q 319 1029 294 1042 z "},"{":{"ha":492,"x_min":26,"x_max":456,"o":"m 333 1096 q 373 1092 351 1096 q 413 1080 394 1087 q 444 1065 431 1074 q 456 1049 456 1056 q 440 1041 456 1041 q 404 1052 425 1041 q 377 1064 382 1064 q 351 1050 364 1064 q 328 1014 338 1036 q 312 964 319 992 q 306 908 306 936 q 311 812 306 868 q 317 721 317 757 q 275 557 317 618 q 160 497 234 497 q 166 488 158 495 q 185 469 173 480 q 227 413 214 441 q 240 327 240 384 q 239 296 240 309 q 237 272 239 283 q 232 250 235 261 q 224 222 229 239 q 199 126 206 162 q 191 57 191 90 q 193 24 191 34 q 201 3 194 13 l 211 -13 l 252 -11 l 265 -11 q 292 -18 292 -11 q 291 -22 292 -18 q 280 -31 289 -26 q 252 -40 271 -36 q 201 -44 234 -44 q 82 -19 118 -44 q 46 87 46 7 q 55 150 46 113 q 74 231 64 188 q 94 318 85 275 q 103 399 103 361 q 91 461 103 440 q 65 492 78 482 q 38 506 51 502 q 26 518 26 510 q 43 529 26 521 q 83 551 60 536 q 127 587 105 565 q 163 637 150 608 q 169 655 167 647 q 172 679 172 663 q 174 722 173 694 q 175 799 175 750 q 177 909 175 873 q 183 959 180 946 q 241 1057 198 1018 q 333 1096 284 1096 z "},"}":{"ha":493,"x_min":36,"x_max":467,"o":"m 426 557 q 461 540 454 544 q 467 528 467 536 q 464 520 467 523 q 448 516 461 518 q 395 494 418 510 q 354 451 371 479 q 327 378 337 423 q 317 268 317 333 l 317 185 q 273 7 317 64 q 162 -49 229 -49 q 117 -44 139 -49 q 77 -32 95 -39 q 47 -16 59 -25 q 36 -2 36 -8 q 52 7 36 7 q 90 -5 69 7 q 118 -16 111 -16 q 145 -2 132 -16 q 167 33 158 11 q 182 84 176 56 q 188 142 188 113 q 181 242 188 185 q 175 342 175 299 q 181 409 175 377 q 201 467 186 441 q 243 514 216 493 q 312 546 270 534 q 328 550 320 547 q 335 554 335 552 q 331 558 335 556 q 324 564 327 560 q 253 722 253 605 q 256 775 253 758 q 268 824 258 792 q 284 880 278 856 q 295 922 291 904 q 301 957 299 941 q 302 989 302 972 q 300 1025 302 1013 q 292 1046 297 1036 l 283 1060 l 242 1059 q 208 1059 216 1057 q 201 1064 201 1060 q 203 1070 201 1065 q 216 1080 206 1075 q 246 1088 225 1085 q 302 1092 266 1092 q 413 1062 377 1092 q 448 964 448 1033 q 439 899 448 940 q 419 813 430 858 q 400 724 408 768 q 391 649 391 680 q 397 585 391 603 q 426 557 404 567 z "},"":{"ha":605,"x_min":33,"x_max":596,"o":"m 407 972 q 435 927 426 958 q 435 876 444 897 q 426 867 430 863 q 422 891 422 871 q 416 927 422 910 q 402 949 410 944 q 374 944 394 954 q 338 917 355 935 q 303 864 320 897 q 278 799 286 832 q 267 729 266 765 q 279 678 268 693 q 338 676 301 650 q 355 693 345 681 q 376 717 366 704 q 394 740 386 729 q 405 757 402 752 q 413 757 405 765 q 415 746 417 753 q 400 716 413 739 q 275 642 342 605 q 242 666 257 650 q 217 701 227 681 q 207 729 209 716 q 203 766 204 742 q 257 928 198 864 q 313 971 279 956 q 374 984 346 985 q 407 972 394 982 m 392 1051 q 477 1011 436 1041 q 538 943 518 980 q 538 706 596 833 q 410 575 495 619 q 227 544 325 531 q 108 596 157 556 q 41 699 59 637 q 33 775 33 730 q 42 848 33 820 q 113 963 62 913 q 234 1039 163 1013 q 279 1051 252 1047 q 335 1054 307 1054 q 392 1051 368 1056 m 503 712 q 535 833 534 771 q 505 943 536 895 q 449 1001 482 980 q 369 1029 417 1021 l 351 1029 q 282 1011 320 1029 q 214 959 243 992 q 154 868 175 918 q 133 770 134 819 q 152 676 132 721 q 211 603 172 632 q 266 577 239 583 q 328 577 292 570 q 427 625 377 587 q 503 712 477 663 z "},"":{"ha":598,"x_min":29,"x_max":536,"o":"m 386 685 q 408 667 408 675 q 386 663 408 660 q 291 727 325 672 q 279 743 281 745 q 270 708 276 740 q 253 663 261 680 q 234 647 245 647 q 216 655 221 647 q 208 667 209 658 q 206 708 206 676 q 211 757 208 734 q 224 817 214 779 q 237 866 230 845 q 245 892 243 887 q 248 904 252 904 q 229 897 243 905 q 212 894 212 884 q 243 926 212 912 q 306 941 275 940 q 332 938 324 941 q 380 904 359 930 q 400 851 400 877 q 395 824 400 838 q 379 797 389 810 q 358 774 369 784 q 335 760 346 763 q 321 755 327 757 q 314 752 315 753 q 318 741 310 750 q 337 721 325 732 q 364 700 350 711 q 386 685 377 690 m 309 791 q 324 806 315 796 q 335 827 332 817 q 346 886 353 859 q 314 917 340 912 q 299 918 307 918 q 297 905 286 918 q 297 827 314 889 q 288 782 286 788 q 309 791 291 776 m 402 1025 q 480 966 449 1005 q 524 877 511 926 q 528 773 536 827 q 489 672 520 719 q 431 606 464 634 q 360 562 399 578 q 282 542 322 546 q 204 549 242 539 q 158 565 175 557 q 119 590 142 574 q 52 673 75 623 q 29 786 29 724 q 47 878 29 835 q 94 956 64 922 q 166 1012 124 990 q 257 1041 208 1034 q 274 1042 265 1042 q 292 1042 283 1042 q 350 1038 320 1042 q 402 1025 381 1033 m 464 708 q 488 770 482 743 q 493 835 493 797 q 468 937 493 892 q 399 1005 443 982 q 372 1014 387 1011 q 338 1016 356 1016 q 307 1013 324 1016 q 278 1002 291 1010 q 223 962 253 990 q 173 904 193 933 q 129 791 141 855 q 132 681 118 727 q 296 574 175 559 q 351 590 324 577 q 415 638 384 605 q 464 708 446 672 z "},"":{"ha":786,"x_min":28,"x_max":750,"o":"m 418 972 q 386 967 408 969 q 340 964 363 964 l 286 959 l 281 930 q 239 708 255 779 q 219 627 224 636 q 196 616 209 616 q 165 635 178 616 q 152 683 152 654 q 161 743 152 699 q 181 836 170 788 q 202 923 193 884 q 211 969 211 962 q 196 971 211 971 q 141 967 175 972 q 93 959 108 962 q 51 938 67 953 q 29 923 34 923 q 28 928 28 925 l 28 940 q 31 957 28 949 q 44 975 34 964 q 75 1002 59 992 q 118 1017 92 1011 q 189 1025 145 1023 q 301 1029 232 1028 q 394 1030 359 1029 q 445 1033 428 1031 q 467 1037 462 1034 q 471 1041 471 1039 q 472 1043 472 1042 q 482 1044 472 1044 q 492 1038 492 1044 q 470 1001 492 1020 q 418 972 448 982 m 722 1038 q 743 1013 735 1033 q 750 974 750 993 q 740 911 750 958 q 718 813 730 864 q 696 718 706 761 q 686 667 686 675 q 697 625 686 641 q 708 605 708 609 q 696 601 708 601 q 642 632 670 601 q 614 717 614 662 q 618 768 614 739 q 630 829 623 797 q 647 892 637 861 q 668 948 657 923 l 683 977 l 668 964 q 650 943 660 958 q 627 909 639 928 q 603 871 614 891 q 583 837 592 851 q 565 793 574 817 q 547 749 556 770 q 529 714 538 729 q 511 699 521 699 q 493 710 505 699 q 480 753 480 721 q 489 818 480 781 q 511 902 497 855 q 525 949 525 941 l 525 951 q 513 934 523 951 q 490 895 503 917 q 464 849 477 873 q 446 814 451 825 q 429 770 438 799 q 413 717 420 742 q 390 640 400 662 q 366 618 379 618 q 340 630 348 618 q 332 662 332 642 q 336 698 333 676 q 346 747 338 719 q 376 885 371 838 q 387 931 381 931 q 423 877 413 931 l 428 851 l 436 868 q 484 952 462 920 q 520 1002 505 984 q 545 1025 536 1020 q 556 1031 554 1031 q 579 1014 572 1031 q 589 975 587 997 q 591 935 592 954 q 590 915 590 917 q 631 961 613 938 q 663 1002 649 984 q 690 1033 678 1021 q 711 1044 701 1044 q 722 1038 716 1044 z "},"`":{"ha":193,"x_min":36,"x_max":160,"o":"m 74 825 q 111 817 100 825 q 141 768 123 809 q 160 709 160 721 q 151 695 160 699 q 136 691 142 691 q 118 705 134 691 q 84 737 103 719 q 51 775 65 755 q 36 807 36 794 q 74 825 36 825 z "},"":{"ha":196,"x_min":29,"x_max":170,"o":"m 109 822 q 138 821 123 825 q 162 809 154 817 q 166 795 170 801 q 134 758 162 789 q 102 725 118 740 q 83 706 87 709 q 38 703 60 686 q 30 711 29 708 q 39 729 31 714 q 79 790 57 761 q 109 822 101 819 z "},"":{"ha":266,"x_min":34,"x_max":224,"o":"m 203 807 q 219 792 214 804 q 224 766 224 781 q 209 717 224 737 q 172 696 194 696 q 136 708 152 696 q 110 735 121 721 q 92 762 100 750 q 83 775 85 775 q 75 764 78 775 q 69 741 72 753 q 62 719 65 729 q 54 709 59 709 q 40 719 46 709 q 34 740 34 729 q 48 785 34 763 q 85 807 62 807 q 137 791 119 807 q 181 737 155 775 q 189 748 186 737 q 192 772 191 758 q 194 797 193 786 q 199 807 194 807 l 203 807 l 203 807 z "},"":{"ha":289,"x_min":31,"x_max":260,"o":"m 82 797 q 113 784 100 797 q 126 753 126 771 q 112 720 126 730 q 78 709 98 709 q 47 724 64 709 q 31 750 31 739 q 45 783 31 768 q 82 797 59 797 m 219 796 q 248 783 235 794 q 260 757 260 773 q 244 723 260 737 q 212 709 229 709 q 184 725 198 709 q 170 755 170 740 q 181 783 170 770 q 219 796 193 796 z "},"":{"ha":273,"x_min":34,"x_max":245,"o":"m 165 817 q 184 798 170 814 q 211 766 198 783 q 234 733 224 748 q 245 716 245 717 q 233 700 245 706 q 203 694 221 694 q 180 697 188 694 q 167 706 172 699 q 157 723 162 712 q 142 752 152 734 l 124 784 l 95 747 q 68 710 75 721 q 52 701 60 699 q 40 704 46 701 q 34 712 34 708 q 45 733 34 714 q 72 772 56 752 q 107 810 88 792 q 141 827 126 827 q 165 817 152 827 z "},"":{"ha":194,"x_min":29,"x_max":165,"o":"m 116 840 q 146 819 134 835 q 162 786 158 804 q 161 748 165 768 q 145 716 157 729 q 90 698 127 690 q 44 730 64 704 q 38 742 39 737 q 33 760 36 747 q 29 781 29 776 q 33 794 29 786 q 47 819 38 807 q 67 837 57 832 q 96 843 78 843 q 116 840 106 843 m 137 752 q 141 779 142 765 q 131 801 139 792 q 116 809 124 809 q 106 807 111 809 q 90 791 96 802 q 81 766 83 779 q 82 741 78 753 q 93 722 85 729 q 113 722 100 717 q 137 752 131 732 z "},"":{"ha":224,"x_min":28,"x_max":194,"o":"m 98 -33 q 137 -36 118 -31 q 168 -54 157 -41 q 188 -89 181 -72 q 181 -132 194 -106 q 150 -165 173 -150 q 92 -173 126 -180 q 31 -127 49 -165 q 32 -114 28 -123 q 39 -108 36 -105 q 88 -134 60 -129 q 124 -119 113 -137 q 118 -78 136 -101 q 96 -69 109 -69 q 64 -75 82 -70 q 45 -65 54 -77 q 39 -44 36 -52 q 59 -9 47 -28 q 87 28 70 10 q 98 33 90 31 q 114 33 106 34 q 126 29 121 33 q 129 21 131 26 q 114 -7 121 7 q 98 -33 106 -20 z "},"":{"ha":271,"x_min":26,"x_max":240,"o":"m 106 716 q 87 734 101 719 q 60 767 74 750 q 37 799 47 784 q 26 817 26 814 q 38 833 26 827 q 69 838 51 838 q 93 836 87 838 q 103 827 100 833 q 114 810 106 824 q 129 781 121 796 l 147 748 l 176 786 q 208 826 199 819 q 227 830 216 833 q 234 813 240 827 q 196 757 229 799 q 106 716 142 685 z "},"":{"ha":574,"x_min":-60,"x_max":626,"o":"m 626 513 q 615 460 626 505 q 588 359 605 415 q 554 245 572 302 q 520 154 536 188 q 448 33 479 67 q 371 0 417 0 q 279 34 315 0 q 229 126 242 69 l 222 154 l 206 108 q 181 56 193 78 q 157 20 170 34 q 127 0 144 7 q 90 -7 111 -7 q -19 51 23 -7 q -60 206 -60 108 q -40 365 -60 289 q 17 498 -20 441 q 104 590 54 556 q 212 624 154 624 q 258 612 234 624 q 301 588 283 600 l 319 577 l 338 593 q 369 609 355 609 q 400 604 384 609 q 427 589 415 598 q 448 570 440 580 q 456 551 456 560 q 450 514 456 547 q 435 438 444 480 q 412 336 420 376 q 399 269 404 296 q 392 221 394 242 q 391 178 391 201 q 395 121 391 132 q 404 109 400 109 q 463 196 418 109 q 567 451 508 283 q 582 491 577 477 q 591 511 587 505 q 599 520 595 518 q 609 521 603 521 q 626 513 624 521 m 239 338 q 262 435 253 384 q 271 520 271 487 q 260 557 271 557 q 213 517 242 557 q 158 417 185 477 q 111 285 131 356 q 92 152 92 214 q 97 113 92 121 q 111 105 103 105 q 137 128 121 105 q 172 187 154 152 q 208 263 190 222 q 239 338 225 304 m 265 825 q 302 817 291 825 q 332 768 314 809 q 351 709 351 721 q 342 695 351 699 q 327 691 333 691 q 310 705 325 691 q 275 737 294 719 q 242 775 257 755 q 227 807 227 794 q 265 825 227 825 z "},"":{"ha":574,"x_min":-60,"x_max":626,"o":"m 626 513 q 615 460 626 505 q 588 359 605 415 q 554 245 572 302 q 520 154 536 188 q 448 33 479 67 q 371 0 417 0 q 279 34 315 0 q 229 126 242 69 l 222 154 l 206 108 q 181 56 193 78 q 157 20 170 34 q 127 0 144 7 q 90 -7 111 -7 q -19 51 23 -7 q -60 206 -60 108 q -40 365 -60 289 q 17 498 -20 441 q 104 590 54 556 q 212 624 154 624 q 258 612 234 624 q 301 588 283 600 l 319 577 l 338 593 q 369 609 355 609 q 400 604 384 609 q 427 589 415 598 q 448 570 440 580 q 456 551 456 560 q 450 514 456 547 q 435 438 444 480 q 412 336 420 376 q 399 269 404 296 q 392 221 394 242 q 391 178 391 201 q 395 121 391 132 q 404 109 400 109 q 463 196 418 109 q 567 451 508 283 q 582 491 577 477 q 591 511 587 505 q 599 520 595 518 q 609 521 603 521 q 626 513 624 521 m 239 338 q 262 435 253 384 q 271 520 271 487 q 260 557 271 557 q 213 517 242 557 q 158 417 185 477 q 111 285 131 356 q 92 152 92 214 q 97 113 92 121 q 111 105 103 105 q 137 128 121 105 q 172 187 154 152 q 208 263 190 222 q 239 338 225 304 m 296 822 q 324 821 309 825 q 348 809 340 817 q 352 795 356 801 q 320 758 348 789 q 288 725 304 740 q 270 706 273 709 q 224 703 247 686 q 217 711 216 708 q 225 729 217 714 q 266 790 243 761 q 296 822 288 819 z "},"":{"ha":574,"x_min":-60,"x_max":626,"o":"m 626 513 q 615 460 626 505 q 588 359 605 415 q 554 245 572 302 q 520 154 536 188 q 448 33 479 67 q 371 0 417 0 q 279 34 315 0 q 229 126 242 69 l 222 154 l 206 108 q 181 56 193 78 q 157 20 170 34 q 127 0 144 7 q 90 -7 111 -7 q -19 51 23 -7 q -60 206 -60 108 q -40 365 -60 289 q 17 498 -20 441 q 104 590 54 556 q 212 624 154 624 q 258 612 234 624 q 301 588 283 600 l 319 577 l 338 593 q 369 609 355 609 q 400 604 384 609 q 427 589 415 598 q 448 570 440 580 q 456 551 456 560 q 450 514 456 547 q 435 438 444 480 q 412 336 420 376 q 399 269 404 296 q 392 221 394 242 q 391 178 391 201 q 395 121 391 132 q 404 109 400 109 q 463 196 418 109 q 567 451 508 283 q 582 491 577 477 q 591 511 587 505 q 599 520 595 518 q 609 521 603 521 q 626 513 624 521 m 239 338 q 262 435 253 384 q 271 520 271 487 q 260 557 271 557 q 213 517 242 557 q 158 417 185 477 q 111 285 131 356 q 92 152 92 214 q 97 113 92 121 q 111 105 103 105 q 137 128 121 105 q 172 187 154 152 q 208 263 190 222 q 239 338 225 304 m 315 817 q 334 798 320 814 q 361 766 348 783 q 385 733 374 748 q 395 716 395 717 q 383 700 395 706 q 353 694 371 694 q 330 697 338 694 q 317 706 322 699 q 307 723 312 712 q 292 752 302 734 l 275 784 l 245 747 q 218 710 225 721 q 203 701 211 699 q 190 704 196 701 q 185 712 185 708 q 195 733 185 714 q 222 772 206 752 q 257 810 239 792 q 291 827 276 827 q 315 817 302 827 z "},"":{"ha":574,"x_min":-60,"x_max":626,"o":"m 626 513 q 615 460 626 505 q 588 359 605 415 q 554 245 572 302 q 520 154 536 188 q 448 33 479 67 q 371 0 417 0 q 279 34 315 0 q 229 126 242 69 l 222 154 l 206 108 q 181 56 193 78 q 157 20 170 34 q 127 0 144 7 q 90 -7 111 -7 q -19 51 23 -7 q -60 206 -60 108 q -40 365 -60 289 q 17 498 -20 441 q 104 590 54 556 q 212 624 154 624 q 258 612 234 624 q 301 588 283 600 l 319 577 l 338 593 q 369 609 355 609 q 400 604 384 609 q 427 589 415 598 q 448 570 440 580 q 456 551 456 560 q 450 514 456 547 q 435 438 444 480 q 412 336 420 376 q 399 269 404 296 q 392 221 394 242 q 391 178 391 201 q 395 121 391 132 q 404 109 400 109 q 463 196 418 109 q 567 451 508 283 q 582 491 577 477 q 591 511 587 505 q 599 520 595 518 q 609 521 603 521 q 626 513 624 521 m 239 338 q 262 435 253 384 q 271 520 271 487 q 260 557 271 557 q 213 517 242 557 q 158 417 185 477 q 111 285 131 356 q 92 152 92 214 q 97 113 92 121 q 111 105 103 105 q 137 128 121 105 q 172 187 154 152 q 208 263 190 222 q 239 338 225 304 m 356 807 q 373 792 368 804 q 377 766 377 781 q 363 717 377 737 q 325 696 348 696 q 290 708 306 696 q 264 735 275 721 q 246 762 253 750 q 237 775 239 775 q 229 764 232 775 q 222 741 225 753 q 216 719 219 729 q 208 709 212 709 q 194 719 199 709 q 188 740 188 729 q 202 785 188 763 q 239 807 216 807 q 291 791 273 807 q 335 737 309 775 q 342 748 340 737 q 346 772 345 758 q 347 797 346 786 q 353 807 348 807 l 356 807 l 356 807 z "},"":{"ha":574,"x_min":-60,"x_max":626,"o":"m 626 513 q 615 460 626 505 q 588 359 605 415 q 554 245 572 302 q 520 154 536 188 q 448 33 479 67 q 371 0 417 0 q 279 34 315 0 q 229 126 242 69 l 222 154 l 206 108 q 181 56 193 78 q 157 20 170 34 q 127 0 144 7 q 90 -7 111 -7 q -19 51 23 -7 q -60 206 -60 108 q -40 365 -60 289 q 17 498 -20 441 q 104 590 54 556 q 212 624 154 624 q 258 612 234 624 q 301 588 283 600 l 319 577 l 338 593 q 369 609 355 609 q 400 604 384 609 q 427 589 415 598 q 448 570 440 580 q 456 551 456 560 q 450 514 456 547 q 435 438 444 480 q 412 336 420 376 q 399 269 404 296 q 392 221 394 242 q 391 178 391 201 q 395 121 391 132 q 404 109 400 109 q 463 196 418 109 q 567 451 508 283 q 582 491 577 477 q 591 511 587 505 q 599 520 595 518 q 609 521 603 521 q 626 513 624 521 m 239 338 q 262 435 253 384 q 271 520 271 487 q 260 557 271 557 q 213 517 242 557 q 158 417 185 477 q 111 285 131 356 q 92 152 92 214 q 97 113 92 121 q 111 105 103 105 q 137 128 121 105 q 172 187 154 152 q 208 263 190 222 q 239 338 225 304 m 224 797 q 255 784 242 797 q 268 753 268 771 q 254 720 268 730 q 221 709 240 709 q 190 724 206 709 q 173 750 173 739 q 187 783 173 768 q 224 797 201 797 m 361 796 q 390 783 377 794 q 402 757 402 773 q 386 723 402 737 q 355 709 371 709 q 326 725 340 709 q 312 755 312 740 q 324 783 312 770 q 361 796 335 796 z "},"":{"ha":574,"x_min":-60,"x_max":626,"o":"m 626 513 q 615 460 626 505 q 588 359 605 415 q 554 245 572 302 q 520 154 536 188 q 448 33 479 67 q 371 0 417 0 q 279 34 315 0 q 229 126 242 69 l 222 154 l 206 108 q 181 56 193 78 q 157 20 170 34 q 127 0 144 7 q 90 -7 111 -7 q -19 51 23 -7 q -60 206 -60 108 q -40 365 -60 289 q 17 498 -20 441 q 104 590 54 556 q 212 624 154 624 q 258 612 234 624 q 301 588 283 600 l 319 577 l 338 593 q 369 609 355 609 q 400 604 384 609 q 427 589 415 598 q 448 570 440 580 q 456 551 456 560 q 450 514 456 547 q 435 438 444 480 q 412 336 420 376 q 399 269 404 296 q 392 221 394 242 q 391 178 391 201 q 395 121 391 132 q 404 109 400 109 q 463 196 418 109 q 567 451 508 283 q 582 491 577 477 q 591 511 587 505 q 599 520 595 518 q 609 521 603 521 q 626 513 624 521 m 239 338 q 262 435 253 384 q 271 520 271 487 q 260 557 271 557 q 213 517 242 557 q 158 417 185 477 q 111 285 131 356 q 92 152 92 214 q 97 113 92 121 q 111 105 103 105 q 137 128 121 105 q 172 187 154 152 q 208 263 190 222 q 239 338 225 304 m 306 840 q 336 819 324 835 q 351 786 348 804 q 350 748 355 768 q 335 716 346 729 q 279 698 317 690 q 234 730 253 704 q 227 742 229 737 q 222 760 225 747 q 219 781 219 776 q 222 794 219 786 q 237 819 227 807 q 257 837 247 832 q 286 843 268 843 q 306 840 296 843 m 327 752 q 330 779 332 765 q 320 801 328 792 q 306 809 314 809 q 296 807 301 809 q 279 791 286 802 q 270 766 273 779 q 271 741 268 753 q 283 722 275 729 q 302 722 289 717 q 327 752 320 732 z "},"":{"ha":734,"x_min":-60,"x_max":778,"o":"m 402 5 q 404 2 399 3 q 416 -2 408 0 q 429 -5 423 -3 q 430 -7 435 -7 q 373 4 402 -7 q 316 33 343 15 q 270 77 289 52 q 243 129 250 101 l 237 157 l 206 108 q 181 56 193 78 q 157 20 170 34 q 127 0 144 7 q 90 -7 111 -7 q -19 51 23 -7 q -60 206 -60 108 q -25 412 -60 322 q 70 564 10 502 q 136 613 106 601 q 212 624 165 624 q 258 612 234 624 q 301 588 283 600 l 319 577 l 338 593 q 369 609 355 609 q 400 604 384 609 q 427 589 415 598 q 448 570 440 580 q 456 551 456 560 q 450 514 456 547 q 435 438 444 480 q 412 336 420 376 q 399 269 404 296 q 392 221 394 242 q 391 178 391 201 q 393 133 391 147 q 399 114 395 119 q 407 111 402 108 q 410 110 408 111 q 412 100 412 109 q 409 69 412 92 q 402 5 407 47 m 239 338 q 262 435 253 384 q 271 520 271 487 q 260 557 271 557 q 213 517 242 557 q 158 417 185 477 q 111 285 131 356 q 92 152 92 214 q 97 113 92 121 q 111 105 103 105 q 137 128 121 105 q 172 187 154 152 q 208 263 190 222 q 239 338 225 304 m 577 62 q 506 9 538 25 q 435 -7 474 -7 q 344 11 382 -7 q 280 61 306 29 q 242 137 255 93 q 229 232 229 181 q 249 366 229 296 q 306 495 270 436 q 394 593 343 554 q 503 632 444 632 q 584 592 552 632 q 616 498 616 552 q 601 411 616 451 q 562 342 587 371 q 507 295 538 312 q 441 278 475 278 l 413 276 l 408 242 q 404 212 405 224 q 404 186 402 199 q 421 110 404 134 q 461 87 438 87 q 508 103 482 87 q 562 146 534 119 q 615 209 590 173 q 660 286 641 245 q 691 357 675 317 q 721 433 708 397 q 746 493 735 469 q 763 516 757 516 q 778 489 778 516 q 759 398 778 456 q 712 276 740 340 q 647 154 683 212 q 577 62 611 95 m 438 395 q 426 343 426 356 q 431 333 426 333 q 479 355 458 333 q 516 407 500 376 q 540 472 531 438 q 549 533 549 507 q 538 572 549 572 q 488 525 515 572 q 438 395 461 479 z "},"":{"ha":449,"x_min":-56,"x_max":495,"o":"m 268 431 q 261 438 263 435 q 260 449 260 441 q 263 488 260 458 q 266 536 266 518 q 253 577 266 577 q 208 537 232 577 q 164 437 185 497 q 131 309 144 377 q 118 183 118 240 q 137 111 118 131 q 176 92 157 92 q 224 108 198 92 q 278 151 250 124 q 331 214 306 178 q 376 289 356 250 q 407 363 391 322 q 436 439 423 404 q 461 498 449 474 q 477 521 472 521 q 493 493 493 521 q 470 384 495 456 q 405 232 444 312 q 281 54 345 109 q 150 -2 217 -2 q -4 65 47 -2 q -56 247 -56 132 q -32 385 -56 315 q 30 511 -8 454 q 117 602 69 567 q 214 637 165 637 q 297 600 265 637 q 330 507 330 564 q 319 440 330 458 q 294 423 307 423 q 268 431 279 423 m 96 -16 q 136 -20 116 -15 q 167 -38 155 -25 q 186 -73 180 -56 q 180 -116 193 -90 q 148 -149 172 -134 q 90 -157 124 -163 q 29 -111 47 -149 q 30 -97 26 -106 q 38 -92 34 -88 q 87 -118 59 -113 q 123 -103 111 -121 q 116 -62 134 -85 q 94 -53 108 -52 q 62 -59 80 -54 q 43 -48 52 -60 q 38 -28 34 -36 q 57 7 46 -11 q 85 44 69 26 q 96 49 88 47 q 112 50 105 51 q 124 46 119 49 q 127 38 129 42 q 112 10 119 23 q 96 -16 105 -3 z "},"":{"ha":444,"x_min":-62,"x_max":487,"o":"m 286 62 q 215 9 247 25 q 144 -7 183 -7 q 53 11 92 -7 q -11 61 15 29 q -49 137 -36 93 q -62 232 -62 181 q -42 366 -62 296 q 16 495 -21 436 q 103 593 52 554 q 212 632 154 632 q 293 592 261 632 q 325 498 325 552 q 310 411 325 451 q 271 342 296 371 q 216 295 247 312 q 150 278 185 278 l 123 276 l 118 242 q 113 212 114 224 q 113 186 111 199 q 130 110 113 134 q 170 87 147 87 q 217 103 191 87 q 271 146 243 119 q 324 209 299 173 q 369 286 350 245 q 400 357 384 317 q 431 433 417 397 q 455 493 444 469 q 472 516 466 516 q 487 489 487 516 q 468 398 487 456 q 421 276 449 340 q 356 154 392 212 q 286 62 320 95 m 147 395 q 136 343 136 356 q 141 333 136 333 q 188 355 167 333 q 225 407 209 376 q 249 472 240 438 q 258 533 258 507 q 247 572 258 572 q 197 525 224 572 q 147 395 170 479 m 201 825 q 239 817 227 825 q 268 768 250 809 q 288 709 288 721 q 279 695 288 699 q 263 691 270 691 q 246 705 261 691 q 212 737 230 719 q 178 775 193 755 q 163 807 163 794 q 201 825 163 825 z "},"":{"ha":444,"x_min":-62,"x_max":487,"o":"m 286 62 q 215 9 247 25 q 144 -7 183 -7 q 53 11 92 -7 q -11 61 15 29 q -49 137 -36 93 q -62 232 -62 181 q -42 366 -62 296 q 16 495 -21 436 q 103 593 52 554 q 212 632 154 632 q 293 592 261 632 q 325 498 325 552 q 310 411 325 451 q 271 342 296 371 q 216 295 247 312 q 150 278 185 278 l 123 276 l 118 242 q 113 212 114 224 q 113 186 111 199 q 130 110 113 134 q 170 87 147 87 q 217 103 191 87 q 271 146 243 119 q 324 209 299 173 q 369 286 350 245 q 400 357 384 317 q 431 433 417 397 q 455 493 444 469 q 472 516 466 516 q 487 489 487 516 q 468 398 487 456 q 421 276 449 340 q 356 154 392 212 q 286 62 320 95 m 147 395 q 136 343 136 356 q 141 333 136 333 q 188 355 167 333 q 225 407 209 376 q 249 472 240 438 q 258 533 258 507 q 247 572 258 572 q 197 525 224 572 q 147 395 170 479 m 232 822 q 261 821 245 825 q 284 809 276 817 q 288 795 292 801 q 257 758 284 789 q 225 725 240 740 q 206 706 209 709 q 160 703 183 686 q 153 711 152 708 q 162 729 154 714 q 202 790 180 761 q 232 822 224 819 z "},"":{"ha":444,"x_min":-62,"x_max":487,"o":"m 286 62 q 215 9 247 25 q 144 -7 183 -7 q 53 11 92 -7 q -11 61 15 29 q -49 137 -36 93 q -62 232 -62 181 q -42 366 -62 296 q 16 495 -21 436 q 103 593 52 554 q 212 632 154 632 q 293 592 261 632 q 325 498 325 552 q 310 411 325 451 q 271 342 296 371 q 216 295 247 312 q 150 278 185 278 l 123 276 l 118 242 q 113 212 114 224 q 113 186 111 199 q 130 110 113 134 q 170 87 147 87 q 217 103 191 87 q 271 146 243 119 q 324 209 299 173 q 369 286 350 245 q 400 357 384 317 q 431 433 417 397 q 455 493 444 469 q 472 516 466 516 q 487 489 487 516 q 468 398 487 456 q 421 276 449 340 q 356 154 392 212 q 286 62 320 95 m 147 395 q 136 343 136 356 q 141 333 136 333 q 188 355 167 333 q 225 407 209 376 q 249 472 240 438 q 258 533 258 507 q 247 572 258 572 q 197 525 224 572 q 147 395 170 479 m 252 817 q 270 798 257 814 q 297 766 284 783 q 321 733 310 748 q 332 716 332 717 q 319 700 332 706 q 289 694 307 694 q 266 697 275 694 q 253 706 258 699 q 243 723 248 712 q 229 752 239 734 l 211 784 l 181 747 q 154 710 162 721 q 139 701 147 699 q 127 704 132 701 q 121 712 121 708 q 132 733 121 714 q 158 772 142 752 q 194 810 175 792 q 227 827 212 827 q 252 817 239 827 z "},"":{"ha":444,"x_min":-62,"x_max":487,"o":"m 286 62 q 215 9 247 25 q 144 -7 183 -7 q 53 11 92 -7 q -11 61 15 29 q -49 137 -36 93 q -62 232 -62 181 q -42 366 -62 296 q 16 495 -21 436 q 103 593 52 554 q 212 632 154 632 q 293 592 261 632 q 325 498 325 552 q 310 411 325 451 q 271 342 296 371 q 216 295 247 312 q 150 278 185 278 l 123 276 l 118 242 q 113 212 114 224 q 113 186 111 199 q 130 110 113 134 q 170 87 147 87 q 217 103 191 87 q 271 146 243 119 q 324 209 299 173 q 369 286 350 245 q 400 357 384 317 q 431 433 417 397 q 455 493 444 469 q 472 516 466 516 q 487 489 487 516 q 468 398 487 456 q 421 276 449 340 q 356 154 392 212 q 286 62 320 95 m 147 395 q 136 343 136 356 q 141 333 136 333 q 188 355 167 333 q 225 407 209 376 q 249 472 240 438 q 258 533 258 507 q 247 572 258 572 q 197 525 224 572 q 147 395 170 479 m 158 797 q 190 784 176 797 q 203 753 203 771 q 189 720 203 730 q 155 709 175 709 q 124 724 141 709 q 108 750 108 739 q 122 783 108 768 q 158 797 136 797 m 296 796 q 324 783 312 794 q 337 757 337 773 q 321 723 337 737 q 289 709 306 709 q 261 725 275 709 q 247 755 247 740 q 258 783 247 770 q 296 796 270 796 z "},"":{"ha":294,"x_min":-41,"x_max":342,"o":"m 335 520 q 340 496 342 513 q 328 435 338 479 q 311 375 324 415 q 284 290 299 335 q 255 203 270 245 q 230 139 240 160 q 179 41 208 82 q 131 -8 150 0 q 87 -12 114 -15 q 42 -2 60 -10 q -23 76 -5 21 q -34 239 -41 131 q -9 427 -28 337 q 34 574 10 518 q 55 606 46 598 q 82 614 64 614 q 123 605 96 614 q 162 583 149 595 q 174 569 172 575 q 176 549 176 564 q 170 477 176 529 q 145 319 163 425 q 134 233 139 275 q 129 176 129 191 q 133 129 129 149 q 142 109 137 109 q 161 122 150 109 q 183 154 172 134 q 206 203 191 168 q 237 284 221 239 q 270 381 253 330 q 301 475 288 431 q 335 520 319 539 m 126 825 q 163 817 152 825 q 193 768 175 809 q 212 709 212 721 q 203 695 212 699 q 188 691 194 691 q 171 705 186 691 q 136 737 155 719 q 103 775 118 755 q 88 807 88 794 q 126 825 88 825 z "},"":{"ha":294,"x_min":-41,"x_max":342,"o":"m 335 520 q 340 496 342 513 q 328 435 338 479 q 311 375 324 415 q 284 290 299 335 q 255 203 270 245 q 230 139 240 160 q 179 41 208 82 q 131 -8 150 0 q 87 -12 114 -15 q 42 -2 60 -10 q -23 76 -5 21 q -34 239 -41 131 q -9 427 -28 337 q 34 574 10 518 q 55 606 46 598 q 82 614 64 614 q 123 605 96 614 q 162 583 149 595 q 174 569 172 575 q 176 549 176 564 q 170 477 176 529 q 145 319 163 425 q 134 233 139 275 q 129 176 129 191 q 133 129 129 149 q 142 109 137 109 q 161 122 150 109 q 183 154 172 134 q 206 203 191 168 q 237 284 221 239 q 270 381 253 330 q 301 475 288 431 q 335 520 319 539 m 157 822 q 185 821 170 825 q 209 809 201 817 q 213 795 217 801 q 181 758 209 789 q 150 725 165 740 q 131 706 134 709 q 85 703 108 686 q 78 711 77 708 q 87 729 78 714 q 127 790 105 761 q 157 822 149 819 z "},"":{"ha":294,"x_min":-41,"x_max":342,"o":"m 335 520 q 340 496 342 513 q 328 435 338 479 q 311 375 324 415 q 284 290 299 335 q 255 203 270 245 q 230 139 240 160 q 179 41 208 82 q 131 -8 150 0 q 87 -12 114 -15 q 42 -2 60 -10 q -23 76 -5 21 q -34 239 -41 131 q -9 427 -28 337 q 34 574 10 518 q 55 606 46 598 q 82 614 64 614 q 123 605 96 614 q 162 583 149 595 q 174 569 172 575 q 176 549 176 564 q 170 477 176 529 q 145 319 163 425 q 134 233 139 275 q 129 176 129 191 q 133 129 129 149 q 142 109 137 109 q 161 122 150 109 q 183 154 172 134 q 206 203 191 168 q 237 284 221 239 q 270 381 253 330 q 301 475 288 431 q 335 520 319 539 m 176 817 q 195 798 181 814 q 222 766 209 783 q 246 733 235 748 q 257 716 257 717 q 244 700 257 706 q 214 694 232 694 q 191 697 199 694 q 178 706 183 699 q 168 723 173 712 q 154 752 163 734 l 136 784 l 106 747 q 79 710 87 721 q 64 701 72 699 q 51 704 57 701 q 46 712 46 708 q 56 733 46 714 q 83 772 67 752 q 118 810 100 792 q 152 827 137 827 q 176 817 163 827 z "},"":{"ha":294,"x_min":-41,"x_max":342,"o":"m 335 520 q 340 496 342 513 q 328 435 338 479 q 311 375 324 415 q 284 290 299 335 q 255 203 270 245 q 230 139 240 160 q 179 41 208 82 q 131 -8 150 0 q 87 -12 114 -15 q 42 -2 60 -10 q -23 76 -5 21 q -34 239 -41 131 q -9 427 -28 337 q 34 574 10 518 q 55 606 46 598 q 82 614 64 614 q 123 605 96 614 q 162 583 149 595 q 174 569 172 575 q 176 549 176 564 q 170 477 176 529 q 145 319 163 425 q 134 233 139 275 q 129 176 129 191 q 133 129 129 149 q 142 109 137 109 q 161 122 150 109 q 183 154 172 134 q 206 203 191 168 q 237 284 221 239 q 270 381 253 330 q 301 475 288 431 q 335 520 319 539 m 83 797 q 114 784 101 797 q 127 753 127 771 q 114 720 127 730 q 80 709 100 709 q 49 724 65 709 q 33 750 33 739 q 47 783 33 768 q 83 797 60 797 m 221 796 q 249 783 237 794 q 261 757 261 773 q 246 723 261 737 q 214 709 230 709 q 185 725 199 709 q 172 755 172 740 q 183 783 172 770 q 221 796 194 796 z "},"":{"ha":583,"x_min":-57,"x_max":637,"o":"m 229 222 q 240 275 230 237 q 262 355 250 312 q 286 440 275 399 q 306 500 297 480 q 314 534 314 528 q 310 541 314 541 q 284 520 302 541 q 243 462 266 498 q 197 378 221 426 q 153 279 173 330 q 118 174 132 227 q 101 74 103 121 q 97 31 100 47 q 88 5 95 15 q 70 -8 82 -5 q 39 -11 59 -11 q 2 -7 20 -11 q -29 11 -16 -2 q -50 47 -42 25 q -57 106 -57 70 q -51 201 -57 149 q -36 307 -46 253 q -14 413 -26 361 q 11 507 -2 466 q 37 574 25 547 q 59 606 49 601 q 83 611 69 611 q 149 592 116 611 q 181 542 181 574 q 179 511 181 528 q 174 480 176 495 q 169 455 172 466 q 167 443 167 444 q 168 440 167 441 q 190 472 172 440 q 272 582 232 549 q 340 614 312 614 q 422 571 392 614 q 451 472 451 528 q 440 398 451 448 q 417 295 430 348 q 395 196 405 242 q 386 132 386 150 q 397 114 386 114 q 426 136 408 114 q 467 195 444 157 q 513 287 489 234 q 562 405 538 340 q 587 470 578 446 q 601 504 596 493 q 610 517 606 515 q 619 520 614 520 q 637 507 637 520 q 611 418 637 490 q 469 95 529 198 q 358 -8 408 -8 q 309 0 333 -8 q 265 27 284 8 q 233 76 245 46 q 221 149 221 106 q 223 185 221 167 q 229 222 225 203 m 361 807 q 377 792 373 804 q 382 766 382 781 q 368 717 382 737 q 330 696 353 696 q 295 708 310 696 q 269 735 279 721 q 251 762 258 750 q 242 775 243 775 q 234 764 237 775 q 227 741 230 753 q 221 719 224 729 q 212 709 217 709 q 199 719 204 709 q 193 740 193 729 q 207 785 193 763 q 243 807 221 807 q 296 791 278 807 q 340 737 314 775 q 347 748 345 737 q 350 772 350 758 q 352 797 351 786 q 358 807 353 807 l 361 807 l 361 807 z "},"":{"ha":459,"x_min":-59,"x_max":507,"o":"m 489 523 q 501 517 495 523 q 507 502 507 511 q 502 475 507 490 q 489 444 497 459 q 475 417 482 430 q 466 400 469 405 q 426 360 448 377 q 387 330 405 343 q 356 308 369 317 q 342 292 343 299 q 339 280 342 294 q 330 243 337 266 q 315 190 324 221 q 291 129 306 160 q 214 24 258 59 q 132 -11 170 -11 q 55 7 90 -11 q -6 60 20 26 q -45 138 -31 93 q -59 237 -59 183 q -39 373 -59 307 q 14 492 -20 440 q 92 578 47 544 q 188 616 137 611 q 266 589 224 616 q 328 525 309 562 q 340 486 335 511 q 349 435 345 461 q 355 391 353 410 q 358 373 358 373 q 387 386 364 373 q 423 417 410 400 q 440 442 430 425 q 460 476 451 459 q 476 507 469 493 q 485 523 484 521 l 489 523 m 243 176 q 257 207 248 186 q 272 248 265 227 q 285 285 279 268 q 291 307 291 302 q 278 319 291 312 q 243 332 260 319 q 213 364 227 345 q 190 408 199 384 q 176 456 180 433 q 165 438 173 456 q 148 395 157 420 q 131 340 139 369 q 118 289 123 310 q 108 204 108 237 q 125 131 108 155 q 163 106 142 106 q 207 123 188 106 q 243 176 225 139 m 304 397 q 301 438 304 413 q 294 485 299 462 q 282 525 289 508 q 265 541 275 541 q 257 532 261 541 q 247 510 252 523 q 239 483 242 497 q 235 459 235 469 q 254 394 235 423 q 296 364 273 364 q 304 397 302 364 m 208 825 q 245 817 234 825 q 275 768 257 809 q 294 709 294 721 q 285 695 294 699 q 270 691 276 691 q 252 705 268 691 q 218 737 237 719 q 185 775 199 755 q 170 807 170 794 q 208 825 170 825 z "},"":{"ha":459,"x_min":-59,"x_max":507,"o":"m 489 523 q 501 517 495 523 q 507 502 507 511 q 502 475 507 490 q 489 444 497 459 q 475 417 482 430 q 466 400 469 405 q 426 360 448 377 q 387 330 405 343 q 356 308 369 317 q 342 292 343 299 q 339 280 342 294 q 330 243 337 266 q 315 190 324 221 q 291 129 306 160 q 214 24 258 59 q 132 -11 170 -11 q 55 7 90 -11 q -6 60 20 26 q -45 138 -31 93 q -59 237 -59 183 q -39 373 -59 307 q 14 492 -20 440 q 92 578 47 544 q 188 616 137 611 q 266 589 224 616 q 328 525 309 562 q 340 486 335 511 q 349 435 345 461 q 355 391 353 410 q 358 373 358 373 q 387 386 364 373 q 423 417 410 400 q 440 442 430 425 q 460 476 451 459 q 476 507 469 493 q 485 523 484 521 l 489 523 m 243 176 q 257 207 248 186 q 272 248 265 227 q 285 285 279 268 q 291 307 291 302 q 278 319 291 312 q 243 332 260 319 q 213 364 227 345 q 190 408 199 384 q 176 456 180 433 q 165 438 173 456 q 148 395 157 420 q 131 340 139 369 q 118 289 123 310 q 108 204 108 237 q 125 131 108 155 q 163 106 142 106 q 207 123 188 106 q 243 176 225 139 m 304 397 q 301 438 304 413 q 294 485 299 462 q 282 525 289 508 q 265 541 275 541 q 257 532 261 541 q 247 510 252 523 q 239 483 242 497 q 235 459 235 469 q 254 394 235 423 q 296 364 273 364 q 304 397 302 364 m 239 822 q 267 821 252 825 q 291 809 283 817 q 295 795 299 801 q 263 758 291 789 q 231 725 247 740 q 212 706 216 709 q 167 703 190 686 q 159 711 158 708 q 168 729 160 714 q 208 790 186 761 q 239 822 230 819 z "},"":{"ha":459,"x_min":-59,"x_max":507,"o":"m 489 523 q 501 517 495 523 q 507 502 507 511 q 502 475 507 490 q 489 444 497 459 q 475 417 482 430 q 466 400 469 405 q 426 360 448 377 q 387 330 405 343 q 356 308 369 317 q 342 292 343 299 q 339 280 342 294 q 330 243 337 266 q 315 190 324 221 q 291 129 306 160 q 214 24 258 59 q 132 -11 170 -11 q 55 7 90 -11 q -6 60 20 26 q -45 138 -31 93 q -59 237 -59 183 q -39 373 -59 307 q 14 492 -20 440 q 92 578 47 544 q 188 616 137 611 q 266 589 224 616 q 328 525 309 562 q 340 486 335 511 q 349 435 345 461 q 355 391 353 410 q 358 373 358 373 q 387 386 364 373 q 423 417 410 400 q 440 442 430 425 q 460 476 451 459 q 476 507 469 493 q 485 523 484 521 l 489 523 m 243 176 q 257 207 248 186 q 272 248 265 227 q 285 285 279 268 q 291 307 291 302 q 278 319 291 312 q 243 332 260 319 q 213 364 227 345 q 190 408 199 384 q 176 456 180 433 q 165 438 173 456 q 148 395 157 420 q 131 340 139 369 q 118 289 123 310 q 108 204 108 237 q 125 131 108 155 q 163 106 142 106 q 207 123 188 106 q 243 176 225 139 m 304 397 q 301 438 304 413 q 294 485 299 462 q 282 525 289 508 q 265 541 275 541 q 257 532 261 541 q 247 510 252 523 q 239 483 242 497 q 235 459 235 469 q 254 394 235 423 q 296 364 273 364 q 304 397 302 364 m 258 817 q 277 798 263 814 q 304 766 291 783 q 328 733 317 748 q 338 716 338 717 q 326 700 338 706 q 296 694 314 694 q 273 697 281 694 q 260 706 265 699 q 250 723 255 712 q 235 752 245 734 l 217 784 l 188 747 q 161 710 168 721 q 145 701 154 699 q 133 704 139 701 q 127 712 127 708 q 138 733 127 714 q 165 772 149 752 q 200 810 181 792 q 234 827 219 827 q 258 817 245 827 z "},"":{"ha":459,"x_min":-59,"x_max":507,"o":"m 489 523 q 501 517 495 523 q 507 502 507 511 q 502 475 507 490 q 489 444 497 459 q 475 417 482 430 q 466 400 469 405 q 426 360 448 377 q 387 330 405 343 q 356 308 369 317 q 342 292 343 299 q 339 280 342 294 q 330 243 337 266 q 315 190 324 221 q 291 129 306 160 q 214 24 258 59 q 132 -11 170 -11 q 55 7 90 -11 q -6 60 20 26 q -45 138 -31 93 q -59 237 -59 183 q -39 373 -59 307 q 14 492 -20 440 q 92 578 47 544 q 188 616 137 611 q 266 589 224 616 q 328 525 309 562 q 340 486 335 511 q 349 435 345 461 q 355 391 353 410 q 358 373 358 373 q 387 386 364 373 q 423 417 410 400 q 440 442 430 425 q 460 476 451 459 q 476 507 469 493 q 485 523 484 521 l 489 523 m 243 176 q 257 207 248 186 q 272 248 265 227 q 285 285 279 268 q 291 307 291 302 q 278 319 291 312 q 243 332 260 319 q 213 364 227 345 q 190 408 199 384 q 176 456 180 433 q 165 438 173 456 q 148 395 157 420 q 131 340 139 369 q 118 289 123 310 q 108 204 108 237 q 125 131 108 155 q 163 106 142 106 q 207 123 188 106 q 243 176 225 139 m 304 397 q 301 438 304 413 q 294 485 299 462 q 282 525 289 508 q 265 541 275 541 q 257 532 261 541 q 247 510 252 523 q 239 483 242 497 q 235 459 235 469 q 254 394 235 423 q 296 364 273 364 q 304 397 302 364 m 299 807 q 315 792 310 804 q 320 766 320 781 q 306 717 320 737 q 268 696 291 696 q 233 708 248 696 q 207 735 217 721 q 189 762 196 750 q 180 775 181 775 q 172 764 175 775 q 165 741 168 753 q 158 719 162 729 q 150 709 155 709 q 136 719 142 709 q 131 740 131 729 q 145 785 131 763 q 181 807 158 807 q 234 791 216 807 q 278 737 252 775 q 285 748 283 737 q 288 772 288 758 q 290 797 289 786 q 296 807 291 807 l 299 807 l 299 807 z "},"":{"ha":459,"x_min":-59,"x_max":507,"o":"m 489 523 q 501 517 495 523 q 507 502 507 511 q 502 475 507 490 q 489 444 497 459 q 475 417 482 430 q 466 400 469 405 q 426 360 448 377 q 387 330 405 343 q 356 308 369 317 q 342 292 343 299 q 339 280 342 294 q 330 243 337 266 q 315 190 324 221 q 291 129 306 160 q 214 24 258 59 q 132 -11 170 -11 q 55 7 90 -11 q -6 60 20 26 q -45 138 -31 93 q -59 237 -59 183 q -39 373 -59 307 q 14 492 -20 440 q 92 578 47 544 q 188 616 137 611 q 266 589 224 616 q 328 525 309 562 q 340 486 335 511 q 349 435 345 461 q 355 391 353 410 q 358 373 358 373 q 387 386 364 373 q 423 417 410 400 q 440 442 430 425 q 460 476 451 459 q 476 507 469 493 q 485 523 484 521 l 489 523 m 243 176 q 257 207 248 186 q 272 248 265 227 q 285 285 279 268 q 291 307 291 302 q 278 319 291 312 q 243 332 260 319 q 213 364 227 345 q 190 408 199 384 q 176 456 180 433 q 165 438 173 456 q 148 395 157 420 q 131 340 139 369 q 118 289 123 310 q 108 204 108 237 q 125 131 108 155 q 163 106 142 106 q 207 123 188 106 q 243 176 225 139 m 304 397 q 301 438 304 413 q 294 485 299 462 q 282 525 289 508 q 265 541 275 541 q 257 532 261 541 q 247 510 252 523 q 239 483 242 497 q 235 459 235 469 q 254 394 235 423 q 296 364 273 364 q 304 397 302 364 m 167 797 q 198 784 185 797 q 211 753 211 771 q 197 720 211 730 q 163 709 183 709 q 132 724 149 709 q 116 750 116 739 q 130 783 116 768 q 167 797 144 797 m 304 796 q 333 783 320 794 q 345 757 345 773 q 329 723 345 737 q 297 709 314 709 q 269 725 283 709 q 255 755 255 740 q 266 783 255 770 q 304 796 278 796 z "},"":{"ha":582,"x_min":-33,"x_max":624,"o":"m 90 0 q -2 51 28 0 q -33 199 -33 103 q -25 308 -33 247 q -5 448 -18 369 q 32 587 13 547 q 83 626 51 626 q 152 614 119 626 q 185 570 185 603 q 182 547 183 560 q 178 513 181 533 q 157 387 165 441 q 144 293 149 333 q 136 226 139 253 q 134 181 134 199 q 162 118 134 118 q 185 139 172 118 q 213 194 199 160 q 239 269 227 227 q 260 351 252 310 q 310 561 286 498 q 364 624 335 624 q 395 620 379 624 q 426 609 412 616 q 451 589 441 601 q 461 562 461 577 q 453 489 461 541 q 430 330 446 438 q 417 244 422 286 q 413 188 413 203 q 417 141 413 160 q 428 121 422 121 q 455 148 438 121 q 493 223 472 175 q 537 338 513 271 q 585 487 560 405 q 611 534 600 534 q 624 515 624 534 q 615 475 624 513 q 591 381 606 436 q 556 262 575 325 q 515 150 536 199 q 453 38 484 77 q 376 0 423 0 q 292 33 325 0 q 252 129 260 67 l 248 155 l 229 118 q 172 32 199 60 q 103 0 145 3 l 90 0 m 270 825 q 307 817 296 825 q 337 768 319 809 q 356 709 356 721 q 347 695 356 699 q 332 691 338 691 q 315 705 330 691 q 280 737 299 719 q 247 775 261 755 q 232 807 232 794 q 270 825 232 825 z "},"":{"ha":582,"x_min":-33,"x_max":624,"o":"m 90 0 q -2 51 28 0 q -33 199 -33 103 q -25 308 -33 247 q -5 448 -18 369 q 32 587 13 547 q 83 626 51 626 q 152 614 119 626 q 185 570 185 603 q 182 547 183 560 q 178 513 181 533 q 157 387 165 441 q 144 293 149 333 q 136 226 139 253 q 134 181 134 199 q 162 118 134 118 q 185 139 172 118 q 213 194 199 160 q 239 269 227 227 q 260 351 252 310 q 310 561 286 498 q 364 624 335 624 q 395 620 379 624 q 426 609 412 616 q 451 589 441 601 q 461 562 461 577 q 453 489 461 541 q 430 330 446 438 q 417 244 422 286 q 413 188 413 203 q 417 141 413 160 q 428 121 422 121 q 455 148 438 121 q 493 223 472 175 q 537 338 513 271 q 585 487 560 405 q 611 534 600 534 q 624 515 624 534 q 615 475 624 513 q 591 381 606 436 q 556 262 575 325 q 515 150 536 199 q 453 38 484 77 q 376 0 423 0 q 292 33 325 0 q 252 129 260 67 l 248 155 l 229 118 q 172 32 199 60 q 103 0 145 3 l 90 0 m 301 822 q 329 821 314 825 q 353 809 345 817 q 357 795 361 801 q 325 758 353 789 q 293 725 309 740 q 275 706 278 709 q 229 703 252 686 q 221 711 221 708 q 230 729 222 714 q 270 790 248 761 q 301 822 292 819 z "},"":{"ha":582,"x_min":-33,"x_max":624,"o":"m 90 0 q -2 51 28 0 q -33 199 -33 103 q -25 308 -33 247 q -5 448 -18 369 q 32 587 13 547 q 83 626 51 626 q 152 614 119 626 q 185 570 185 603 q 182 547 183 560 q 178 513 181 533 q 157 387 165 441 q 144 293 149 333 q 136 226 139 253 q 134 181 134 199 q 162 118 134 118 q 185 139 172 118 q 213 194 199 160 q 239 269 227 227 q 260 351 252 310 q 310 561 286 498 q 364 624 335 624 q 395 620 379 624 q 426 609 412 616 q 451 589 441 601 q 461 562 461 577 q 453 489 461 541 q 430 330 446 438 q 417 244 422 286 q 413 188 413 203 q 417 141 413 160 q 428 121 422 121 q 455 148 438 121 q 493 223 472 175 q 537 338 513 271 q 585 487 560 405 q 611 534 600 534 q 624 515 624 534 q 615 475 624 513 q 591 381 606 436 q 556 262 575 325 q 515 150 536 199 q 453 38 484 77 q 376 0 423 0 q 292 33 325 0 q 252 129 260 67 l 248 155 l 229 118 q 172 32 199 60 q 103 0 145 3 l 90 0 m 320 817 q 339 798 325 814 q 366 766 353 783 q 390 733 379 748 q 400 716 400 717 q 388 700 400 706 q 358 694 376 694 q 335 697 343 694 q 322 706 327 699 q 312 723 317 712 q 297 752 307 734 l 279 784 l 250 747 q 223 710 230 721 q 208 701 216 699 q 195 704 201 701 q 190 712 190 708 q 200 733 190 714 q 227 772 211 752 q 262 810 243 792 q 296 827 281 827 q 320 817 307 827 z "},"":{"ha":582,"x_min":-33,"x_max":624,"o":"m 90 0 q -2 51 28 0 q -33 199 -33 103 q -25 308 -33 247 q -5 448 -18 369 q 32 587 13 547 q 83 626 51 626 q 152 614 119 626 q 185 570 185 603 q 182 547 183 560 q 178 513 181 533 q 157 387 165 441 q 144 293 149 333 q 136 226 139 253 q 134 181 134 199 q 162 118 134 118 q 185 139 172 118 q 213 194 199 160 q 239 269 227 227 q 260 351 252 310 q 310 561 286 498 q 364 624 335 624 q 395 620 379 624 q 426 609 412 616 q 451 589 441 601 q 461 562 461 577 q 453 489 461 541 q 430 330 446 438 q 417 244 422 286 q 413 188 413 203 q 417 141 413 160 q 428 121 422 121 q 455 148 438 121 q 493 223 472 175 q 537 338 513 271 q 585 487 560 405 q 611 534 600 534 q 624 515 624 534 q 615 475 624 513 q 591 381 606 436 q 556 262 575 325 q 515 150 536 199 q 453 38 484 77 q 376 0 423 0 q 292 33 325 0 q 252 129 260 67 l 248 155 l 229 118 q 172 32 199 60 q 103 0 145 3 l 90 0 m 227 797 q 258 784 245 797 q 271 753 271 771 q 257 720 271 730 q 224 709 243 709 q 193 724 209 709 q 176 750 176 739 q 190 783 176 768 q 227 797 204 797 m 364 796 q 393 783 381 794 q 405 757 405 773 q 390 723 405 737 q 358 709 374 709 q 329 725 343 709 q 315 755 315 740 q 327 783 315 770 q 364 796 338 796 z "},"":{"ha":580,"x_min":-26,"x_max":634,"o":"m 475 569 q 468 516 475 565 q 449 400 461 466 q 410 156 423 243 q 399 65 397 69 q 407 76 399 64 q 427 107 415 88 q 453 150 440 126 q 475 193 466 173 q 498 243 484 211 q 525 312 511 275 q 554 389 539 350 q 581 459 569 428 q 602 511 593 490 q 613 531 611 531 q 634 515 634 531 q 618 437 634 490 q 579 320 603 384 q 529 194 556 257 q 477 90 502 131 q 451 47 469 75 q 417 -7 433 18 l 377 -67 l 359 -150 q 319 -294 340 -237 q 268 -386 297 -351 q 199 -436 239 -422 q 100 -451 158 -451 q 46 -439 67 -448 q 18 -400 25 -430 q 21 -341 18 -366 q 37 -291 25 -315 q 75 -237 49 -266 q 145 -163 101 -208 l 199 -111 l 221 18 q 235 112 229 72 q 242 154 242 152 q 234 139 242 154 q 214 105 225 124 q 190 66 203 85 q 168 38 176 47 l 145 11 l 113 10 l 101 10 q 5 60 36 10 q -26 206 -26 109 q -17 339 -26 265 q 7 480 -8 413 q 44 591 23 546 q 90 636 65 636 q 122 631 105 636 q 153 617 139 626 q 176 596 167 608 q 186 570 186 585 q 180 498 186 551 q 155 340 173 446 q 143 250 147 288 q 139 188 139 212 q 144 145 139 160 q 154 131 149 131 q 181 160 163 131 q 221 239 199 190 q 263 352 242 288 q 302 489 284 417 q 335 587 319 554 q 377 621 351 621 q 414 615 397 621 q 445 600 431 609 q 467 583 459 592 q 475 569 475 574 m 170 -270 q 178 -211 183 -212 q 162 -225 173 -211 q 109 -299 131 -261 q 90 -350 87 -337 q 123 -351 92 -371 q 150 -324 141 -340 q 170 -270 160 -307 m 299 822 q 328 821 312 825 q 351 809 343 817 q 355 795 359 801 q 324 758 351 789 q 292 725 307 740 q 273 706 276 709 q 227 703 250 686 q 220 711 219 708 q 229 729 221 714 q 269 790 247 761 q 299 822 291 819 z "},"":{"ha":580,"x_min":-26,"x_max":634,"o":"m 475 569 q 468 516 475 565 q 449 400 461 466 q 410 156 423 243 q 399 65 397 69 q 407 76 399 64 q 427 107 415 88 q 453 150 440 126 q 475 193 466 173 q 498 243 484 211 q 525 312 511 275 q 554 389 539 350 q 581 459 569 428 q 602 511 593 490 q 613 531 611 531 q 634 515 634 531 q 618 437 634 490 q 579 320 603 384 q 529 194 556 257 q 477 90 502 131 q 451 47 469 75 q 417 -7 433 18 l 377 -67 l 359 -150 q 319 -294 340 -237 q 268 -386 297 -351 q 199 -436 239 -422 q 100 -451 158 -451 q 46 -439 67 -448 q 18 -400 25 -430 q 21 -341 18 -366 q 37 -291 25 -315 q 75 -237 49 -266 q 145 -163 101 -208 l 199 -111 l 221 18 q 235 112 229 72 q 242 154 242 152 q 234 139 242 154 q 214 105 225 124 q 190 66 203 85 q 168 38 176 47 l 145 11 l 113 10 l 101 10 q 5 60 36 10 q -26 206 -26 109 q -17 339 -26 265 q 7 480 -8 413 q 44 591 23 546 q 90 636 65 636 q 122 631 105 636 q 153 617 139 626 q 176 596 167 608 q 186 570 186 585 q 180 498 186 551 q 155 340 173 446 q 143 250 147 288 q 139 188 139 212 q 144 145 139 160 q 154 131 149 131 q 181 160 163 131 q 221 239 199 190 q 263 352 242 288 q 302 489 284 417 q 335 587 319 554 q 377 621 351 621 q 414 615 397 621 q 445 600 431 609 q 467 583 459 592 q 475 569 475 574 m 170 -270 q 178 -211 183 -212 q 162 -225 173 -211 q 109 -299 131 -261 q 90 -350 87 -337 q 123 -351 92 -371 q 150 -324 141 -340 q 170 -270 160 -307 m 227 797 q 258 784 245 797 q 271 753 271 771 q 257 720 271 730 q 224 709 243 709 q 193 724 209 709 q 176 750 176 739 q 190 783 176 768 q 227 797 204 797 m 364 796 q 393 783 381 794 q 405 757 405 773 q 390 723 405 737 q 358 709 374 709 q 329 725 343 709 q 315 755 315 740 q 327 783 315 770 q 364 796 338 796 z "}," ":{"ha":322,"x_min":0,"x_max":0,"o":""},"":{"ha":1511,"x_min":38,"x_max":1515,"o":"m 134 -150 q 62 -37 87 -103 q 38 103 38 29 q 77 272 38 186 q 178 426 116 358 q 319 538 240 495 q 474 582 397 582 q 527 574 498 582 q 580 553 556 565 q 621 526 605 541 q 637 498 637 511 q 631 489 637 489 q 597 504 624 489 q 533 520 570 520 q 462 502 502 520 q 380 456 422 485 q 300 389 338 426 q 235 312 261 351 q 173 180 193 250 q 154 42 154 109 q 198 -121 154 -56 q 335 -186 242 -186 q 431 -158 384 -186 q 528 -75 477 -129 q 581 -14 547 -56 q 647 71 614 28 q 704 148 680 114 q 729 186 729 181 q 711 188 729 188 q 542 167 608 188 q 446 119 475 147 q 412 98 425 98 q 405 101 407 98 q 404 121 404 105 q 474 228 404 198 q 711 258 544 258 q 768 255 770 258 q 777 261 771 255 q 792 282 783 266 q 819 324 802 297 q 859 392 835 350 q 1023 648 943 525 q 1176 867 1103 771 q 1315 1020 1250 962 q 1431 1077 1379 1077 q 1493 1057 1471 1077 q 1515 1023 1515 1038 q 1512 983 1515 1008 q 1506 927 1510 958 q 1496 864 1502 897 q 1484 804 1490 832 q 1436 575 1456 676 q 1404 388 1417 474 q 1384 225 1391 302 q 1377 74 1377 149 q 1381 -8 1377 26 q 1390 -70 1384 -42 q 1406 -121 1395 -98 q 1431 -168 1417 -144 q 1448 -200 1441 -186 q 1454 -217 1454 -214 q 1444 -230 1454 -224 q 1417 -237 1433 -237 q 1328 -211 1368 -237 q 1262 -144 1289 -185 q 1219 -56 1235 -103 q 1198 33 1203 -10 q 1193 59 1194 54 q 1176 70 1191 64 q 1105 100 1154 83 q 1010 130 1057 116 q 926 153 962 144 q 892 162 891 162 q 877 151 887 163 q 845 109 866 139 q 712 -56 773 10 q 595 -163 650 -123 q 484 -220 539 -203 q 371 -237 430 -237 q 228 -214 283 -237 q 134 -150 173 -191 m 958 289 q 935 248 944 266 q 926 227 926 230 q 958 220 923 234 q 1038 186 992 206 q 1126 150 1083 167 q 1181 132 1168 132 q 1185 154 1183 141 q 1190 219 1188 176 q 1203 398 1193 306 q 1230 580 1214 490 q 1269 754 1247 670 q 1317 907 1291 838 q 1328 944 1328 938 l 1328 946 q 1303 922 1324 946 q 1266 876 1283 899 q 1237 830 1252 855 q 1203 770 1222 806 q 1158 684 1183 735 q 1095 556 1132 632 q 1052 471 1074 513 q 1012 392 1031 428 q 979 328 993 356 q 958 289 964 301 m 1422 1263 q 1459 1255 1448 1263 q 1489 1206 1471 1247 q 1508 1147 1508 1158 q 1499 1133 1508 1137 q 1484 1129 1490 1129 q 1467 1143 1482 1129 q 1432 1175 1451 1157 q 1399 1212 1413 1193 q 1384 1245 1384 1232 q 1422 1263 1384 1263 z "},"":{"ha":1511,"x_min":38,"x_max":1515,"o":"m 134 -150 q 62 -37 87 -103 q 38 103 38 29 q 77 272 38 186 q 178 426 116 358 q 319 538 240 495 q 474 582 397 582 q 527 574 498 582 q 580 553 556 565 q 621 526 605 541 q 637 498 637 511 q 631 489 637 489 q 597 504 624 489 q 533 520 570 520 q 462 502 502 520 q 380 456 422 485 q 300 389 338 426 q 235 312 261 351 q 173 180 193 250 q 154 42 154 109 q 198 -121 154 -56 q 335 -186 242 -186 q 431 -158 384 -186 q 528 -75 477 -129 q 581 -14 547 -56 q 647 71 614 28 q 704 148 680 114 q 729 186 729 181 q 711 188 729 188 q 542 167 608 188 q 446 119 475 147 q 412 98 425 98 q 405 101 407 98 q 404 121 404 105 q 474 228 404 198 q 711 258 544 258 q 768 255 770 258 q 777 261 771 255 q 792 282 783 266 q 819 324 802 297 q 859 392 835 350 q 1023 648 943 525 q 1176 867 1103 771 q 1315 1020 1250 962 q 1431 1077 1379 1077 q 1493 1057 1471 1077 q 1515 1023 1515 1038 q 1512 983 1515 1008 q 1506 927 1510 958 q 1496 864 1502 897 q 1484 804 1490 832 q 1436 575 1456 676 q 1404 388 1417 474 q 1384 225 1391 302 q 1377 74 1377 149 q 1381 -8 1377 26 q 1390 -70 1384 -42 q 1406 -121 1395 -98 q 1431 -168 1417 -144 q 1448 -200 1441 -186 q 1454 -217 1454 -214 q 1444 -230 1454 -224 q 1417 -237 1433 -237 q 1328 -211 1368 -237 q 1262 -144 1289 -185 q 1219 -56 1235 -103 q 1198 33 1203 -10 q 1193 59 1194 54 q 1176 70 1191 64 q 1105 100 1154 83 q 1010 130 1057 116 q 926 153 962 144 q 892 162 891 162 q 877 151 887 163 q 845 109 866 139 q 712 -56 773 10 q 595 -163 650 -123 q 484 -220 539 -203 q 371 -237 430 -237 q 228 -214 283 -237 q 134 -150 173 -191 m 958 289 q 935 248 944 266 q 926 227 926 230 q 958 220 923 234 q 1038 186 992 206 q 1126 150 1083 167 q 1181 132 1168 132 q 1185 154 1183 141 q 1190 219 1188 176 q 1203 398 1193 306 q 1230 580 1214 490 q 1269 754 1247 670 q 1317 907 1291 838 q 1328 944 1328 938 l 1328 946 q 1303 922 1324 946 q 1266 876 1283 899 q 1237 830 1252 855 q 1203 770 1222 806 q 1158 684 1183 735 q 1095 556 1132 632 q 1052 471 1074 513 q 1012 392 1031 428 q 979 328 993 356 q 958 289 964 301 m 1451 1252 q 1480 1251 1464 1255 q 1503 1239 1495 1247 q 1507 1225 1511 1230 q 1475 1188 1503 1219 q 1444 1154 1459 1170 q 1425 1136 1428 1139 q 1379 1132 1402 1116 q 1372 1141 1371 1137 q 1381 1158 1373 1144 q 1421 1220 1399 1191 q 1451 1252 1443 1248 z "},"":{"ha":1511,"x_min":38,"x_max":1533,"o":"m 134 -150 q 62 -37 87 -103 q 38 103 38 29 q 77 272 38 186 q 178 426 116 358 q 319 538 240 495 q 474 582 397 582 q 527 574 498 582 q 580 553 556 565 q 621 526 605 541 q 637 498 637 511 q 631 489 637 489 q 597 504 624 489 q 533 520 570 520 q 462 502 502 520 q 380 456 422 485 q 300 389 338 426 q 235 312 261 351 q 173 180 193 250 q 154 42 154 109 q 198 -121 154 -56 q 335 -186 242 -186 q 431 -158 384 -186 q 528 -75 477 -129 q 581 -14 547 -56 q 647 71 614 28 q 704 148 680 114 q 729 186 729 181 q 711 188 729 188 q 542 167 608 188 q 446 119 475 147 q 412 98 425 98 q 405 101 407 98 q 404 121 404 105 q 474 228 404 198 q 711 258 544 258 q 768 255 770 258 q 777 261 771 255 q 792 282 783 266 q 819 324 802 297 q 859 392 835 350 q 1023 648 943 525 q 1176 867 1103 771 q 1315 1020 1250 962 q 1431 1077 1379 1077 q 1493 1057 1471 1077 q 1515 1023 1515 1038 q 1512 983 1515 1008 q 1506 927 1510 958 q 1496 864 1502 897 q 1484 804 1490 832 q 1436 575 1456 676 q 1404 388 1417 474 q 1384 225 1391 302 q 1377 74 1377 149 q 1381 -8 1377 26 q 1390 -70 1384 -42 q 1406 -121 1395 -98 q 1431 -168 1417 -144 q 1448 -200 1441 -186 q 1454 -217 1454 -214 q 1444 -230 1454 -224 q 1417 -237 1433 -237 q 1328 -211 1368 -237 q 1262 -144 1289 -185 q 1219 -56 1235 -103 q 1198 33 1203 -10 q 1193 59 1194 54 q 1176 70 1191 64 q 1105 100 1154 83 q 1010 130 1057 116 q 926 153 962 144 q 892 162 891 162 q 877 151 887 163 q 845 109 866 139 q 712 -56 773 10 q 595 -163 650 -123 q 484 -220 539 -203 q 371 -237 430 -237 q 228 -214 283 -237 q 134 -150 173 -191 m 958 289 q 935 248 944 266 q 926 227 926 230 q 958 220 923 234 q 1038 186 992 206 q 1126 150 1083 167 q 1181 132 1168 132 q 1185 154 1183 141 q 1190 219 1188 176 q 1203 398 1193 306 q 1230 580 1214 490 q 1269 754 1247 670 q 1317 907 1291 838 q 1328 944 1328 938 l 1328 946 q 1303 922 1324 946 q 1266 876 1283 899 q 1237 830 1252 855 q 1203 770 1222 806 q 1158 684 1183 735 q 1095 556 1132 632 q 1052 471 1074 513 q 1012 392 1031 428 q 979 328 993 356 q 958 289 964 301 m 1453 1263 q 1471 1244 1458 1260 q 1498 1212 1485 1229 q 1522 1179 1511 1194 q 1533 1162 1533 1163 q 1520 1146 1533 1152 q 1490 1141 1508 1141 q 1467 1143 1475 1141 q 1454 1152 1459 1145 q 1444 1169 1449 1158 q 1430 1198 1440 1180 l 1412 1230 l 1382 1193 q 1355 1156 1363 1167 q 1340 1147 1348 1145 q 1328 1150 1333 1147 q 1322 1158 1322 1154 q 1333 1179 1322 1160 q 1359 1218 1343 1198 q 1395 1256 1376 1239 q 1428 1273 1413 1273 q 1453 1263 1440 1273 z "},"":{"ha":1511,"x_min":38,"x_max":1541,"o":"m 134 -150 q 62 -37 87 -103 q 38 103 38 29 q 77 272 38 186 q 178 426 116 358 q 319 538 240 495 q 474 582 397 582 q 527 574 498 582 q 580 553 556 565 q 621 526 605 541 q 637 498 637 511 q 631 489 637 489 q 597 504 624 489 q 533 520 570 520 q 462 502 502 520 q 380 456 422 485 q 300 389 338 426 q 235 312 261 351 q 173 180 193 250 q 154 42 154 109 q 198 -121 154 -56 q 335 -186 242 -186 q 431 -158 384 -186 q 528 -75 477 -129 q 581 -14 547 -56 q 647 71 614 28 q 704 148 680 114 q 729 186 729 181 q 711 188 729 188 q 542 167 608 188 q 446 119 475 147 q 412 98 425 98 q 405 101 407 98 q 404 121 404 105 q 474 228 404 198 q 711 258 544 258 q 768 255 770 258 q 777 261 771 255 q 792 282 783 266 q 819 324 802 297 q 859 392 835 350 q 1023 648 943 525 q 1176 867 1103 771 q 1315 1020 1250 962 q 1431 1077 1379 1077 q 1493 1057 1471 1077 q 1515 1023 1515 1038 q 1512 983 1515 1008 q 1506 927 1510 958 q 1496 864 1502 897 q 1484 804 1490 832 q 1436 575 1456 676 q 1404 388 1417 474 q 1384 225 1391 302 q 1377 74 1377 149 q 1381 -8 1377 26 q 1390 -70 1384 -42 q 1406 -121 1395 -98 q 1431 -168 1417 -144 q 1448 -200 1441 -186 q 1454 -217 1454 -214 q 1444 -230 1454 -224 q 1417 -237 1433 -237 q 1328 -211 1368 -237 q 1262 -144 1289 -185 q 1219 -56 1235 -103 q 1198 33 1203 -10 q 1193 59 1194 54 q 1176 70 1191 64 q 1105 100 1154 83 q 1010 130 1057 116 q 926 153 962 144 q 892 162 891 162 q 877 151 887 163 q 845 109 866 139 q 712 -56 773 10 q 595 -163 650 -123 q 484 -220 539 -203 q 371 -237 430 -237 q 228 -214 283 -237 q 134 -150 173 -191 m 958 289 q 935 248 944 266 q 926 227 926 230 q 958 220 923 234 q 1038 186 992 206 q 1126 150 1083 167 q 1181 132 1168 132 q 1185 154 1183 141 q 1190 219 1188 176 q 1203 398 1193 306 q 1230 580 1214 490 q 1269 754 1247 670 q 1317 907 1291 838 q 1328 944 1328 938 l 1328 946 q 1303 922 1324 946 q 1266 876 1283 899 q 1237 830 1252 855 q 1203 770 1222 806 q 1158 684 1183 735 q 1095 556 1132 632 q 1052 471 1074 513 q 1012 392 1031 428 q 979 328 993 356 q 958 289 964 301 m 1520 1237 q 1536 1222 1531 1234 q 1541 1196 1541 1211 q 1526 1146 1541 1167 q 1489 1126 1511 1126 q 1453 1138 1469 1126 q 1427 1165 1438 1150 q 1409 1192 1417 1180 q 1400 1204 1402 1204 q 1392 1194 1395 1204 q 1386 1171 1389 1183 q 1379 1149 1382 1158 q 1371 1139 1376 1139 q 1357 1149 1363 1139 q 1351 1170 1351 1158 q 1365 1215 1351 1193 q 1402 1237 1379 1237 q 1454 1221 1436 1237 q 1498 1167 1472 1204 q 1506 1177 1503 1167 q 1509 1202 1508 1188 q 1511 1226 1510 1216 q 1516 1237 1511 1237 l 1520 1237 l 1520 1237 z "},"":{"ha":1511,"x_min":38,"x_max":1569,"o":"m 134 -150 q 62 -37 87 -103 q 38 103 38 29 q 77 272 38 186 q 178 426 116 358 q 319 538 240 495 q 474 582 397 582 q 527 574 498 582 q 580 553 556 565 q 621 526 605 541 q 637 498 637 511 q 631 489 637 489 q 597 504 624 489 q 533 520 570 520 q 462 502 502 520 q 380 456 422 485 q 300 389 338 426 q 235 312 261 351 q 173 180 193 250 q 154 42 154 109 q 198 -121 154 -56 q 335 -186 242 -186 q 431 -158 384 -186 q 528 -75 477 -129 q 581 -14 547 -56 q 647 71 614 28 q 704 148 680 114 q 729 186 729 181 q 711 188 729 188 q 542 167 608 188 q 446 119 475 147 q 412 98 425 98 q 405 101 407 98 q 404 121 404 105 q 474 228 404 198 q 711 258 544 258 q 768 255 770 258 q 777 261 771 255 q 792 282 783 266 q 819 324 802 297 q 859 392 835 350 q 1023 648 943 525 q 1176 867 1103 771 q 1315 1020 1250 962 q 1431 1077 1379 1077 q 1493 1057 1471 1077 q 1515 1023 1515 1038 q 1512 983 1515 1008 q 1506 927 1510 958 q 1496 864 1502 897 q 1484 804 1490 832 q 1436 575 1456 676 q 1404 388 1417 474 q 1384 225 1391 302 q 1377 74 1377 149 q 1381 -8 1377 26 q 1390 -70 1384 -42 q 1406 -121 1395 -98 q 1431 -168 1417 -144 q 1448 -200 1441 -186 q 1454 -217 1454 -214 q 1444 -230 1454 -224 q 1417 -237 1433 -237 q 1328 -211 1368 -237 q 1262 -144 1289 -185 q 1219 -56 1235 -103 q 1198 33 1203 -10 q 1193 59 1194 54 q 1176 70 1191 64 q 1105 100 1154 83 q 1010 130 1057 116 q 926 153 962 144 q 892 162 891 162 q 877 151 887 163 q 845 109 866 139 q 712 -56 773 10 q 595 -163 650 -123 q 484 -220 539 -203 q 371 -237 430 -237 q 228 -214 283 -237 q 134 -150 173 -191 m 958 289 q 935 248 944 266 q 926 227 926 230 q 958 220 923 234 q 1038 186 992 206 q 1126 150 1083 167 q 1181 132 1168 132 q 1185 154 1183 141 q 1190 219 1188 176 q 1203 398 1193 306 q 1230 580 1214 490 q 1269 754 1247 670 q 1317 907 1291 838 q 1328 944 1328 938 l 1328 946 q 1303 922 1324 946 q 1266 876 1283 899 q 1237 830 1252 855 q 1203 770 1222 806 q 1158 684 1183 735 q 1095 556 1132 632 q 1052 471 1074 513 q 1012 392 1031 428 q 979 328 993 356 q 958 289 964 301 m 1391 1221 q 1422 1208 1408 1221 q 1435 1176 1435 1194 q 1421 1143 1435 1154 q 1387 1132 1407 1132 q 1356 1147 1373 1132 q 1340 1173 1340 1162 q 1354 1206 1340 1191 q 1391 1221 1368 1221 m 1528 1219 q 1556 1207 1544 1217 q 1569 1180 1569 1196 q 1553 1146 1569 1160 q 1521 1132 1538 1132 q 1493 1148 1507 1132 q 1479 1178 1479 1163 q 1490 1206 1479 1193 q 1528 1219 1502 1219 z "},"":{"ha":1511,"x_min":38,"x_max":1515,"o":"m 134 -150 q 62 -37 87 -103 q 38 103 38 29 q 77 272 38 186 q 178 426 116 358 q 319 538 240 495 q 474 582 397 582 q 527 574 498 582 q 580 553 556 565 q 621 526 605 541 q 637 498 637 511 q 631 489 637 489 q 597 504 624 489 q 533 520 570 520 q 462 502 502 520 q 380 456 422 485 q 300 389 338 426 q 235 312 261 351 q 173 180 193 250 q 154 42 154 109 q 198 -121 154 -56 q 335 -186 242 -186 q 431 -158 384 -186 q 528 -75 477 -129 q 581 -14 547 -56 q 647 71 614 28 q 704 148 680 114 q 729 186 729 181 q 711 188 729 188 q 542 167 608 188 q 446 119 475 147 q 412 98 425 98 q 405 101 407 98 q 404 121 404 105 q 474 228 404 198 q 711 258 544 258 q 768 255 770 258 q 777 261 771 255 q 792 282 783 266 q 819 324 802 297 q 859 392 835 350 q 1023 648 943 525 q 1176 867 1103 771 q 1315 1020 1250 962 q 1431 1077 1379 1077 q 1493 1057 1471 1077 q 1515 1023 1515 1038 q 1512 983 1515 1008 q 1506 927 1510 958 q 1496 864 1502 897 q 1484 804 1490 832 q 1436 575 1456 676 q 1404 388 1417 474 q 1384 225 1391 302 q 1377 74 1377 149 q 1381 -8 1377 26 q 1390 -70 1384 -42 q 1406 -121 1395 -98 q 1431 -168 1417 -144 q 1448 -200 1441 -186 q 1454 -217 1454 -214 q 1444 -230 1454 -224 q 1417 -237 1433 -237 q 1328 -211 1368 -237 q 1262 -144 1289 -185 q 1219 -56 1235 -103 q 1198 33 1203 -10 q 1193 59 1194 54 q 1176 70 1191 64 q 1105 100 1154 83 q 1010 130 1057 116 q 926 153 962 144 q 892 162 891 162 q 877 151 887 163 q 845 109 866 139 q 712 -56 773 10 q 595 -163 650 -123 q 484 -220 539 -203 q 371 -237 430 -237 q 228 -214 283 -237 q 134 -150 173 -191 m 958 289 q 935 248 944 266 q 926 227 926 230 q 958 220 923 234 q 1038 186 992 206 q 1126 150 1083 167 q 1181 132 1168 132 q 1185 154 1183 141 q 1190 219 1188 176 q 1203 398 1193 306 q 1230 580 1214 490 q 1269 754 1247 670 q 1317 907 1291 838 q 1328 944 1328 938 l 1328 946 q 1303 922 1324 946 q 1266 876 1283 899 q 1237 830 1252 855 q 1203 770 1222 806 q 1158 684 1183 735 q 1095 556 1132 632 q 1052 471 1074 513 q 1012 392 1031 428 q 979 328 993 356 q 958 289 964 301 m 1456 1281 q 1486 1261 1474 1276 q 1502 1227 1498 1245 q 1501 1190 1505 1209 q 1485 1157 1497 1170 q 1430 1139 1467 1131 q 1384 1172 1404 1145 q 1377 1183 1379 1178 q 1373 1201 1376 1188 q 1369 1222 1369 1217 q 1373 1235 1369 1227 q 1387 1261 1377 1248 q 1407 1278 1397 1273 q 1436 1284 1418 1284 q 1456 1281 1446 1284 m 1477 1193 q 1480 1220 1482 1206 q 1471 1242 1479 1234 q 1456 1250 1464 1250 q 1446 1248 1451 1250 q 1430 1232 1436 1243 q 1421 1208 1423 1221 q 1422 1182 1418 1194 q 1433 1163 1425 1170 q 1453 1163 1440 1158 q 1477 1193 1471 1173 z "},"":{"ha":2093,"x_min":38,"x_max":2134,"o":"m 134 -150 q 62 -37 87 -103 q 38 103 38 29 q 77 272 38 186 q 178 426 116 358 q 319 538 240 495 q 474 582 397 582 q 527 574 498 582 q 580 553 556 565 q 621 526 605 541 q 637 498 637 511 q 631 489 637 489 q 597 504 624 489 q 533 520 570 520 q 462 502 502 520 q 380 456 422 485 q 300 389 338 426 q 235 312 261 351 q 173 180 193 250 q 154 42 154 109 q 198 -121 154 -56 q 335 -186 242 -186 q 431 -158 384 -186 q 528 -75 477 -129 q 581 -14 547 -56 q 647 71 614 28 q 704 148 680 114 q 729 186 729 181 q 711 188 729 188 q 542 167 608 188 q 446 119 475 147 q 412 98 425 98 q 405 101 407 98 q 404 121 404 105 q 474 228 404 198 q 711 258 544 258 q 768 255 770 258 q 777 261 771 255 q 792 282 783 266 q 819 324 802 297 q 859 392 835 350 q 1023 648 943 525 q 1176 867 1103 771 q 1315 1020 1250 962 q 1431 1077 1379 1077 q 1493 1057 1471 1077 q 1515 1023 1515 1038 q 1512 983 1515 1008 q 1506 927 1510 958 q 1496 864 1502 897 q 1484 804 1490 832 q 1436 575 1456 676 q 1404 388 1417 474 q 1384 225 1391 302 q 1377 74 1377 149 q 1381 -8 1377 26 q 1390 -70 1384 -42 q 1406 -121 1395 -98 q 1431 -168 1417 -144 q 1448 -200 1441 -186 q 1454 -217 1454 -214 q 1459 -221 1454 -221 q 1468 -220 1464 -221 q 1473 -217 1472 -219 q 1466 -216 1474 -216 q 1370 -193 1417 -216 q 1287 -133 1324 -170 q 1226 -53 1250 -96 q 1198 33 1203 -10 q 1193 59 1194 54 q 1176 70 1191 64 q 1105 100 1154 83 q 1010 130 1057 116 q 926 153 962 144 q 892 162 891 162 q 877 151 887 163 q 845 109 866 139 q 712 -56 773 10 q 595 -163 650 -123 q 484 -220 539 -203 q 371 -237 430 -237 q 228 -214 283 -237 q 134 -150 173 -191 m 958 289 q 935 248 944 266 q 926 227 926 230 q 958 220 923 234 q 1038 186 992 206 q 1126 150 1083 167 q 1181 132 1168 132 q 1185 154 1183 141 q 1190 219 1188 176 q 1203 398 1193 306 q 1230 580 1214 490 q 1269 754 1247 670 q 1317 907 1291 838 q 1328 944 1328 938 l 1328 946 q 1303 922 1324 946 q 1266 876 1283 899 q 1237 830 1252 855 q 1203 770 1222 806 q 1158 684 1183 735 q 1095 556 1132 632 q 1052 471 1074 513 q 1012 392 1031 428 q 979 328 993 356 q 958 289 964 301 m 1474 -224 q 1271 -135 1348 -208 q 1194 46 1194 -62 q 1233 209 1194 134 q 1323 340 1271 284 q 1425 427 1374 395 q 1500 459 1475 459 q 1508 462 1508 459 q 1480 485 1508 471 q 1395 560 1423 516 q 1368 657 1368 605 q 1409 793 1368 721 q 1519 929 1451 866 q 1675 1033 1587 992 q 1856 1075 1763 1075 q 1934 1061 1895 1075 q 2002 1025 1972 1047 q 2049 971 2031 1002 q 2067 908 2067 941 q 2062 876 2067 900 q 2023 765 2049 814 q 1961 681 1997 716 q 1880 627 1925 645 q 1786 608 1835 608 q 1739 617 1760 608 q 1717 639 1717 626 q 1757 662 1717 652 q 1838 706 1801 673 q 1904 779 1876 739 q 1947 864 1931 820 q 1962 940 1962 907 q 1954 985 1962 974 q 1930 997 1946 997 q 1793 959 1868 997 q 1653 864 1719 922 q 1542 740 1587 807 q 1498 613 1498 673 q 1507 556 1498 578 q 1536 519 1515 533 q 1592 498 1557 505 q 1678 490 1626 492 q 1783 475 1758 487 q 1809 448 1809 464 q 1797 443 1809 446 q 1758 438 1784 440 q 1602 394 1672 433 q 1484 296 1533 355 q 1408 167 1435 237 q 1381 31 1381 96 q 1392 -53 1381 -21 q 1422 -103 1404 -85 q 1467 -127 1441 -121 q 1520 -134 1492 -134 q 1657 -96 1583 -134 q 1752 -36 1708 -70 q 1840 51 1796 -2 q 1933 180 1884 105 q 2044 364 1982 255 q 2078 426 2065 404 q 2096 459 2090 448 q 2107 474 2103 471 q 2119 477 2111 477 q 2130 471 2126 477 q 2134 461 2134 466 q 2120 422 2134 453 q 2083 346 2106 391 q 2032 250 2060 302 q 1975 148 2003 198 q 1920 56 1946 98 q 1877 -8 1894 15 q 1692 -176 1789 -126 q 1515 -227 1595 -227 q 1493 -226 1503 -227 q 1474 -224 1482 -225 z "},"":{"ha":1018,"x_min":31,"x_max":1093,"o":"m 155 -93 q 66 33 101 -46 q 31 227 31 111 q 38 341 31 289 q 59 446 44 392 q 152 673 88 560 q 301 875 216 786 q 484 1019 386 964 q 681 1074 582 1074 q 783 1054 737 1074 q 860 1004 828 1034 q 909 935 892 974 q 926 858 926 897 q 897 740 926 799 q 824 635 868 681 q 728 560 779 588 q 631 531 676 531 q 592 538 609 531 q 575 557 575 546 q 618 582 575 569 q 699 629 662 596 q 766 703 737 662 q 810 788 794 745 q 827 868 827 832 q 806 965 827 925 q 750 1005 784 1005 q 676 987 722 1005 q 587 938 631 969 q 437 800 505 881 q 321 624 369 719 q 247 423 273 529 q 221 208 221 317 q 286 -34 221 41 q 456 -109 351 -109 q 654 -52 552 -109 q 848 132 757 5 q 925 257 884 185 q 999 394 966 328 q 1054 505 1033 459 q 1075 551 1075 551 q 1087 544 1082 551 q 1093 528 1093 538 q 1087 498 1093 520 q 1069 449 1080 477 q 1044 386 1059 420 q 1013 319 1029 353 q 953 200 982 253 q 892 102 923 147 q 827 17 861 57 q 752 -62 792 -23 q 664 -134 704 -106 q 586 -177 624 -162 q 509 -198 547 -193 q 426 -203 471 -203 q 279 -169 353 -203 q 155 -93 206 -136 m 350 -221 q 389 -224 369 -219 q 420 -242 408 -229 q 440 -277 433 -260 q 433 -320 446 -294 q 401 -353 425 -338 q 343 -361 377 -368 q 283 -315 301 -353 q 283 -301 279 -310 q 291 -296 288 -292 q 340 -322 312 -317 q 376 -307 364 -325 q 369 -266 387 -289 q 347 -257 361 -257 q 315 -263 333 -258 q 297 -252 306 -265 q 291 -232 288 -240 q 310 -197 299 -216 q 338 -160 322 -178 q 350 -155 342 -157 q 365 -154 358 -154 q 377 -158 373 -155 q 381 -167 382 -162 q 365 -194 373 -181 q 350 -221 358 -208 z "},"":{"ha":935,"x_min":41,"x_max":980,"o":"m 320 -224 q 118 -135 194 -208 q 41 46 41 -62 q 79 209 41 134 q 169 340 118 284 q 271 427 221 395 q 346 459 322 459 q 355 462 355 459 q 327 485 355 471 q 242 560 270 516 q 214 657 214 605 q 256 793 214 721 q 365 929 297 866 q 521 1033 433 992 q 703 1075 609 1075 q 780 1061 742 1075 q 848 1025 819 1047 q 895 971 877 1002 q 913 908 913 941 q 908 876 913 900 q 869 765 895 814 q 807 681 843 716 q 726 627 771 645 q 632 608 681 608 q 585 617 606 608 q 564 639 564 626 q 603 662 564 652 q 685 706 647 673 q 750 779 722 739 q 793 864 778 820 q 809 940 809 907 q 801 985 809 974 q 776 997 792 997 q 640 959 714 997 q 499 864 565 922 q 389 740 433 807 q 345 613 345 673 q 353 556 345 578 q 382 519 361 533 q 438 498 404 505 q 525 490 472 492 q 630 475 605 487 q 655 448 655 464 q 643 443 655 446 q 605 438 631 440 q 449 394 518 433 q 330 296 379 355 q 254 167 281 237 q 227 31 227 96 q 239 -53 227 -21 q 269 -103 250 -85 q 313 -127 288 -121 q 366 -134 338 -134 q 503 -96 430 -134 q 598 -36 554 -70 q 686 51 642 -2 q 779 180 730 105 q 891 364 828 255 q 924 426 912 404 q 943 459 936 448 q 953 474 949 471 q 966 477 958 477 q 976 471 972 477 q 980 461 980 466 q 967 422 980 453 q 930 346 953 391 q 878 250 907 302 q 821 148 850 198 q 766 56 792 98 q 724 -8 740 15 q 538 -176 636 -126 q 361 -227 441 -227 q 339 -226 350 -227 q 320 -224 328 -225 m 714 1222 q 752 1214 740 1222 q 781 1165 763 1206 q 801 1106 801 1118 q 792 1092 801 1096 q 776 1088 783 1088 q 759 1102 775 1088 q 725 1134 743 1116 q 691 1172 706 1152 q 676 1204 676 1191 q 714 1222 676 1222 z "},"":{"ha":935,"x_min":41,"x_max":980,"o":"m 320 -224 q 118 -135 194 -208 q 41 46 41 -62 q 79 209 41 134 q 169 340 118 284 q 271 427 221 395 q 346 459 322 459 q 355 462 355 459 q 327 485 355 471 q 242 560 270 516 q 214 657 214 605 q 256 793 214 721 q 365 929 297 866 q 521 1033 433 992 q 703 1075 609 1075 q 780 1061 742 1075 q 848 1025 819 1047 q 895 971 877 1002 q 913 908 913 941 q 908 876 913 900 q 869 765 895 814 q 807 681 843 716 q 726 627 771 645 q 632 608 681 608 q 585 617 606 608 q 564 639 564 626 q 603 662 564 652 q 685 706 647 673 q 750 779 722 739 q 793 864 778 820 q 809 940 809 907 q 801 985 809 974 q 776 997 792 997 q 640 959 714 997 q 499 864 565 922 q 389 740 433 807 q 345 613 345 673 q 353 556 345 578 q 382 519 361 533 q 438 498 404 505 q 525 490 472 492 q 630 475 605 487 q 655 448 655 464 q 643 443 655 446 q 605 438 631 440 q 449 394 518 433 q 330 296 379 355 q 254 167 281 237 q 227 31 227 96 q 239 -53 227 -21 q 269 -103 250 -85 q 313 -127 288 -121 q 366 -134 338 -134 q 503 -96 430 -134 q 598 -36 554 -70 q 686 51 642 -2 q 779 180 730 105 q 891 364 828 255 q 924 426 912 404 q 943 459 936 448 q 953 474 949 471 q 966 477 958 477 q 976 471 972 477 q 980 461 980 466 q 967 422 980 453 q 930 346 953 391 q 878 250 907 302 q 821 148 850 198 q 766 56 792 98 q 724 -8 740 15 q 538 -176 636 -126 q 361 -227 441 -227 q 339 -226 350 -227 q 320 -224 328 -225 m 752 1240 q 780 1239 765 1243 q 804 1227 796 1235 q 808 1213 812 1219 q 776 1176 804 1208 q 744 1143 760 1158 q 725 1124 729 1127 q 680 1121 703 1105 q 672 1129 672 1126 q 681 1147 673 1132 q 721 1208 699 1180 q 752 1240 743 1237 z "},"":{"ha":935,"x_min":41,"x_max":980,"o":"m 320 -224 q 118 -135 194 -208 q 41 46 41 -62 q 79 209 41 134 q 169 340 118 284 q 271 427 221 395 q 346 459 322 459 q 355 462 355 459 q 327 485 355 471 q 242 560 270 516 q 214 657 214 605 q 256 793 214 721 q 365 929 297 866 q 521 1033 433 992 q 703 1075 609 1075 q 780 1061 742 1075 q 848 1025 819 1047 q 895 971 877 1002 q 913 908 913 941 q 908 876 913 900 q 869 765 895 814 q 807 681 843 716 q 726 627 771 645 q 632 608 681 608 q 585 617 606 608 q 564 639 564 626 q 603 662 564 652 q 685 706 647 673 q 750 779 722 739 q 793 864 778 820 q 809 940 809 907 q 801 985 809 974 q 776 997 792 997 q 640 959 714 997 q 499 864 565 922 q 389 740 433 807 q 345 613 345 673 q 353 556 345 578 q 382 519 361 533 q 438 498 404 505 q 525 490 472 492 q 630 475 605 487 q 655 448 655 464 q 643 443 655 446 q 605 438 631 440 q 449 394 518 433 q 330 296 379 355 q 254 167 281 237 q 227 31 227 96 q 239 -53 227 -21 q 269 -103 250 -85 q 313 -127 288 -121 q 366 -134 338 -134 q 503 -96 430 -134 q 598 -36 554 -70 q 686 51 642 -2 q 779 180 730 105 q 891 364 828 255 q 924 426 912 404 q 943 459 936 448 q 953 474 949 471 q 966 477 958 477 q 976 471 972 477 q 980 461 980 466 q 967 422 980 453 q 930 346 953 391 q 878 250 907 302 q 821 148 850 198 q 766 56 792 98 q 724 -8 740 15 q 538 -176 636 -126 q 361 -227 441 -227 q 339 -226 350 -227 q 320 -224 328 -225 m 758 1240 q 777 1221 763 1237 q 804 1189 791 1206 q 828 1156 817 1172 q 838 1139 838 1141 q 826 1123 838 1129 q 796 1118 814 1118 q 773 1120 781 1118 q 760 1129 765 1123 q 750 1146 755 1136 q 735 1175 745 1157 l 717 1208 l 688 1170 q 661 1133 668 1144 q 645 1124 654 1123 q 633 1127 639 1124 q 627 1136 627 1131 q 638 1156 627 1137 q 665 1195 649 1175 q 700 1233 681 1216 q 734 1250 719 1250 q 758 1240 745 1250 z "},"":{"ha":935,"x_min":41,"x_max":980,"o":"m 320 -224 q 118 -135 194 -208 q 41 46 41 -62 q 79 209 41 134 q 169 340 118 284 q 271 427 221 395 q 346 459 322 459 q 355 462 355 459 q 327 485 355 471 q 242 560 270 516 q 214 657 214 605 q 256 793 214 721 q 365 929 297 866 q 521 1033 433 992 q 703 1075 609 1075 q 780 1061 742 1075 q 848 1025 819 1047 q 895 971 877 1002 q 913 908 913 941 q 908 876 913 900 q 869 765 895 814 q 807 681 843 716 q 726 627 771 645 q 632 608 681 608 q 585 617 606 608 q 564 639 564 626 q 603 662 564 652 q 685 706 647 673 q 750 779 722 739 q 793 864 778 820 q 809 940 809 907 q 801 985 809 974 q 776 997 792 997 q 640 959 714 997 q 499 864 565 922 q 389 740 433 807 q 345 613 345 673 q 353 556 345 578 q 382 519 361 533 q 438 498 404 505 q 525 490 472 492 q 630 475 605 487 q 655 448 655 464 q 643 443 655 446 q 605 438 631 440 q 449 394 518 433 q 330 296 379 355 q 254 167 281 237 q 227 31 227 96 q 239 -53 227 -21 q 269 -103 250 -85 q 313 -127 288 -121 q 366 -134 338 -134 q 503 -96 430 -134 q 598 -36 554 -70 q 686 51 642 -2 q 779 180 730 105 q 891 364 828 255 q 924 426 912 404 q 943 459 936 448 q 953 474 949 471 q 966 477 958 477 q 976 471 972 477 q 980 461 980 466 q 967 422 980 453 q 930 346 953 391 q 878 250 907 302 q 821 148 850 198 q 766 56 792 98 q 724 -8 740 15 q 538 -176 636 -126 q 361 -227 441 -227 q 339 -226 350 -227 q 320 -224 328 -225 m 693 1208 q 724 1194 711 1208 q 737 1163 737 1181 q 723 1130 737 1141 q 690 1119 709 1119 q 658 1134 675 1119 q 642 1160 642 1149 q 656 1193 642 1178 q 693 1208 670 1208 m 830 1206 q 859 1194 846 1204 q 871 1167 871 1183 q 855 1133 871 1147 q 824 1119 840 1119 q 795 1135 809 1119 q 781 1165 781 1150 q 792 1193 781 1180 q 830 1206 804 1206 z "},"":{"ha":595,"x_min":49,"x_max":556,"o":"m 106 572 q 49 701 49 611 q 82 833 49 765 q 161 955 114 900 q 260 1045 208 1010 q 351 1080 312 1080 q 503 989 451 1080 q 556 735 556 899 q 542 561 556 660 q 507 362 528 462 q 459 172 485 261 q 407 26 433 82 q 294 -132 356 -83 q 163 -181 232 -181 q 114 -157 126 -181 q 101 -75 101 -132 q 105 -22 101 -44 q 119 42 108 0 q 161 173 142 132 q 199 214 180 214 q 209 212 204 214 q 214 203 214 209 q 197 131 206 162 q 180 70 188 100 q 166 9 172 41 q 160 -65 160 -23 q 170 -95 160 -95 q 205 -43 183 -95 q 251 92 227 8 q 299 282 275 175 q 343 499 324 389 q 375 715 363 609 q 387 902 387 820 q 381 991 387 959 q 363 1023 374 1023 q 327 1003 351 1023 q 278 956 302 984 q 222 881 247 922 q 180 799 198 840 q 152 720 162 758 q 142 650 142 681 q 163 587 142 606 l 175 574 l 163 565 q 142 557 152 557 q 106 572 126 557 m 361 1225 q 399 1217 387 1225 q 428 1168 410 1209 q 448 1109 448 1121 q 439 1096 448 1100 q 423 1092 430 1092 q 406 1105 422 1092 q 372 1137 391 1119 q 338 1175 353 1155 q 324 1208 324 1194 q 361 1225 324 1225 z "},"":{"ha":595,"x_min":49,"x_max":556,"o":"m 106 572 q 49 701 49 611 q 82 833 49 765 q 161 955 114 900 q 260 1045 208 1010 q 351 1080 312 1080 q 503 989 451 1080 q 556 735 556 899 q 542 561 556 660 q 507 362 528 462 q 459 172 485 261 q 407 26 433 82 q 294 -132 356 -83 q 163 -181 232 -181 q 114 -157 126 -181 q 101 -75 101 -132 q 105 -22 101 -44 q 119 42 108 0 q 161 173 142 132 q 199 214 180 214 q 209 212 204 214 q 214 203 214 209 q 197 131 206 162 q 180 70 188 100 q 166 9 172 41 q 160 -65 160 -23 q 170 -95 160 -95 q 205 -43 183 -95 q 251 92 227 8 q 299 282 275 175 q 343 499 324 389 q 375 715 363 609 q 387 902 387 820 q 381 991 387 959 q 363 1023 374 1023 q 327 1003 351 1023 q 278 956 302 984 q 222 881 247 922 q 180 799 198 840 q 152 720 162 758 q 142 650 142 681 q 163 587 142 606 l 175 574 l 163 565 q 142 557 152 557 q 106 572 126 557 m 391 1219 q 419 1218 404 1222 q 443 1206 435 1214 q 447 1192 451 1198 q 415 1155 443 1186 q 383 1122 399 1137 q 364 1103 368 1106 q 319 1100 342 1083 q 311 1108 310 1105 q 320 1126 312 1111 q 360 1187 338 1158 q 391 1219 382 1216 z "},"":{"ha":595,"x_min":49,"x_max":556,"o":"m 106 572 q 49 701 49 611 q 82 833 49 765 q 161 955 114 900 q 260 1045 208 1010 q 351 1080 312 1080 q 503 989 451 1080 q 556 735 556 899 q 542 561 556 660 q 507 362 528 462 q 459 172 485 261 q 407 26 433 82 q 294 -132 356 -83 q 163 -181 232 -181 q 114 -157 126 -181 q 101 -75 101 -132 q 105 -22 101 -44 q 119 42 108 0 q 161 173 142 132 q 199 214 180 214 q 209 212 204 214 q 214 203 214 209 q 197 131 206 162 q 180 70 188 100 q 166 9 172 41 q 160 -65 160 -23 q 170 -95 160 -95 q 205 -43 183 -95 q 251 92 227 8 q 299 282 275 175 q 343 499 324 389 q 375 715 363 609 q 387 902 387 820 q 381 991 387 959 q 363 1023 374 1023 q 327 1003 351 1023 q 278 956 302 984 q 222 881 247 922 q 180 799 198 840 q 152 720 162 758 q 142 650 142 681 q 163 587 142 606 l 175 574 l 163 565 q 142 557 152 557 q 106 572 126 557 m 413 1235 q 432 1217 418 1232 q 459 1184 446 1201 q 483 1151 472 1167 q 493 1134 493 1136 q 481 1118 493 1124 q 451 1113 469 1113 q 428 1115 436 1113 q 415 1124 420 1118 q 405 1141 410 1131 q 391 1170 400 1152 l 373 1203 l 343 1165 q 316 1128 324 1139 q 301 1119 309 1118 q 288 1123 294 1119 q 283 1131 283 1126 q 293 1151 283 1132 q 320 1190 304 1170 q 355 1228 337 1211 q 389 1245 374 1245 q 413 1235 400 1245 z "},"":{"ha":595,"x_min":49,"x_max":556,"o":"m 106 572 q 49 701 49 611 q 82 833 49 765 q 161 955 114 900 q 260 1045 208 1010 q 351 1080 312 1080 q 503 989 451 1080 q 556 735 556 899 q 542 561 556 660 q 507 362 528 462 q 459 172 485 261 q 407 26 433 82 q 294 -132 356 -83 q 163 -181 232 -181 q 114 -157 126 -181 q 101 -75 101 -132 q 105 -22 101 -44 q 119 42 108 0 q 161 173 142 132 q 199 214 180 214 q 209 212 204 214 q 214 203 214 209 q 197 131 206 162 q 180 70 188 100 q 166 9 172 41 q 160 -65 160 -23 q 170 -95 160 -95 q 205 -43 183 -95 q 251 92 227 8 q 299 282 275 175 q 343 499 324 389 q 375 715 363 609 q 387 902 387 820 q 381 991 387 959 q 363 1023 374 1023 q 327 1003 351 1023 q 278 956 302 984 q 222 881 247 922 q 180 799 198 840 q 152 720 162 758 q 142 650 142 681 q 163 587 142 606 l 175 574 l 163 565 q 142 557 152 557 q 106 572 126 557 m 315 1234 q 346 1221 333 1234 q 359 1190 359 1208 q 346 1156 359 1167 q 312 1145 332 1145 q 281 1160 297 1145 q 265 1186 265 1175 q 279 1219 265 1204 q 315 1234 292 1234 m 453 1232 q 481 1220 469 1230 q 493 1193 493 1209 q 478 1159 493 1173 q 446 1145 462 1145 q 417 1161 431 1145 q 404 1191 404 1176 q 415 1219 404 1206 q 453 1232 426 1232 z "},"":{"ha":1261,"x_min":54,"x_max":1180,"o":"m 150 528 q 155 513 155 518 q 144 503 155 503 q 108 517 124 503 q 79 552 92 531 q 60 600 67 574 q 54 650 54 626 q 111 810 54 734 q 262 946 168 887 q 477 1040 356 1005 q 725 1075 598 1075 q 911 1042 827 1075 q 1055 947 995 1008 q 1147 798 1114 886 q 1180 603 1180 711 q 1144 386 1180 490 q 1048 190 1108 281 q 910 23 989 98 q 747 -106 832 -52 q 576 -190 662 -160 q 415 -219 490 -219 q 287 -203 345 -219 q 187 -159 229 -186 q 123 -98 145 -132 q 100 -29 100 -64 q 123 65 100 13 q 183 167 145 116 q 268 264 221 219 q 363 338 315 309 q 400 364 392 356 q 410 381 408 373 q 450 563 430 482 q 493 712 471 644 q 540 842 515 781 q 595 961 565 902 q 578 958 592 962 q 545 949 564 954 q 505 934 526 943 q 466 917 484 925 q 337 841 395 882 q 234 753 278 799 q 167 658 191 708 q 144 560 144 609 q 145 540 144 547 q 150 528 147 533 m 691 400 q 620 385 639 392 q 598 366 601 377 q 569 229 585 319 q 539 28 554 139 q 529 -25 533 -5 q 519 -55 526 -44 q 497 -69 511 -65 q 454 -72 482 -72 q 388 -57 420 -72 q 356 -15 356 -42 q 361 25 356 -13 q 371 110 366 62 q 381 203 376 158 q 386 263 386 248 q 384 265 386 265 q 370 257 381 265 q 346 236 359 248 q 316 210 332 224 q 291 185 301 196 q 188 -42 188 69 q 226 -116 188 -90 q 320 -142 265 -142 q 439 -116 371 -142 q 578 -42 507 -90 q 721 73 650 7 q 850 219 792 139 q 989 481 943 348 q 1034 771 1034 614 q 1021 865 1034 825 q 978 931 1008 905 q 898 968 948 956 q 775 980 848 980 q 708 980 739 980 q 670 977 678 979 l 650 974 l 681 961 q 745 907 745 941 q 734 872 745 905 q 703 779 722 838 q 662 635 685 719 q 614 446 639 551 l 611 430 l 639 433 q 673 437 650 436 q 719 438 696 438 q 798 423 776 438 q 820 399 820 408 q 812 392 820 392 q 787 399 804 392 q 750 405 770 405 q 691 400 727 405 m 332 178 q 348 189 338 186 q 394 194 358 191 q 450 197 415 196 q 513 198 485 198 q 571 196 557 198 q 592 190 585 194 q 600 180 600 185 q 600 160 601 175 q 559 109 593 119 q 515 105 551 106 q 435 101 479 103 l 325 98 l 319 109 q 318 145 314 123 q 332 178 322 167 z "},"":{"ha":1255,"x_min":33,"x_max":1253,"o":"m 654 539 q 658 547 654 538 q 668 569 662 556 q 759 751 706 660 q 873 914 812 842 q 1001 1033 935 987 q 1129 1078 1067 1078 q 1176 1073 1154 1078 q 1215 1050 1198 1067 q 1243 1002 1232 1033 q 1253 923 1253 972 q 1248 864 1253 897 q 1232 780 1243 832 q 1201 654 1221 729 q 1150 471 1181 580 q 1121 365 1132 410 q 1101 281 1109 320 q 1087 205 1093 242 q 1075 124 1080 168 q 1069 75 1072 96 q 1067 36 1067 54 q 1069 2 1067 18 q 1075 -31 1072 -15 q 1092 -78 1080 -56 q 1118 -117 1105 -100 q 1141 -145 1131 -134 q 1150 -157 1150 -155 q 1135 -176 1150 -165 q 1092 -188 1119 -188 q 1074 -185 1083 -188 q 1046 -180 1064 -183 q 962 -149 995 -168 q 911 -99 930 -129 q 885 -27 892 -69 q 877 72 877 15 q 888 222 877 147 q 921 382 899 297 q 975 564 943 466 q 1052 784 1008 662 q 1109 949 1092 894 q 1126 1021 1126 1005 q 1119 1031 1126 1031 q 1069 1012 1101 1031 q 1002 964 1038 993 q 929 897 966 935 q 866 820 892 859 q 761 634 815 748 q 663 391 708 520 q 589 136 618 263 q 560 -92 560 8 q 564 -134 560 -118 q 567 -158 567 -150 q 546 -185 567 -180 q 495 -191 525 -191 q 389 -140 426 -191 q 351 0 351 -88 q 355 75 351 31 q 368 162 359 119 q 391 266 376 203 q 424 400 405 328 q 462 547 443 472 q 498 690 482 623 q 525 810 515 757 q 536 892 536 864 q 530 935 536 913 q 515 972 525 956 q 493 999 505 989 q 467 1010 480 1010 q 354 975 407 1010 q 261 886 301 941 q 200 765 222 832 q 178 632 178 698 q 194 538 178 580 q 237 477 209 495 q 251 467 245 472 q 257 458 257 461 q 239 444 257 449 q 198 440 221 440 q 74 495 116 440 q 33 644 33 551 q 68 797 33 722 q 160 929 103 871 q 288 1022 217 987 q 431 1057 359 1057 q 619 985 556 1057 q 683 791 683 913 q 678 726 683 765 q 667 650 673 688 q 658 580 662 611 q 654 539 654 549 m 866 1134 q 882 1119 877 1131 q 887 1093 887 1108 q 873 1043 887 1064 q 835 1023 858 1023 q 800 1035 815 1023 q 774 1062 784 1047 q 756 1089 763 1077 q 747 1101 748 1101 q 739 1091 742 1101 q 732 1068 735 1080 q 725 1046 729 1056 q 717 1036 722 1036 q 703 1046 709 1036 q 698 1067 698 1056 q 712 1112 698 1090 q 748 1134 725 1134 q 801 1118 783 1134 q 845 1064 819 1101 q 852 1074 850 1064 q 855 1099 855 1085 q 857 1123 856 1113 q 863 1134 858 1134 l 866 1134 l 866 1134 z "},"":{"ha":1242,"x_min":39,"x_max":1167,"o":"m 650 1078 q 875 1042 778 1078 q 1037 940 972 1007 q 1134 779 1101 874 q 1167 565 1167 683 q 1115 279 1167 415 q 984 39 1064 144 q 806 -127 904 -65 q 616 -188 708 -188 q 489 -168 546 -188 q 387 -114 431 -149 q 314 -33 343 -80 q 273 69 284 13 l 263 113 l 237 126 q 90 266 141 173 q 39 477 39 358 q 82 668 39 565 q 203 860 124 771 q 395 1011 283 949 q 650 1078 508 1072 m 1039 779 q 934 964 1007 905 q 747 1023 861 1023 q 519 962 621 1023 q 344 814 417 902 q 232 627 271 725 q 193 451 193 528 q 208 333 193 394 q 218 301 211 320 q 234 264 225 281 q 249 234 242 247 q 260 219 257 221 q 268 245 265 219 q 298 382 276 312 q 352 520 320 453 q 422 645 384 587 q 502 748 461 704 q 583 819 542 792 q 662 845 624 845 q 707 833 683 845 q 730 809 730 822 q 720 793 729 806 q 696 766 711 781 q 596 632 641 708 q 518 474 551 556 q 466 312 485 392 q 441 165 446 232 l 438 119 l 466 119 q 526 128 493 119 q 592 154 559 137 q 657 199 621 168 q 724 268 693 230 q 775 346 755 306 q 796 420 796 387 q 797 478 796 462 q 809 493 799 493 q 839 484 825 493 q 863 462 853 475 q 877 431 873 448 q 882 402 882 415 q 848 284 882 342 q 759 181 814 227 q 636 105 704 134 q 498 70 567 75 l 443 67 l 446 49 q 473 -39 454 -5 q 517 -93 492 -74 q 574 -120 542 -113 q 636 -127 605 -127 q 694 -117 662 -127 q 759 -89 727 -106 q 819 -49 791 -72 q 863 -3 846 -26 q 897 47 877 18 q 937 113 917 77 q 977 188 958 149 q 1010 270 997 227 q 1064 588 1064 433 q 1039 779 1064 688 m 691 1243 q 729 1235 717 1243 q 758 1186 740 1227 q 778 1127 778 1139 q 769 1114 778 1118 q 753 1109 760 1109 q 736 1123 752 1109 q 702 1155 721 1137 q 668 1193 683 1173 q 654 1225 654 1212 q 691 1243 654 1243 z "},"":{"ha":1242,"x_min":39,"x_max":1167,"o":"m 650 1078 q 875 1042 778 1078 q 1037 940 972 1007 q 1134 779 1101 874 q 1167 565 1167 683 q 1115 279 1167 415 q 984 39 1064 144 q 806 -127 904 -65 q 616 -188 708 -188 q 489 -168 546 -188 q 387 -114 431 -149 q 314 -33 343 -80 q 273 69 284 13 l 263 113 l 237 126 q 90 266 141 173 q 39 477 39 358 q 82 668 39 565 q 203 860 124 771 q 395 1011 283 949 q 650 1078 508 1072 m 1039 779 q 934 964 1007 905 q 747 1023 861 1023 q 519 962 621 1023 q 344 814 417 902 q 232 627 271 725 q 193 451 193 528 q 208 333 193 394 q 218 301 211 320 q 234 264 225 281 q 249 234 242 247 q 260 219 257 221 q 268 245 265 219 q 298 382 276 312 q 352 520 320 453 q 422 645 384 587 q 502 748 461 704 q 583 819 542 792 q 662 845 624 845 q 707 833 683 845 q 730 809 730 822 q 720 793 729 806 q 696 766 711 781 q 596 632 641 708 q 518 474 551 556 q 466 312 485 392 q 441 165 446 232 l 438 119 l 466 119 q 526 128 493 119 q 592 154 559 137 q 657 199 621 168 q 724 268 693 230 q 775 346 755 306 q 796 420 796 387 q 797 478 796 462 q 809 493 799 493 q 839 484 825 493 q 863 462 853 475 q 877 431 873 448 q 882 402 882 415 q 848 284 882 342 q 759 181 814 227 q 636 105 704 134 q 498 70 567 75 l 443 67 l 446 49 q 473 -39 454 -5 q 517 -93 492 -74 q 574 -120 542 -113 q 636 -127 605 -127 q 694 -117 662 -127 q 759 -89 727 -106 q 819 -49 791 -72 q 863 -3 846 -26 q 897 47 877 18 q 937 113 917 77 q 977 188 958 149 q 1010 270 997 227 q 1064 588 1064 433 q 1039 779 1064 688 m 701 1232 q 730 1231 714 1235 q 753 1219 745 1227 q 757 1205 761 1211 q 725 1168 753 1199 q 694 1135 709 1150 q 675 1116 678 1119 q 629 1113 652 1096 q 622 1121 621 1118 q 631 1139 623 1124 q 671 1200 649 1172 q 701 1232 693 1229 z "},"":{"ha":1242,"x_min":39,"x_max":1167,"o":"m 650 1078 q 875 1042 778 1078 q 1037 940 972 1007 q 1134 779 1101 874 q 1167 565 1167 683 q 1115 279 1167 415 q 984 39 1064 144 q 806 -127 904 -65 q 616 -188 708 -188 q 489 -168 546 -188 q 387 -114 431 -149 q 314 -33 343 -80 q 273 69 284 13 l 263 113 l 237 126 q 90 266 141 173 q 39 477 39 358 q 82 668 39 565 q 203 860 124 771 q 395 1011 283 949 q 650 1078 508 1072 m 1039 779 q 934 964 1007 905 q 747 1023 861 1023 q 519 962 621 1023 q 344 814 417 902 q 232 627 271 725 q 193 451 193 528 q 208 333 193 394 q 218 301 211 320 q 234 264 225 281 q 249 234 242 247 q 260 219 257 221 q 268 245 265 219 q 298 382 276 312 q 352 520 320 453 q 422 645 384 587 q 502 748 461 704 q 583 819 542 792 q 662 845 624 845 q 707 833 683 845 q 730 809 730 822 q 720 793 729 806 q 696 766 711 781 q 596 632 641 708 q 518 474 551 556 q 466 312 485 392 q 441 165 446 232 l 438 119 l 466 119 q 526 128 493 119 q 592 154 559 137 q 657 199 621 168 q 724 268 693 230 q 775 346 755 306 q 796 420 796 387 q 797 478 796 462 q 809 493 799 493 q 839 484 825 493 q 863 462 853 475 q 877 431 873 448 q 882 402 882 415 q 848 284 882 342 q 759 181 814 227 q 636 105 704 134 q 498 70 567 75 l 443 67 l 446 49 q 473 -39 454 -5 q 517 -93 492 -74 q 574 -120 542 -113 q 636 -127 605 -127 q 694 -117 662 -127 q 759 -89 727 -106 q 819 -49 791 -72 q 863 -3 846 -26 q 897 47 877 18 q 937 113 917 77 q 977 188 958 149 q 1010 270 997 227 q 1064 588 1064 433 q 1039 779 1064 688 m 716 1235 q 734 1217 721 1232 q 761 1184 748 1201 q 785 1151 775 1167 q 796 1134 796 1136 q 783 1118 796 1124 q 753 1113 771 1113 q 730 1115 739 1113 q 717 1124 722 1118 q 708 1141 712 1131 q 693 1170 703 1152 l 675 1203 l 645 1165 q 618 1128 626 1139 q 603 1119 611 1118 q 591 1123 596 1119 q 585 1131 585 1126 q 596 1151 585 1132 q 623 1190 606 1170 q 658 1228 639 1211 q 691 1245 676 1245 q 716 1235 703 1245 z "},"":{"ha":1242,"x_min":39,"x_max":1167,"o":"m 650 1078 q 875 1042 778 1078 q 1037 940 972 1007 q 1134 779 1101 874 q 1167 565 1167 683 q 1115 279 1167 415 q 984 39 1064 144 q 806 -127 904 -65 q 616 -188 708 -188 q 489 -168 546 -188 q 387 -114 431 -149 q 314 -33 343 -80 q 273 69 284 13 l 263 113 l 237 126 q 90 266 141 173 q 39 477 39 358 q 82 668 39 565 q 203 860 124 771 q 395 1011 283 949 q 650 1078 508 1072 m 1039 779 q 934 964 1007 905 q 747 1023 861 1023 q 519 962 621 1023 q 344 814 417 902 q 232 627 271 725 q 193 451 193 528 q 208 333 193 394 q 218 301 211 320 q 234 264 225 281 q 249 234 242 247 q 260 219 257 221 q 268 245 265 219 q 298 382 276 312 q 352 520 320 453 q 422 645 384 587 q 502 748 461 704 q 583 819 542 792 q 662 845 624 845 q 707 833 683 845 q 730 809 730 822 q 720 793 729 806 q 696 766 711 781 q 596 632 641 708 q 518 474 551 556 q 466 312 485 392 q 441 165 446 232 l 438 119 l 466 119 q 526 128 493 119 q 592 154 559 137 q 657 199 621 168 q 724 268 693 230 q 775 346 755 306 q 796 420 796 387 q 797 478 796 462 q 809 493 799 493 q 839 484 825 493 q 863 462 853 475 q 877 431 873 448 q 882 402 882 415 q 848 284 882 342 q 759 181 814 227 q 636 105 704 134 q 498 70 567 75 l 443 67 l 446 49 q 473 -39 454 -5 q 517 -93 492 -74 q 574 -120 542 -113 q 636 -127 605 -127 q 694 -117 662 -127 q 759 -89 727 -106 q 819 -49 791 -72 q 863 -3 846 -26 q 897 47 877 18 q 937 113 917 77 q 977 188 958 149 q 1010 270 997 227 q 1064 588 1064 433 q 1039 779 1064 688 m 760 1239 q 776 1224 771 1235 q 781 1198 781 1212 q 766 1148 781 1168 q 729 1127 752 1127 q 694 1140 709 1127 q 667 1167 678 1152 q 650 1194 657 1181 q 641 1206 642 1206 q 632 1195 636 1206 q 626 1172 629 1185 q 619 1150 623 1160 q 611 1141 616 1141 q 597 1150 603 1141 q 592 1172 592 1160 q 605 1217 592 1194 q 642 1239 619 1239 q 694 1222 676 1239 q 739 1168 712 1206 q 746 1179 743 1168 q 749 1203 748 1190 q 751 1228 750 1217 q 757 1239 752 1239 l 760 1239 l 760 1239 z "},"":{"ha":1242,"x_min":39,"x_max":1167,"o":"m 650 1078 q 875 1042 778 1078 q 1037 940 972 1007 q 1134 779 1101 874 q 1167 565 1167 683 q 1115 279 1167 415 q 984 39 1064 144 q 806 -127 904 -65 q 616 -188 708 -188 q 489 -168 546 -188 q 387 -114 431 -149 q 314 -33 343 -80 q 273 69 284 13 l 263 113 l 237 126 q 90 266 141 173 q 39 477 39 358 q 82 668 39 565 q 203 860 124 771 q 395 1011 283 949 q 650 1078 508 1072 m 1039 779 q 934 964 1007 905 q 747 1023 861 1023 q 519 962 621 1023 q 344 814 417 902 q 232 627 271 725 q 193 451 193 528 q 208 333 193 394 q 218 301 211 320 q 234 264 225 281 q 249 234 242 247 q 260 219 257 221 q 268 245 265 219 q 298 382 276 312 q 352 520 320 453 q 422 645 384 587 q 502 748 461 704 q 583 819 542 792 q 662 845 624 845 q 707 833 683 845 q 730 809 730 822 q 720 793 729 806 q 696 766 711 781 q 596 632 641 708 q 518 474 551 556 q 466 312 485 392 q 441 165 446 232 l 438 119 l 466 119 q 526 128 493 119 q 592 154 559 137 q 657 199 621 168 q 724 268 693 230 q 775 346 755 306 q 796 420 796 387 q 797 478 796 462 q 809 493 799 493 q 839 484 825 493 q 863 462 853 475 q 877 431 873 448 q 882 402 882 415 q 848 284 882 342 q 759 181 814 227 q 636 105 704 134 q 498 70 567 75 l 443 67 l 446 49 q 473 -39 454 -5 q 517 -93 492 -74 q 574 -120 542 -113 q 636 -127 605 -127 q 694 -117 662 -127 q 759 -89 727 -106 q 819 -49 791 -72 q 863 -3 846 -26 q 897 47 877 18 q 937 113 917 77 q 977 188 958 149 q 1010 270 997 227 q 1064 588 1064 433 q 1039 779 1064 688 m 649 1225 q 680 1212 667 1225 q 693 1181 693 1199 q 679 1148 693 1158 q 645 1137 665 1137 q 614 1152 631 1137 q 598 1178 598 1167 q 612 1211 598 1196 q 649 1225 626 1225 m 786 1224 q 815 1212 802 1222 q 827 1185 827 1201 q 811 1151 827 1165 q 779 1137 796 1137 q 751 1153 765 1137 q 737 1183 737 1168 q 748 1211 737 1198 q 786 1224 760 1224 z "},"":{"ha":1242,"x_min":39,"x_max":1167,"o":"m 650 1078 q 875 1042 778 1078 q 1037 940 972 1007 q 1134 779 1101 874 q 1167 565 1167 683 q 1115 279 1167 415 q 984 39 1064 144 q 806 -127 904 -65 q 616 -188 708 -188 q 489 -168 546 -188 q 387 -114 431 -149 q 314 -33 343 -80 q 273 69 284 13 l 263 113 l 237 126 q 90 266 141 173 q 39 477 39 358 q 82 668 39 565 q 203 860 124 771 q 395 1011 283 949 q 650 1078 508 1072 m 1039 779 q 934 964 1007 905 q 747 1023 861 1023 q 519 962 621 1023 q 344 814 417 902 q 232 627 271 725 q 193 451 193 528 q 208 333 193 394 q 218 301 211 320 q 234 264 225 281 q 249 234 242 247 q 260 219 257 221 q 268 245 265 219 q 298 382 276 312 q 352 520 320 453 q 422 645 384 587 q 502 748 461 704 q 583 819 542 792 q 662 845 624 845 q 707 833 683 845 q 730 809 730 822 q 720 793 729 806 q 696 766 711 781 q 596 632 641 708 q 518 474 551 556 q 466 312 485 392 q 441 165 446 232 l 438 119 l 466 119 q 526 128 493 119 q 592 154 559 137 q 657 199 621 168 q 724 268 693 230 q 775 346 755 306 q 796 420 796 387 q 797 478 796 462 q 809 493 799 493 q 839 484 825 493 q 863 462 853 475 q 877 431 873 448 q 882 402 882 415 q 848 284 882 342 q 759 181 814 227 q 636 105 704 134 q 498 70 567 75 l 443 67 l 446 49 q 473 -39 454 -5 q 517 -93 492 -74 q 574 -120 542 -113 q 636 -127 605 -127 q 694 -117 662 -127 q 759 -89 727 -106 q 819 -49 791 -72 q 863 -3 846 -26 q 897 47 877 18 q 937 113 917 77 q 977 188 958 149 q 1010 270 997 227 q 1064 588 1064 433 q 1039 779 1064 688 m 948 1124 q 965 1114 959 1119 q 971 1095 971 1108 q 964 1056 971 1082 q 943 987 958 1031 q 906 867 930 940 q 847 690 882 794 q 764 449 812 587 q 655 136 716 312 q 619 33 637 87 q 585 -66 601 -20 q 557 -148 569 -113 q 541 -199 546 -183 q 533 -225 536 -214 q 528 -235 529 -235 q 524 -238 526 -237 q 520 -242 521 -239 q 511 -244 516 -243 q 497 -247 505 -245 q 469 -244 479 -247 q 456 -234 459 -242 q 460 -211 454 -230 q 475 -167 466 -191 q 495 -111 485 -141 q 518 -42 505 -82 q 548 51 531 -2 q 588 175 565 103 q 816 866 737 632 q 910 1116 895 1100 q 926 1127 918 1126 q 948 1124 933 1129 z "}}}
